<svg width="29" height="29" viewBox="0 0 29 29" fill="none" xmlns="http://www.w3.org/2000/svg">
<path d="M14.4539 1.39893C21.6644 1.39893 27.5093 7.24384 27.5093 14.4543C27.5093 21.6649 21.6644 27.5098 14.4539 27.5098C7.24335 27.5098 1.39844 21.6649 1.39844 14.4543C1.39844 7.24384 7.24335 1.39893 14.4539 1.39893Z" fill="#FEEEB4"/>
<path d="M14.4539 19.6765H14.4643H14.4539ZM14.4539 9.23218V15.7599V9.23218ZM27.5093 14.4543C27.5093 7.24384 21.6644 1.39893 14.4539 1.39893C7.24335 1.39893 1.39844 7.24384 1.39844 14.4543C1.39844 21.6649 7.24335 27.5098 14.4539 27.5098C21.6644 27.5098 27.5093 21.6649 27.5093 14.4543Z" fill="#FEEEB4"/>
<path d="M14.4539 19.6765H14.4643M14.4539 9.23218V15.7599M27.5093 14.4543C27.5093 7.24384 21.6644 1.39893 14.4539 1.39893C7.24335 1.39893 1.39844 7.24384 1.39844 14.4543C1.39844 21.6649 7.24335 27.5098 14.4539 27.5098C21.6644 27.5098 27.5093 21.6649 27.5093 14.4543Z" stroke="#C6AD52" stroke-width="2.79759" stroke-miterlimit="10" stroke-linecap="round" stroke-linejoin="round"/>
</svg>
