<svg width="284" height="276" viewBox="0 0 284 276" fill="none" xmlns="http://www.w3.org/2000/svg">
<ellipse cx="142" cy="158.228" rx="142" ry="117.657" fill="#2BD4CD" fill-opacity="0.16"/>
<rect x="66.6531" y="1.73878" width="158.808" height="192.424" rx="9.85306" fill="white"/>
<rect x="66.6531" y="1.73878" width="158.808" height="192.424" rx="9.85306" stroke="black" stroke-width="3.47755"/>
<line x1="113.6" y1="28.3999" x2="179.673" y2="28.3999" stroke="black" stroke-width="3.47755"/>
<line x1="113.6" y1="88.6775" x2="179.673" y2="88.6775" stroke="black" stroke-width="3.47755"/>
<line x1="121.714" y1="37.6736" x2="171.559" y2="37.6736" stroke="black" stroke-width="3.47755"/>
<circle cx="105.486" cy="57.9593" r="6.37551" stroke="#CAC8C8" stroke-width="1.15918"/>
<circle cx="105.486" cy="117.078" r="5.79592" stroke="#146374" stroke-width="2.31837"/>
<circle cx="125.192" cy="57.9593" r="6.37551" stroke="#CAC8C8" stroke-width="1.15918"/>
<circle cx="125.192" cy="117.078" r="6.37551" stroke="#CAC8C8" stroke-width="1.15918"/>
<circle cx="146.057" cy="57.9593" r="6.37551" stroke="#CAC8C8" stroke-width="1.15918"/>
<circle cx="146.057" cy="117.078" r="6.37551" stroke="#CAC8C8" stroke-width="1.15918"/>
<circle cx="166.922" cy="57.9593" r="5.79592" stroke="#146374" stroke-width="2.31837"/>
<circle cx="166.922" cy="117.078" r="6.37551" stroke="#CAC8C8" stroke-width="1.15918"/>
<circle cx="187.788" cy="57.9593" r="6.37551" stroke="#CAC8C8" stroke-width="1.15918"/>
<circle cx="187.788" cy="117.078" r="6.37551" stroke="#CAC8C8" stroke-width="1.15918"/>
<line x1="121.714" y1="96.7917" x2="171.559" y2="96.7917" stroke="black" stroke-width="3.47755"/>
<rect x="112.441" y="149.535" width="68.3918" height="16.2286" rx="8.11429" fill="black"/>
<line x1="119.396" y1="157.939" x2="136.784" y2="157.939" stroke="white" stroke-width="1.73878"/>
<line x1="139.102" y1="157.939" x2="173.878" y2="157.939" stroke="white" stroke-width="1.73878"/>
</svg>
