<svg width="191" height="182" viewBox="0 0 191 182" fill="none" xmlns="http://www.w3.org/2000/svg">
<rect width="190.965" height="181.522" rx="10.4926" fill="white" fill-opacity="0.1"/>
<path d="M40.9608 30.8512L40.7992 28.6918L42.0037 28.6184C42.2486 28.6086 42.4444 28.5694 42.5913 28.5008C42.7382 28.4225 42.8459 28.3099 42.9145 28.163C42.9928 28.0161 43.032 27.83 43.032 27.6048V20.3334H45.7349V27.5607C45.7349 28.2364 45.6125 28.8093 45.3677 29.2794C45.1228 29.7397 44.7605 30.0922 44.2806 30.3371C43.8008 30.5819 43.1936 30.7288 42.4591 30.7777L40.9608 30.8512ZM51.0911 30.8512C50.2881 30.8512 49.5879 30.6994 48.9905 30.3958C48.3931 30.0922 47.9279 29.6564 47.595 29.0884C47.262 28.5204 47.0955 27.8496 47.0955 27.076C47.0955 26.2925 47.262 25.6217 47.595 25.0635C47.9279 24.4955 48.3931 24.0597 48.9905 23.7561C49.5879 23.4525 50.2881 23.3007 51.0911 23.3007C51.8942 23.3007 52.5944 23.4525 53.1917 23.7561C53.7891 24.0597 54.2494 24.4955 54.5726 25.0635C54.9055 25.6217 55.072 26.2925 55.072 27.076C55.072 27.8496 54.9055 28.5204 54.5726 29.0884C54.2494 29.6564 53.7891 30.0922 53.1917 30.3958C52.5944 30.6994 51.8942 30.8512 51.0911 30.8512ZM51.0911 28.9268C51.4828 28.9268 51.806 28.78 52.0606 28.4862C52.3153 28.1924 52.4426 27.7223 52.4426 27.076C52.4426 26.4198 52.3153 25.9497 52.0606 25.6657C51.806 25.372 51.4828 25.2251 51.0911 25.2251C50.6896 25.2251 50.3615 25.372 50.1069 25.6657C49.8523 25.9497 49.725 26.4198 49.725 27.076C49.725 27.7223 49.8523 28.1924 50.1069 28.4862C50.3615 28.78 50.6896 28.9268 51.0911 28.9268ZM61.0296 30.8512C60.4714 30.8512 59.9719 30.719 59.5312 30.4546C59.1003 30.1804 58.8163 29.8229 58.6792 29.3822H58.8114V30.6896H56.2701V20.3334H58.8849V24.6669H58.7086C58.8555 24.2653 59.1444 23.9373 59.5753 23.6826C60.0062 23.428 60.491 23.3007 61.0296 23.3007C61.6563 23.3007 62.2047 23.4525 62.6748 23.7561C63.1547 24.0597 63.5268 24.4906 63.7912 25.0488C64.0556 25.607 64.1879 26.2827 64.1879 27.076C64.1879 27.8496 64.0556 28.5204 63.7912 29.0884C63.5268 29.6564 63.1547 30.0922 62.6748 30.3958C62.2047 30.6994 61.6563 30.8512 61.0296 30.8512ZM60.207 28.9268C60.5987 28.9268 60.9219 28.78 61.1765 28.4862C61.4311 28.1924 61.5584 27.7223 61.5584 27.076C61.5584 26.4198 61.4311 25.9497 61.1765 25.6657C60.9219 25.372 60.5987 25.2251 60.207 25.2251C59.8054 25.2251 59.4774 25.372 59.2228 25.6657C58.9681 25.9497 58.8408 26.4198 58.8408 27.076C58.8408 27.7223 58.9681 28.1924 59.2228 28.4862C59.4774 28.78 59.8054 28.9268 60.207 28.9268ZM69.7589 30.6896V20.3334H74.7387C75.9139 20.3334 76.8197 20.6223 77.4563 21.2001C78.1026 21.7681 78.4258 22.5613 78.4258 23.5798C78.4258 24.236 78.2789 24.8089 77.9851 25.2985C77.7011 25.7784 77.2849 26.1505 76.7365 26.4149C76.1979 26.6695 75.5319 26.7969 74.7387 26.7969L74.8562 26.5324H75.5613C75.9824 26.5324 76.3545 26.6353 76.6777 26.8409C77.0009 27.0368 77.2702 27.3404 77.4856 27.7517L79.1015 30.6896H76.1342L74.3421 27.3991C74.2637 27.2522 74.1707 27.1396 74.063 27.0613C73.9552 26.9829 73.8328 26.9242 73.6957 26.885C73.5684 26.8458 73.4264 26.8262 73.2697 26.8262H72.4618V30.6896H69.7589ZM72.4618 24.9166H74.2539C74.773 24.9166 75.1696 24.8137 75.4438 24.6081C75.718 24.4024 75.8551 24.0842 75.8551 23.6533C75.8551 23.242 75.718 22.9335 75.4438 22.7278C75.1696 22.5124 74.773 22.4046 74.2539 22.4046H72.4618V24.9166ZM83.6903 30.8512C82.8089 30.8512 82.0451 30.6994 81.3987 30.3958C80.7622 30.0824 80.2725 29.6417 79.9298 29.0737C79.587 28.5057 79.4156 27.8349 79.4156 27.0613C79.4156 26.317 79.5772 25.6657 79.9004 25.1075C80.2333 24.5395 80.6838 24.0989 81.2518 23.7855C81.8296 23.4623 82.4858 23.3007 83.2202 23.3007C83.9547 23.3007 84.5864 23.4525 85.1152 23.7561C85.644 24.0597 86.0504 24.4955 86.3344 25.0635C86.6282 25.6217 86.7751 26.2778 86.7751 27.0319V27.6048H81.6044V26.3709H84.8655L84.6304 26.5618C84.6304 26.033 84.5178 25.6413 84.2926 25.3866C84.0673 25.1222 83.7491 24.99 83.3377 24.99C83.0342 24.99 82.7698 25.0635 82.5445 25.2104C82.3291 25.3475 82.1626 25.5531 82.0451 25.8273C81.9275 26.1015 81.8688 26.4443 81.8688 26.8556V26.9878C81.8688 27.4481 81.9324 27.8202 82.0598 28.1042C82.1969 28.3882 82.4074 28.5988 82.6914 28.7359C82.9754 28.8632 83.3329 28.9268 83.7637 28.9268C84.1359 28.9268 84.5227 28.873 84.9242 28.7653C85.3355 28.6477 85.6979 28.4813 86.0113 28.2658L86.6576 29.9845C86.2855 30.2489 85.8301 30.4595 85.2915 30.6162C84.7529 30.7728 84.2191 30.8512 83.6903 30.8512ZM90.4136 30.8512C89.8554 30.8512 89.3608 30.7484 88.9299 30.5427C88.5088 30.3371 88.1758 30.058 87.931 29.7054C87.696 29.3431 87.5785 28.9317 87.5785 28.4715C87.5785 27.9426 87.7156 27.5264 87.9898 27.2229C88.264 26.9193 88.7047 26.7038 89.3118 26.5765C89.919 26.4394 90.7269 26.3709 91.7356 26.3709H92.5436V27.6048H91.7356C91.4516 27.6048 91.2019 27.6195 90.9865 27.6488C90.7808 27.6782 90.6094 27.7272 90.4723 27.7957C90.3352 27.8545 90.2324 27.9328 90.1638 28.0308C90.0953 28.1287 90.061 28.2413 90.061 28.3686C90.061 28.5939 90.1394 28.78 90.296 28.9268C90.4625 29.0737 90.6976 29.1472 91.0012 29.1472C91.246 29.1472 91.4614 29.0933 91.6475 28.9856C91.8434 28.8779 92 28.731 92.1176 28.5449C92.2351 28.3491 92.2938 28.1238 92.2938 27.8692V26.1652C92.2938 25.8126 92.2008 25.5629 92.0147 25.416C91.8385 25.2691 91.53 25.1957 91.0893 25.1957C90.7172 25.1957 90.3058 25.2544 89.8554 25.372C89.4049 25.4895 88.9642 25.6706 88.5333 25.9155L87.8723 24.1968C88.1269 24.0205 88.4403 23.8638 88.8124 23.7267C89.1943 23.5896 89.5958 23.4868 90.0169 23.4182C90.4478 23.3399 90.8445 23.3007 91.2068 23.3007C92.0098 23.3007 92.6709 23.4182 93.1899 23.6533C93.7187 23.8785 94.1105 24.2311 94.3651 24.7109C94.6295 25.181 94.7617 25.7882 94.7617 26.5324V30.6896H92.3232V29.3235H92.4114C92.3624 29.6368 92.2498 29.9062 92.0735 30.1314C91.8972 30.3566 91.6671 30.5329 91.3831 30.6602C91.0991 30.7875 90.7759 30.8512 90.4136 30.8512ZM99.071 30.8512C98.4541 30.8512 97.9057 30.6994 97.4258 30.3958C96.9557 30.0922 96.5836 29.6564 96.3094 29.0884C96.045 28.5204 95.9128 27.8496 95.9128 27.076C95.9128 26.2827 96.045 25.607 96.3094 25.0488C96.5836 24.4906 96.9557 24.0597 97.4258 23.7561C97.9057 23.4525 98.4541 23.3007 99.071 23.3007C99.6097 23.3007 100.094 23.428 100.525 23.6826C100.956 23.9373 101.245 24.2653 101.392 24.6669H101.23V20.3334H103.845V30.6896H101.289V29.3822H101.421C101.284 29.8229 100.995 30.1804 100.555 30.4546C100.124 30.719 99.6292 30.8512 99.071 30.8512ZM99.9084 28.9268C100.3 28.9268 100.623 28.78 100.878 28.4862C101.132 28.1924 101.26 27.7223 101.26 27.076C101.26 26.4198 101.132 25.9497 100.878 25.6657C100.623 25.372 100.3 25.2251 99.9084 25.2251C99.5068 25.2251 99.1788 25.372 98.9241 25.6657C98.6695 25.9497 98.5422 26.4198 98.5422 27.076C98.5422 27.7223 98.6695 28.1924 98.9241 28.4862C99.1788 28.78 99.5068 28.9268 99.9084 28.9268ZM105.286 22.2137V19.8487H108.033V22.2137H105.286ZM105.36 30.6896V23.4623H107.975V30.6896H105.36ZM109.491 30.6896V23.4623H112.033V24.7256H111.871C112.106 24.2653 112.439 23.9128 112.87 23.668C113.311 23.4231 113.81 23.3007 114.368 23.3007C114.946 23.3007 115.421 23.4133 115.793 23.6386C116.165 23.854 116.444 24.1968 116.631 24.6669C116.817 25.1271 116.91 25.7098 116.91 26.4149V30.6896H114.295V26.5177C114.295 26.224 114.261 25.9889 114.192 25.8126C114.124 25.6266 114.021 25.4944 113.884 25.416C113.756 25.3377 113.595 25.2985 113.399 25.2985C113.134 25.2985 112.904 25.3573 112.708 25.4748C112.513 25.5825 112.361 25.7392 112.253 25.9449C112.155 26.1505 112.106 26.3953 112.106 26.6793V30.6896H109.491ZM122.337 30.8512C121.455 30.8512 120.691 30.6994 120.045 30.3958C119.409 30.0824 118.919 29.6417 118.576 29.0737C118.233 28.5057 118.062 27.8349 118.062 27.0613C118.062 26.317 118.224 25.6657 118.547 25.1075C118.88 24.5395 119.33 24.0989 119.898 23.7855C120.476 23.4623 121.132 23.3007 121.867 23.3007C122.601 23.3007 123.233 23.4525 123.762 23.7561C124.29 24.0597 124.697 24.4955 124.981 25.0635C125.275 25.6217 125.422 26.2778 125.422 27.0319V27.6048H120.251V26.3709H123.512L123.277 26.5618C123.277 26.033 123.164 25.6413 122.939 25.3866C122.714 25.1222 122.395 24.99 121.984 24.99C121.681 24.99 121.416 25.0635 121.191 25.2104C120.975 25.3475 120.809 25.5531 120.691 25.8273C120.574 26.1015 120.515 26.4443 120.515 26.8556V26.9878C120.515 27.4481 120.579 27.8202 120.706 28.1042C120.843 28.3882 121.054 28.5988 121.338 28.7359C121.622 28.8632 121.979 28.9268 122.41 28.9268C122.782 28.9268 123.169 28.873 123.571 28.7653C123.982 28.6477 124.344 28.4813 124.658 28.2658L125.304 29.9845C124.932 30.2489 124.476 30.4595 123.938 30.6162C123.399 30.7728 122.866 30.8512 122.337 30.8512ZM129.427 30.8512C128.986 30.8512 128.56 30.8218 128.149 30.7631C127.748 30.7043 127.38 30.6162 127.047 30.4986C126.714 30.3811 126.416 30.2391 126.151 30.0726L126.754 28.3833C126.998 28.5204 127.268 28.6428 127.562 28.7506C127.865 28.8583 128.179 28.9415 128.502 29.0003C128.825 29.0591 129.138 29.0884 129.442 29.0884C129.804 29.0884 130.064 29.0395 130.22 28.9415C130.377 28.8338 130.455 28.6967 130.455 28.5302C130.455 28.3833 130.402 28.2707 130.294 28.1924C130.196 28.114 130.054 28.0602 129.868 28.0308L128.237 27.7664C127.63 27.6586 127.16 27.4383 126.827 27.1053C126.494 26.7626 126.328 26.317 126.328 25.7686C126.328 25.2593 126.47 24.8235 126.754 24.4612C127.047 24.0891 127.444 23.8051 127.944 23.6092C128.453 23.4035 129.035 23.3007 129.692 23.3007C130.044 23.3007 130.392 23.3301 130.735 23.3889C131.077 23.4378 131.405 23.5211 131.719 23.6386C132.032 23.7463 132.316 23.8932 132.571 24.0793L131.924 25.7392C131.738 25.6021 131.518 25.4846 131.263 25.3866C131.009 25.2887 130.744 25.2104 130.47 25.1516C130.206 25.0831 129.961 25.0488 129.736 25.0488C129.334 25.0488 129.05 25.1026 128.884 25.2104C128.717 25.3181 128.634 25.4552 128.634 25.6217C128.634 25.749 128.678 25.8567 128.766 25.9449C128.854 26.0232 128.991 26.0771 129.177 26.1064L130.808 26.3855C131.435 26.4835 131.915 26.6989 132.248 27.0319C132.59 27.3551 132.762 27.7957 132.762 28.354C132.762 28.8828 132.625 29.3333 132.35 29.7054C132.076 30.0775 131.689 30.3615 131.19 30.5574C130.69 30.7533 130.103 30.8512 129.427 30.8512ZM136.715 30.8512C136.274 30.8512 135.848 30.8218 135.437 30.7631C135.035 30.7043 134.668 30.6162 134.335 30.4986C134.002 30.3811 133.703 30.2391 133.439 30.0726L134.041 28.3833C134.286 28.5204 134.555 28.6428 134.849 28.7506C135.153 28.8583 135.466 28.9415 135.789 29.0003C136.112 29.0591 136.426 29.0884 136.729 29.0884C137.092 29.0884 137.351 29.0395 137.508 28.9415C137.665 28.8338 137.743 28.6967 137.743 28.5302C137.743 28.3833 137.689 28.2707 137.581 28.1924C137.483 28.114 137.341 28.0602 137.155 28.0308L135.525 27.7664C134.918 27.6586 134.448 27.4383 134.115 27.1053C133.782 26.7626 133.615 26.317 133.615 25.7686C133.615 25.2593 133.757 24.8235 134.041 24.4612C134.335 24.0891 134.732 23.8051 135.231 23.6092C135.74 23.4035 136.323 23.3007 136.979 23.3007C137.332 23.3007 137.679 23.3301 138.022 23.3889C138.365 23.4378 138.693 23.5211 139.006 23.6386C139.32 23.7463 139.604 23.8932 139.858 24.0793L139.212 25.7392C139.026 25.6021 138.805 25.4846 138.551 25.3866C138.296 25.2887 138.032 25.2104 137.758 25.1516C137.493 25.0831 137.248 25.0488 137.023 25.0488C136.622 25.0488 136.338 25.1026 136.171 25.2104C136.005 25.3181 135.921 25.4552 135.921 25.6217C135.921 25.749 135.965 25.8567 136.054 25.9449C136.142 26.0232 136.279 26.0771 136.465 26.1064L138.095 26.3855C138.722 26.4835 139.202 26.6989 139.535 27.0319C139.878 27.3551 140.049 27.7957 140.049 28.354C140.049 28.8828 139.912 29.3333 139.638 29.7054C139.364 30.0775 138.977 30.3615 138.477 30.5574C137.978 30.7533 137.39 30.8512 136.715 30.8512Z" fill="#101828"/>
<path d="M81.5234 112.267C80.684 112.267 79.8614 112.192 79.0555 112.04C78.2665 111.889 77.5278 111.671 76.8395 111.386C76.1512 111.1 75.5804 110.765 75.1271 110.378L76.5373 106.928C77.276 107.449 78.0483 107.835 78.8541 108.087C79.6599 108.339 80.4909 108.465 81.3471 108.465C81.9515 108.465 82.4551 108.397 82.8581 108.263C83.261 108.129 83.5632 107.927 83.7646 107.659C83.9661 107.373 84.0668 107.021 84.0668 106.601C84.0668 106.013 83.857 105.585 83.4373 105.317C83.0343 105.031 82.4384 104.889 81.6493 104.889H78.5519V101.212H81.196C81.6829 101.212 82.0942 101.145 82.43 101.011C82.7825 100.876 83.0511 100.683 83.2358 100.431C83.4205 100.163 83.5128 99.8354 83.5128 99.4493C83.5128 98.8953 83.3113 98.4756 82.9084 98.1902C82.5223 97.9048 81.9431 97.7621 81.1709 97.7621C80.365 97.7621 79.6012 97.888 78.8793 98.1398C78.1742 98.3917 77.4942 98.7778 76.8395 99.2982L75.4041 95.9238C76.1596 95.3026 77.0829 94.8242 78.1742 94.4884C79.2822 94.1359 80.4322 93.9596 81.6241 93.9596C82.9504 93.9596 84.0836 94.1526 85.0237 94.5388C85.9639 94.9249 86.6774 95.4873 87.1642 96.226C87.6679 96.9479 87.9197 97.8209 87.9197 98.8449C87.9197 99.869 87.6343 100.75 87.0635 101.489C86.4927 102.228 85.7121 102.715 84.7215 102.95V102.597C85.4938 102.715 86.1569 102.975 86.7109 103.378C87.2817 103.781 87.7182 104.293 88.0204 104.914C88.3226 105.535 88.4737 106.249 88.4737 107.054C88.4737 108.129 88.1967 109.061 87.6427 109.85C87.0887 110.639 86.2912 111.243 85.2504 111.663C84.2095 112.066 82.9672 112.267 81.5234 112.267ZM97.0258 112.267C96.2368 112.267 95.4477 112.183 94.6587 112.015C93.8864 111.864 93.1646 111.646 92.493 111.361C91.8215 111.075 91.2591 110.748 90.8058 110.378L92.216 106.928C92.9547 107.432 93.7186 107.818 94.5076 108.087C95.3134 108.339 96.1193 108.465 96.9251 108.465C97.7813 108.465 98.4444 108.28 98.9145 107.911C99.3846 107.541 99.6196 107.021 99.6196 106.349C99.6196 105.678 99.393 105.149 98.9397 104.763C98.4864 104.377 97.882 104.184 97.1266 104.184C96.5558 104.184 96.0269 104.284 95.5401 104.486C95.07 104.67 94.6251 104.956 94.2054 105.342H91.3095V94.2366H102.893V97.9887H95.666V101.942H94.6083C95.0112 101.472 95.5317 101.12 96.1696 100.885C96.8244 100.633 97.5463 100.507 98.3353 100.507C99.4601 100.507 100.451 100.75 101.307 101.237C102.163 101.707 102.826 102.37 103.296 103.227C103.783 104.083 104.026 105.082 104.026 106.223C104.026 107.432 103.741 108.498 103.17 109.421C102.616 110.328 101.81 111.033 100.753 111.537C99.7119 112.024 98.4696 112.267 97.0258 112.267ZM113.107 112.796L110.287 111.159L120.561 93.4308L123.357 95.0676L113.107 112.796ZM110.186 104.813C109.179 104.813 108.323 104.586 107.618 104.133C106.913 103.68 106.367 103.042 105.981 102.219C105.612 101.397 105.427 100.44 105.427 99.3486C105.427 97.6866 105.847 96.3771 106.686 95.4202C107.525 94.4464 108.692 93.9596 110.186 93.9596C111.177 93.9596 112.025 94.1862 112.73 94.6395C113.435 95.076 113.972 95.6972 114.341 96.503C114.728 97.3088 114.921 98.2574 114.921 99.3486C114.921 100.44 114.728 101.397 114.341 102.219C113.972 103.042 113.435 103.68 112.73 104.133C112.025 104.586 111.177 104.813 110.186 104.813ZM110.186 102.043C110.572 102.043 110.866 101.842 111.068 101.439C111.269 101.036 111.37 100.339 111.37 99.3486C111.37 98.3581 111.261 97.6698 111.043 97.2836C110.841 96.8975 110.556 96.7044 110.186 96.7044C109.783 96.7044 109.481 96.8975 109.28 97.2836C109.078 97.653 108.978 98.3413 108.978 99.3486C108.978 100.356 109.078 101.061 109.28 101.464C109.481 101.85 109.783 102.043 110.186 102.043ZM123.483 112.267C122.492 112.267 121.644 112.04 120.939 111.587C120.234 111.134 119.688 110.504 119.302 109.698C118.933 108.876 118.748 107.919 118.748 106.828C118.748 105.166 119.168 103.848 120.007 102.874C120.847 101.9 122.005 101.414 123.483 101.414C124.49 101.414 125.346 101.64 126.051 102.093C126.756 102.547 127.293 103.176 127.663 103.982C128.049 104.788 128.242 105.736 128.242 106.828C128.242 107.919 128.049 108.876 127.663 109.698C127.293 110.504 126.756 111.134 126.051 111.587C125.346 112.04 124.49 112.267 123.483 112.267ZM123.483 109.522C123.885 109.522 124.188 109.321 124.389 108.918C124.591 108.498 124.691 107.801 124.691 106.828C124.691 105.837 124.582 105.149 124.364 104.763C124.162 104.377 123.869 104.184 123.483 104.184C123.096 104.184 122.803 104.368 122.601 104.738C122.4 105.107 122.299 105.804 122.299 106.828C122.299 107.835 122.4 108.54 122.601 108.943C122.803 109.329 123.096 109.522 123.483 109.522Z" fill="#FF0B00"/>
<path d="M154.241 103.877C154.241 132.851 130.753 156.34 101.778 156.34C72.8037 156.34 49.3152 132.851 49.3152 103.877C49.3152 74.9022 72.8037 51.4137 101.778 51.4137C130.753 51.4137 154.241 74.9022 154.241 103.877ZM54.5615 103.877C54.5615 129.954 75.7012 151.093 101.778 151.093C127.855 151.093 148.995 129.954 148.995 103.877C148.995 77.7996 127.855 56.66 101.778 56.66C75.7012 56.66 54.5615 77.7996 54.5615 103.877Z" fill="#D9D9D9"/>
<path d="M101.778 54.0369C101.778 52.5881 102.953 51.4069 104.4 51.4793C113.137 51.9164 121.641 54.5325 129.129 59.1074C137.365 64.1389 144.053 71.3447 148.458 79.9319C152.863 88.5192 154.814 98.1551 154.096 107.779C153.443 116.53 150.607 124.963 145.865 132.314C145.08 133.532 143.435 133.797 142.258 132.952V132.952C141.082 132.107 140.82 130.471 141.598 129.25C145.781 122.686 148.283 115.178 148.864 107.389C149.51 98.7272 147.755 90.0549 143.79 82.3264C139.826 74.5979 133.806 68.1127 126.394 63.5843C119.729 59.5127 112.171 57.165 104.4 56.7329C102.954 56.6524 101.778 55.4856 101.778 54.0369V54.0369Z" fill="#FF0B00"/>
<path d="M35.6106 75.0864C35.9057 75.3812 36.3058 75.5467 36.7228 75.5467C37.1399 75.5467 37.54 75.3812 37.8351 75.0864L43.7728 69.1518C44.0681 68.8566 44.2339 68.4561 44.2339 68.0386C44.2339 67.621 44.0681 67.2205 43.7728 66.9253C43.4776 66.63 43.0771 66.4642 42.6596 66.4642C42.242 66.4642 41.8415 66.63 41.5463 66.9253L38.2967 70.1738V58.0706C38.2967 57.6532 38.1309 57.2528 37.8357 56.9577C37.5406 56.6625 37.1403 56.4967 36.7228 56.4967C36.3054 56.4967 35.9051 56.6625 35.6099 56.9577C35.3148 57.2528 35.149 57.6532 35.149 58.0706V70.1738L31.9004 66.9253C31.7542 66.7791 31.5807 66.6631 31.3897 66.584C31.1987 66.5049 30.9939 66.4642 30.7872 66.4642C30.5804 66.4642 30.3757 66.5049 30.1847 66.584C29.9937 66.6631 29.8201 66.7791 29.6739 66.9253C29.5277 67.0715 29.4117 67.245 29.3326 67.4361C29.2535 67.6271 29.2128 67.8318 29.2128 68.0386C29.2128 68.2453 29.2535 68.45 29.3326 68.641C29.4117 68.8321 29.5277 69.0056 29.6739 69.1518L35.6106 75.0864Z" fill="#FF0B00"/>
</svg>
