<svg width="142" height="40" viewBox="0 0 142 40" fill="none" xmlns="http://www.w3.org/2000/svg">
<path d="M10.261 25.385L16.0317 14.251L21.6584 25.667" stroke="#FBFEFE" stroke-width="2.27191" stroke-miterlimit="2.61313" stroke-linecap="round" stroke-linejoin="round"/>
<path d="M35.3642 26.0897V14.251L40.7746 19.5362L45.9686 14.4626V25.5259" stroke="#FBFEFE" stroke-width="2.27191" stroke-miterlimit="2.61313" stroke-linecap="round" stroke-linejoin="round"/>
<path d="M59.4579 14.5332C63.4993 14.5332 69.8622 13.4043 70.8556 18.9023C71.2884 21.2981 69.557 24.6805 66.9602 24.8217C64.3633 24.9625 59.0868 25.0433 59.0868 25.0433L59.1114 20.3298" stroke="#FBFEFE" stroke-width="2.27191" stroke-miterlimit="2.61313" stroke-linecap="round" stroke-linejoin="round"/>
<path d="M109.521 25.9485V14.4033L115.574 14.4609C119.326 15.1586 118.671 19.7134 114.54 19.4358L118.724 25.2733" stroke="#FBFEFE" stroke-width="2.27191" stroke-miterlimit="2.61313" stroke-linecap="round" stroke-linejoin="round"/>
<path d="M131.739 13.9106V25.8829" stroke="#FBFEFE" stroke-width="2.27191" stroke-miterlimit="2.61313" stroke-linecap="round" stroke-linejoin="round"/>
<path d="M84.3046 25.385L90.0752 14.251L95.702 25.667" stroke="#FBFEFE" stroke-width="2.27191" stroke-miterlimit="2.61313" stroke-linecap="round" stroke-linejoin="round"/>
</svg>
