<svg width="142" height="40" viewBox="0 0 142 40" fill="none" xmlns="http://www.w3.org/2000/svg">
<path d="M10.261 25.3849L16.0317 14.2508L21.6584 25.6668" stroke="#146374" stroke-width="2.27191" stroke-miterlimit="2.61313" stroke-linecap="round" stroke-linejoin="round"/>
<path d="M35.3642 26.0896V14.2508L40.7746 19.536L45.9686 14.4625V25.5257" stroke="#146374" stroke-width="2.27191" stroke-miterlimit="2.61313" stroke-linecap="round" stroke-linejoin="round"/>
<path d="M59.4579 14.5328C63.4993 14.5328 69.8622 13.4039 70.8556 18.9019C71.2884 21.2977 69.557 24.6802 66.9602 24.8213C64.3633 24.9621 59.0868 25.0429 59.0868 25.0429L59.1114 20.3294" stroke="#146374" stroke-width="2.27191" stroke-miterlimit="2.61313" stroke-linecap="round" stroke-linejoin="round"/>
<path d="M109.521 25.9484V14.4032L115.574 14.4608C119.326 15.1585 118.671 19.7133 114.54 19.4357L118.724 25.2732" stroke="#146374" stroke-width="2.27191" stroke-miterlimit="2.61313" stroke-linecap="round" stroke-linejoin="round"/>
<path d="M131.739 13.9105V25.8828" stroke="#146374" stroke-width="2.27191" stroke-miterlimit="2.61313" stroke-linecap="round" stroke-linejoin="round"/>
<path d="M84.3046 25.3849L90.0752 14.2508L95.702 25.6668" stroke="#146374" stroke-width="2.27191" stroke-miterlimit="2.61313" stroke-linecap="round" stroke-linejoin="round"/>
</svg>
