<svg width="305" height="372" viewBox="0 0 305 372" fill="none" xmlns="http://www.w3.org/2000/svg">
<g clip-path="url(#clip0_2_735)">
<rect width="305" height="372" rx="24" fill="#F4F4F4"/>
<rect x="14" y="35" width="278" height="591" rx="36" fill="#D9D9D9" fill-opacity="0.17"/>
<rect x="24" y="43" width="262" height="572" rx="28" fill="white"/>
<rect x="36" y="118" width="239" height="369" rx="10" fill="#F4F5F7"/>
<path d="M82.7503 298.069C77.8739 301.83 70.8117 300.953 67.6136 295.69C59.893 282.984 55.0626 268.682 53.5293 253.801C51.6137 235.21 54.9201 216.453 63.0769 199.638C71.2337 182.822 83.9177 168.614 99.7041 158.61C115.491 148.606 133.754 143.202 152.442 143.006C171.13 142.809 189.503 147.827 205.497 157.497C221.49 167.166 234.471 181.104 242.98 197.744C251.489 214.384 255.189 233.067 253.665 251.694C252.446 266.604 247.918 281.005 240.466 293.87C237.38 299.199 230.337 300.225 225.383 296.567C220.428 292.91 219.457 285.956 222.374 280.532C227.455 271.081 230.557 260.649 231.438 249.876C232.624 235.382 229.744 220.845 223.123 207.897C216.503 194.95 206.403 184.105 193.958 176.581C181.514 169.058 167.218 165.153 152.677 165.306C138.136 165.459 123.925 169.664 111.642 177.448C99.3586 185.232 89.4892 196.287 83.1424 209.371C76.7957 222.455 74.2231 237.049 75.7135 251.515C76.8215 262.268 80.1418 272.632 85.4211 281.974C88.4511 287.335 87.6268 294.308 82.7503 298.069Z" fill="#D9D9D9"/>
<circle cx="154" cy="245" r="64" fill="white"/>
<path d="M82.7503 298.069C77.8739 301.83 70.8118 300.953 67.6137 295.69C62.7138 287.626 58.9641 278.897 56.4896 269.753C53.042 257.014 52.1374 243.72 53.8274 230.63C55.5175 217.541 59.7691 204.913 66.3395 193.467C72.9099 182.021 81.6705 171.981 92.121 163.921C102.571 155.86 114.507 149.937 127.247 146.49C139.986 143.042 153.28 142.137 166.37 143.827C179.459 145.517 192.087 149.769 203.533 156.339C211.748 161.055 219.239 166.899 225.794 173.687C230.072 178.117 229.126 185.17 224.25 188.931C219.373 192.692 212.42 191.719 208.004 187.426C203.334 182.887 198.104 178.938 192.43 175.681C183.524 170.569 173.698 167.261 163.514 165.946C153.329 164.63 142.985 165.334 133.073 168.017C123.16 170.699 113.873 175.308 105.741 181.58C97.61 187.852 90.7935 195.664 85.6811 204.57C80.5687 213.476 77.2605 223.302 75.9455 233.486C74.6305 243.671 75.3344 254.015 78.0169 263.927C79.7259 270.242 82.2167 276.304 85.4212 281.974C88.4512 287.336 87.6268 294.308 82.7503 298.069Z" fill="#146374"/>
<path d="M76.2573 289.979C68.2701 276.238 64.0426 260.635 64.0003 244.741C63.958 228.847 68.1023 213.222 76.0162 199.438C83.9301 185.655 95.3345 174.198 109.082 166.222C122.83 158.245 138.436 154.03 154.33 154C170.224 153.97 185.845 158.127 199.623 166.051C213.4 173.976 224.848 185.389 232.813 199.143C240.779 212.897 244.982 228.506 245 244.4C245.018 260.294 240.849 275.912 232.913 289.684L232.132 289.234C239.989 275.6 244.116 260.137 244.099 244.401C244.081 228.665 239.92 213.212 232.033 199.595C224.147 185.978 212.814 174.678 199.173 166.833C185.533 158.987 170.067 154.872 154.331 154.902C138.596 154.931 123.145 159.105 109.534 167.002C95.9239 174.899 84.633 186.241 76.7979 199.887C68.9628 213.534 64.8598 229.003 64.9017 244.739C64.9436 260.474 69.129 275.921 77.0366 289.526L76.2573 289.979Z" fill="white"/>
<circle cx="75.5" cy="288.5" r="2.5" fill="white"/>
<circle cx="64.5" cy="242.5" r="2.5" fill="white"/>
<circle cx="77.5" cy="198.5" r="2.5" fill="white"/>
<circle cx="110.5" cy="165.5" r="2.5" fill="white"/>
<circle cx="153.5" cy="154.5" r="2.5" fill="white"/>
<circle cx="198.5" cy="166.5" r="2.5" fill="white"/>
<circle cx="231.5" cy="198.5" r="2.5" fill="white"/>
<circle cx="244.5" cy="243.5" r="2.5" fill="white"/>
<circle cx="232.5" cy="288.5" r="2.5" fill="white"/>
<path d="M142.69 246.429C139.365 246.429 136.741 245.727 134.819 244.324C132.922 242.922 131.974 240.973 131.974 238.48C131.974 237.155 132.234 235.986 132.753 234.973C133.299 233.96 134.039 233.141 134.975 232.518C135.91 231.868 136.975 231.479 138.17 231.349V232.479C137.079 232.245 136.118 231.816 135.286 231.193C134.481 230.543 133.845 229.751 133.377 228.816C132.935 227.855 132.715 226.79 132.715 225.621C132.715 223.283 133.611 221.451 135.403 220.127C137.196 218.776 139.624 218.1 142.69 218.1C145.781 218.1 148.21 218.776 149.976 220.127C151.769 221.451 152.665 223.283 152.665 225.621C152.665 226.79 152.431 227.868 151.964 228.855C151.522 229.816 150.899 230.608 150.093 231.232C149.314 231.855 148.405 232.258 147.366 232.44V231.349C148.535 231.531 149.574 231.946 150.483 232.596C151.392 233.219 152.107 234.037 152.626 235.051C153.146 236.038 153.405 237.181 153.405 238.48C153.405 240.973 152.444 242.922 150.522 244.324C148.626 245.727 146.015 246.429 142.69 246.429ZM142.69 241.051C144.067 241.051 145.119 240.792 145.846 240.272C146.573 239.726 146.937 238.947 146.937 237.934C146.937 236.895 146.573 236.116 145.846 235.596C145.119 235.077 144.067 234.817 142.69 234.817C141.313 234.817 140.261 235.077 139.534 235.596C138.806 236.116 138.443 236.895 138.443 237.934C138.443 238.947 138.806 239.726 139.534 240.272C140.261 240.792 141.313 241.051 142.69 241.051ZM142.69 229.4C143.807 229.4 144.664 229.141 145.262 228.621C145.885 228.076 146.197 227.348 146.197 226.439C146.197 225.53 145.885 224.815 145.262 224.296C144.664 223.75 143.807 223.478 142.69 223.478C141.599 223.478 140.742 223.75 140.118 224.296C139.521 224.815 139.222 225.53 139.222 226.439C139.222 227.348 139.521 228.076 140.118 228.621C140.742 229.141 141.599 229.4 142.69 229.4ZM156.469 246L169.522 222.309V224.374H155.923V218.529H176.224V223.906L164.301 246H156.469Z" fill="black"/>
<path d="M124.404 272.126C123.704 272.126 123.074 272.009 122.514 271.776C121.954 271.543 121.473 271.202 121.072 270.754C120.671 270.306 120.363 269.774 120.148 269.158C119.933 268.533 119.826 267.833 119.826 267.058C119.826 266.283 119.933 265.588 120.148 264.972C120.363 264.347 120.666 263.815 121.058 263.376C121.459 262.928 121.94 262.587 122.5 262.354C123.069 262.121 123.704 262.004 124.404 262.004C125.104 262.004 125.734 262.121 126.294 262.354C126.854 262.587 127.335 262.923 127.736 263.362C128.137 263.801 128.441 264.333 128.646 264.958C128.861 265.574 128.968 266.269 128.968 267.044C128.968 267.819 128.861 268.519 128.646 269.144C128.431 269.769 128.123 270.306 127.722 270.754C127.33 271.202 126.854 271.543 126.294 271.776C125.734 272.009 125.104 272.126 124.404 272.126ZM124.404 270.978C125.076 270.978 125.65 270.824 126.126 270.516C126.602 270.208 126.966 269.76 127.218 269.172C127.479 268.584 127.61 267.879 127.61 267.058C127.61 266.227 127.484 265.523 127.232 264.944C126.98 264.356 126.616 263.913 126.14 263.614C125.664 263.306 125.085 263.152 124.404 263.152C123.732 263.152 123.153 263.306 122.668 263.614C122.192 263.913 121.828 264.356 121.576 264.944C121.324 265.523 121.198 266.227 121.198 267.058C121.198 267.879 121.324 268.584 121.576 269.172C121.828 269.76 122.192 270.208 122.668 270.516C123.153 270.824 123.732 270.978 124.404 270.978ZM133.259 272.126C132.708 272.126 132.246 272.023 131.873 271.818C131.509 271.613 131.238 271.309 131.061 270.908C130.883 270.507 130.795 270.003 130.795 269.396V265.182H132.069V269.396C132.069 269.779 132.12 270.096 132.223 270.348C132.325 270.6 132.484 270.787 132.699 270.908C132.923 271.029 133.203 271.09 133.539 271.09C133.912 271.09 134.239 271.006 134.519 270.838C134.799 270.67 135.018 270.432 135.177 270.124C135.335 269.816 135.415 269.457 135.415 269.046V265.182H136.689V272H135.443V270.46H135.625C135.438 271.001 135.135 271.417 134.715 271.706C134.304 271.986 133.819 272.126 133.259 272.126ZM141.567 272.126C140.736 272.126 140.115 271.911 139.705 271.482C139.294 271.043 139.089 270.418 139.089 269.606V266.162H137.759V265.182H139.089V263.11H140.363V265.182H142.505V266.162H140.363V269.494C140.363 270.007 140.47 270.395 140.685 270.656C140.899 270.917 141.254 271.048 141.749 271.048C141.898 271.048 142.043 271.034 142.183 271.006C142.332 270.969 142.472 270.931 142.603 270.894L142.813 271.846C142.682 271.93 142.495 271.995 142.253 272.042C142.019 272.098 141.791 272.126 141.567 272.126ZM150.291 272.126C149.619 272.126 149.036 271.981 148.541 271.692C148.046 271.403 147.664 270.992 147.393 270.46C147.122 269.928 146.987 269.303 146.987 268.584C146.987 267.865 147.122 267.245 147.393 266.722C147.664 266.19 148.046 265.779 148.541 265.49C149.036 265.201 149.619 265.056 150.291 265.056C150.963 265.056 151.546 265.201 152.041 265.49C152.536 265.779 152.918 266.19 153.189 266.722C153.46 267.245 153.595 267.865 153.595 268.584C153.595 269.303 153.46 269.928 153.189 270.46C152.918 270.992 152.536 271.403 152.041 271.692C151.546 271.981 150.963 272.126 150.291 272.126ZM150.291 271.118C150.907 271.118 151.397 270.903 151.761 270.474C152.125 270.035 152.307 269.405 152.307 268.584C152.307 267.763 152.125 267.137 151.761 266.708C151.397 266.279 150.907 266.064 150.291 266.064C149.684 266.064 149.194 266.279 148.821 266.708C148.457 267.137 148.275 267.763 148.275 268.584C148.275 269.405 148.457 270.035 148.821 270.474C149.194 270.903 149.684 271.118 150.291 271.118ZM155.551 272V266.162H154.221V265.182H155.901L155.551 265.518V265C155.551 264.076 155.784 263.381 156.251 262.914C156.717 262.438 157.436 262.172 158.407 262.116L158.981 262.074L159.079 263.054L158.435 263.096C158.052 263.115 157.744 263.194 157.511 263.334C157.277 263.465 157.105 263.656 156.993 263.908C156.881 264.151 156.825 264.459 156.825 264.832V265.392L156.643 265.182H158.757V266.162H156.825V272H155.551ZM164.225 272V270.894H166.465V263.236H167.137L164.701 264.762L164.169 263.796L166.829 262.13H167.767V270.894H169.867V272H164.225ZM175.126 272.126C174.37 272.126 173.73 271.93 173.208 271.538C172.694 271.146 172.302 270.577 172.032 269.83C171.77 269.074 171.64 268.15 171.64 267.058C171.64 265.947 171.77 265.019 172.032 264.272C172.302 263.525 172.694 262.961 173.208 262.578C173.73 262.195 174.37 262.004 175.126 262.004C175.891 262.004 176.53 262.195 177.044 262.578C177.566 262.951 177.958 263.511 178.22 264.258C178.481 265.005 178.612 265.933 178.612 267.044C178.612 268.136 178.476 269.06 178.206 269.816C177.944 270.572 177.557 271.146 177.044 271.538C176.53 271.93 175.891 272.126 175.126 272.126ZM175.126 271.02C175.872 271.02 176.428 270.698 176.792 270.054C177.156 269.41 177.338 268.407 177.338 267.044C177.338 265.681 177.156 264.687 176.792 264.062C176.437 263.427 175.882 263.11 175.126 263.11C174.379 263.11 173.824 263.427 173.46 264.062C173.096 264.687 172.914 265.681 172.914 267.044C172.914 268.407 173.096 269.41 173.46 270.054C173.824 270.698 174.379 271.02 175.126 271.02ZM183.52 272.126C182.764 272.126 182.125 271.93 181.602 271.538C181.089 271.146 180.697 270.577 180.426 269.83C180.165 269.074 180.034 268.15 180.034 267.058C180.034 265.947 180.165 265.019 180.426 264.272C180.697 263.525 181.089 262.961 181.602 262.578C182.125 262.195 182.764 262.004 183.52 262.004C184.286 262.004 184.925 262.195 185.438 262.578C185.961 262.951 186.353 263.511 186.614 264.258C186.876 265.005 187.006 265.933 187.006 267.044C187.006 268.136 186.871 269.06 186.6 269.816C186.339 270.572 185.952 271.146 185.438 271.538C184.925 271.93 184.286 272.126 183.52 272.126ZM183.52 271.02C184.267 271.02 184.822 270.698 185.186 270.054C185.55 269.41 185.732 268.407 185.732 267.044C185.732 265.681 185.55 264.687 185.186 264.062C184.832 263.427 184.276 263.11 183.52 263.11C182.774 263.11 182.218 263.427 181.854 264.062C181.49 264.687 181.308 265.681 181.308 267.044C181.308 268.407 181.49 269.41 181.854 270.054C182.218 270.698 182.774 271.02 183.52 271.02Z" fill="black"/>
<path d="M77.1613 348V343.62L77.4013 344.364L73.9213 339.54H75.2173L77.8813 343.224H77.6053L80.2693 339.54H81.5053L78.0373 344.364L78.2773 343.62V348H77.1613ZM83.7194 348.108C83.1434 348.108 82.6434 347.984 82.2194 347.736C81.7954 347.488 81.4674 347.136 81.2354 346.68C81.0034 346.224 80.8874 345.688 80.8874 345.072C80.8874 344.456 81.0034 343.924 81.2354 343.476C81.4674 343.02 81.7954 342.668 82.2194 342.42C82.6434 342.172 83.1434 342.048 83.7194 342.048C84.2954 342.048 84.7954 342.172 85.2194 342.42C85.6434 342.668 85.9714 343.02 86.2034 343.476C86.4354 343.924 86.5514 344.456 86.5514 345.072C86.5514 345.688 86.4354 346.224 86.2034 346.68C85.9714 347.136 85.6434 347.488 85.2194 347.736C84.7954 347.984 84.2954 348.108 83.7194 348.108ZM83.7194 347.244C84.2474 347.244 84.6674 347.06 84.9794 346.692C85.2914 346.316 85.4474 345.776 85.4474 345.072C85.4474 344.368 85.2914 343.832 84.9794 343.464C84.6674 343.096 84.2474 342.912 83.7194 342.912C83.1994 342.912 82.7794 343.096 82.4594 343.464C82.1474 343.832 81.9914 344.368 81.9914 345.072C81.9914 345.776 82.1474 346.316 82.4594 346.692C82.7794 347.06 83.1994 347.244 83.7194 347.244ZM90.0382 348.108C89.5662 348.108 89.1702 348.02 88.8502 347.844C88.5382 347.668 88.3062 347.408 88.1542 347.064C88.0022 346.72 87.9262 346.288 87.9262 345.768V342.156H89.0182V345.768C89.0182 346.096 89.0622 346.368 89.1502 346.584C89.2382 346.8 89.3742 346.96 89.5582 347.064C89.7502 347.168 89.9902 347.22 90.2782 347.22C90.5982 347.22 90.8782 347.148 91.1182 347.004C91.3582 346.86 91.5462 346.656 91.6822 346.392C91.8182 346.128 91.8862 345.82 91.8862 345.468V342.156H92.9782V348H91.9102V346.68H92.0662C91.9062 347.144 91.6462 347.5 91.2862 347.748C90.9342 347.988 90.5182 348.108 90.0382 348.108ZM95.1554 342.288L94.6634 341.916C94.8074 341.756 94.9194 341.608 94.9994 341.472C95.0874 341.336 95.1474 341.2 95.1794 341.064C95.2114 340.92 95.2274 340.78 95.2274 340.644L95.5394 340.872H94.5914V339.54H95.9234V340.452C95.9234 340.684 95.8994 340.904 95.8514 341.112C95.8034 341.32 95.7234 341.52 95.6114 341.712C95.4994 341.904 95.3474 342.096 95.1554 342.288ZM97.5362 348V342.156H98.6042V343.548H98.4842C98.6122 343.068 98.8442 342.708 99.1802 342.468C99.5162 342.22 99.9602 342.076 100.512 342.036L100.884 342L100.968 342.948L100.284 343.008C99.7562 343.064 99.3482 343.236 99.0602 343.524C98.7802 343.812 98.6402 344.208 98.6402 344.712V348H97.5362ZM104.537 348.108C103.905 348.108 103.361 347.988 102.905 347.748C102.457 347.5 102.109 347.152 101.861 346.704C101.613 346.248 101.489 345.712 101.489 345.096C101.489 344.488 101.609 343.956 101.849 343.5C102.097 343.044 102.433 342.688 102.857 342.432C103.289 342.176 103.781 342.048 104.333 342.048C104.869 342.048 105.325 342.164 105.701 342.396C106.085 342.628 106.377 342.96 106.577 343.392C106.785 343.816 106.889 344.328 106.889 344.928V345.324H102.341V344.628H106.169L105.965 344.796C105.965 344.172 105.829 343.692 105.557 343.356C105.285 343.012 104.885 342.84 104.357 342.84C103.973 342.84 103.645 342.932 103.373 343.116C103.101 343.292 102.893 343.544 102.749 343.872C102.605 344.192 102.533 344.564 102.533 344.988V345.06C102.533 345.54 102.609 345.944 102.761 346.272C102.921 346.592 103.149 346.836 103.445 347.004C103.741 347.164 104.105 347.244 104.537 347.244C104.881 347.244 105.213 347.192 105.533 347.088C105.861 346.976 106.169 346.804 106.457 346.572L106.793 347.328C106.529 347.568 106.189 347.76 105.773 347.904C105.365 348.04 104.953 348.108 104.537 348.108ZM112.936 348L110.74 342.156H111.868L113.62 347.124H113.332L115.144 342.156H116.02L117.796 347.124H117.52L119.296 342.156H120.364L118.168 348H117.148L115.276 342.888H115.828L113.956 348H112.936ZM124.096 348.108C123.464 348.108 122.92 347.988 122.464 347.748C122.016 347.5 121.668 347.152 121.42 346.704C121.172 346.248 121.048 345.712 121.048 345.096C121.048 344.488 121.168 343.956 121.408 343.5C121.656 343.044 121.992 342.688 122.416 342.432C122.848 342.176 123.34 342.048 123.892 342.048C124.428 342.048 124.884 342.164 125.26 342.396C125.644 342.628 125.936 342.96 126.136 343.392C126.344 343.816 126.448 344.328 126.448 344.928V345.324H121.9V344.628H125.728L125.524 344.796C125.524 344.172 125.388 343.692 125.116 343.356C124.844 343.012 124.444 342.84 123.916 342.84C123.532 342.84 123.204 342.932 122.932 343.116C122.66 343.292 122.452 343.544 122.308 343.872C122.164 344.192 122.092 344.564 122.092 344.988V345.06C122.092 345.54 122.168 345.944 122.32 346.272C122.48 346.592 122.708 346.836 123.004 347.004C123.3 347.164 123.664 347.244 124.096 347.244C124.44 347.244 124.772 347.192 125.092 347.088C125.42 346.976 125.728 346.804 126.016 346.572L126.352 347.328C126.088 347.568 125.748 347.76 125.332 347.904C124.924 348.04 124.512 348.108 124.096 348.108ZM129.666 348.108C129.042 348.108 128.574 347.932 128.262 347.58C127.958 347.22 127.806 346.704 127.806 346.032V339.54H128.898V345.948C128.898 346.22 128.934 346.452 129.006 346.644C129.086 346.828 129.198 346.964 129.342 347.052C129.494 347.14 129.682 347.184 129.906 347.184C129.994 347.184 130.082 347.18 130.17 347.172C130.266 347.164 130.354 347.148 130.434 347.124L130.41 348.012C130.282 348.044 130.154 348.068 130.026 348.084C129.906 348.1 129.786 348.108 129.666 348.108ZM133.275 348.108C132.651 348.108 132.183 347.932 131.871 347.58C131.567 347.22 131.415 346.704 131.415 346.032V339.54H132.507V345.948C132.507 346.22 132.543 346.452 132.615 346.644C132.695 346.828 132.807 346.964 132.951 347.052C133.103 347.14 133.291 347.184 133.515 347.184C133.603 347.184 133.691 347.18 133.779 347.172C133.875 347.164 133.963 347.148 134.043 347.124L134.019 348.012C133.891 348.044 133.763 348.068 133.635 348.084C133.515 348.1 133.395 348.108 133.275 348.108ZM134.918 345.252V344.352H138.326V345.252H134.918ZM140.064 350.16V342.156H141.132V343.5H141.012C141.14 343.06 141.392 342.708 141.768 342.444C142.144 342.18 142.596 342.048 143.124 342.048C143.644 342.048 144.096 342.172 144.48 342.42C144.864 342.66 145.164 343.008 145.38 343.464C145.596 343.912 145.704 344.448 145.704 345.072C145.704 345.688 145.596 346.228 145.38 346.692C145.172 347.148 144.872 347.5 144.48 347.748C144.096 347.988 143.644 348.108 143.124 348.108C142.604 348.108 142.156 347.976 141.78 347.712C141.404 347.448 141.152 347.1 141.024 346.668H141.156V350.16H140.064ZM142.872 347.244C143.4 347.244 143.82 347.06 144.132 346.692C144.444 346.316 144.6 345.776 144.6 345.072C144.6 344.368 144.444 343.832 144.132 343.464C143.82 343.096 143.4 342.912 142.872 342.912C142.344 342.912 141.924 343.096 141.612 343.464C141.3 343.832 141.144 344.368 141.144 345.072C141.144 345.776 141.3 346.316 141.612 346.692C141.924 347.06 142.344 347.244 142.872 347.244ZM149.59 348.108C149.014 348.108 148.514 347.984 148.09 347.736C147.666 347.488 147.338 347.136 147.106 346.68C146.874 346.224 146.758 345.688 146.758 345.072C146.758 344.456 146.874 343.924 147.106 343.476C147.338 343.02 147.666 342.668 148.09 342.42C148.514 342.172 149.014 342.048 149.59 342.048C150.166 342.048 150.666 342.172 151.09 342.42C151.514 342.668 151.842 343.02 152.074 343.476C152.306 343.924 152.422 344.456 152.422 345.072C152.422 345.688 152.306 346.224 152.074 346.68C151.842 347.136 151.514 347.488 151.09 347.736C150.666 347.984 150.166 348.108 149.59 348.108ZM149.59 347.244C150.118 347.244 150.538 347.06 150.85 346.692C151.162 346.316 151.318 345.776 151.318 345.072C151.318 344.368 151.162 343.832 150.85 343.464C150.538 343.096 150.118 342.912 149.59 342.912C149.07 342.912 148.65 343.096 148.33 343.464C148.018 343.832 147.862 344.368 147.862 345.072C147.862 345.776 148.018 346.316 148.33 346.692C148.65 347.06 149.07 347.244 149.59 347.244ZM155.837 348.108C155.533 348.108 155.233 348.08 154.937 348.024C154.649 347.968 154.381 347.888 154.133 347.784C153.893 347.672 153.681 347.54 153.497 347.388L153.821 346.632C154.013 346.776 154.221 346.9 154.445 347.004C154.669 347.1 154.901 347.172 155.141 347.22C155.381 347.268 155.621 347.292 155.861 347.292C156.301 347.292 156.633 347.212 156.857 347.052C157.081 346.892 157.193 346.68 157.193 346.416C157.193 346.192 157.117 346.02 156.965 345.9C156.821 345.772 156.593 345.676 156.281 345.612L155.165 345.384C154.669 345.272 154.293 345.088 154.037 344.832C153.789 344.568 153.665 344.232 153.665 343.824C153.665 343.464 153.761 343.152 153.953 342.888C154.153 342.616 154.429 342.408 154.781 342.264C155.133 342.12 155.537 342.048 155.993 342.048C156.265 342.048 156.529 342.076 156.785 342.132C157.041 342.188 157.281 342.268 157.505 342.372C157.729 342.476 157.917 342.612 158.069 342.78L157.733 343.524C157.581 343.38 157.409 343.26 157.217 343.164C157.025 343.068 156.825 342.996 156.617 342.948C156.409 342.892 156.201 342.864 155.993 342.864C155.561 342.864 155.233 342.948 155.009 343.116C154.793 343.284 154.685 343.504 154.685 343.776C154.685 343.984 154.749 344.156 154.877 344.292C155.013 344.428 155.225 344.528 155.513 344.592L156.629 344.82C157.149 344.932 157.541 345.112 157.805 345.36C158.069 345.6 158.201 345.928 158.201 346.344C158.201 346.712 158.101 347.028 157.901 347.292C157.709 347.556 157.433 347.76 157.073 347.904C156.721 348.04 156.309 348.108 155.837 348.108ZM159.514 340.752V339.576H160.822V340.752H159.514ZM159.622 348V342.156H160.714V348H159.622ZM164.894 348.108C164.182 348.108 163.65 347.924 163.298 347.556C162.946 347.18 162.77 346.644 162.77 345.948V342.996H161.63V342.156H162.77V340.38H163.862V342.156H165.698V342.996H163.862V345.852C163.862 346.292 163.954 346.624 164.138 346.848C164.322 347.072 164.626 347.184 165.05 347.184C165.178 347.184 165.302 347.172 165.422 347.148C165.55 347.116 165.67 347.084 165.782 347.052L165.962 347.868C165.85 347.94 165.69 347.996 165.482 348.036C165.282 348.084 165.086 348.108 164.894 348.108ZM166.663 340.752V339.576H167.971V340.752H166.663ZM166.771 348V342.156H167.863V348H166.771ZM172.102 348.108C171.526 348.108 171.026 347.984 170.602 347.736C170.178 347.488 169.85 347.136 169.618 346.68C169.386 346.224 169.27 345.688 169.27 345.072C169.27 344.456 169.386 343.924 169.618 343.476C169.85 343.02 170.178 342.668 170.602 342.42C171.026 342.172 171.526 342.048 172.102 342.048C172.678 342.048 173.178 342.172 173.602 342.42C174.026 342.668 174.354 343.02 174.586 343.476C174.818 343.924 174.934 344.456 174.934 345.072C174.934 345.688 174.818 346.224 174.586 346.68C174.354 347.136 174.026 347.488 173.602 347.736C173.178 347.984 172.678 348.108 172.102 348.108ZM172.102 347.244C172.63 347.244 173.05 347.06 173.362 346.692C173.674 346.316 173.83 345.776 173.83 345.072C173.83 344.368 173.674 343.832 173.362 343.464C173.05 343.096 172.63 342.912 172.102 342.912C171.582 342.912 171.162 343.096 170.842 343.464C170.53 343.832 170.374 344.368 170.374 345.072C170.374 345.776 170.53 346.316 170.842 346.692C171.162 347.06 171.582 347.244 172.102 347.244ZM176.333 348V342.156H177.401V343.428H177.269C177.437 342.972 177.709 342.628 178.085 342.396C178.469 342.164 178.905 342.048 179.393 342.048C179.865 342.048 180.253 342.132 180.557 342.3C180.861 342.468 181.089 342.728 181.241 343.08C181.393 343.424 181.469 343.856 181.469 344.376V348H180.377V344.436C180.377 344.092 180.333 343.808 180.245 343.584C180.157 343.36 180.017 343.196 179.825 343.092C179.641 342.988 179.405 342.936 179.117 342.936C178.781 342.936 178.485 343.008 178.229 343.152C177.973 343.296 177.773 343.5 177.629 343.764C177.493 344.028 177.425 344.336 177.425 344.688V348H176.333ZM185.9 348.108C185.268 348.108 184.724 347.988 184.268 347.748C183.82 347.5 183.472 347.152 183.224 346.704C182.976 346.248 182.852 345.712 182.852 345.096C182.852 344.488 182.972 343.956 183.212 343.5C183.46 343.044 183.796 342.688 184.22 342.432C184.652 342.176 185.144 342.048 185.696 342.048C186.232 342.048 186.688 342.164 187.064 342.396C187.448 342.628 187.74 342.96 187.94 343.392C188.148 343.816 188.252 344.328 188.252 344.928V345.324H183.704V344.628H187.532L187.328 344.796C187.328 344.172 187.192 343.692 186.92 343.356C186.648 343.012 186.248 342.84 185.72 342.84C185.336 342.84 185.008 342.932 184.736 343.116C184.464 343.292 184.256 343.544 184.112 343.872C183.968 344.192 183.896 344.564 183.896 344.988V345.06C183.896 345.54 183.972 345.944 184.124 346.272C184.284 346.592 184.512 346.836 184.808 347.004C185.104 347.164 185.468 347.244 185.9 347.244C186.244 347.244 186.576 347.192 186.896 347.088C187.224 346.976 187.532 346.804 187.82 346.572L188.156 347.328C187.892 347.568 187.552 347.76 187.136 347.904C186.728 348.04 186.316 348.108 185.9 348.108ZM191.842 348.108C191.33 348.108 190.878 347.988 190.486 347.748C190.102 347.5 189.802 347.148 189.586 346.692C189.37 346.228 189.262 345.688 189.262 345.072C189.262 344.448 189.366 343.912 189.574 343.464C189.79 343.008 190.09 342.66 190.474 342.42C190.866 342.172 191.322 342.048 191.842 342.048C192.362 342.048 192.81 342.18 193.186 342.444C193.562 342.7 193.814 343.044 193.942 343.476H193.81V339.54H194.902V348H193.822V346.644H193.942C193.822 347.092 193.57 347.448 193.186 347.712C192.81 347.976 192.362 348.108 191.842 348.108ZM192.094 347.244C192.622 347.244 193.042 347.06 193.354 346.692C193.666 346.316 193.822 345.776 193.822 345.072C193.822 344.368 193.666 343.832 193.354 343.464C193.042 343.096 192.622 342.912 192.094 342.912C191.574 342.912 191.154 343.096 190.834 343.464C190.522 343.832 190.366 344.368 190.366 345.072C190.366 345.776 190.522 346.316 190.834 346.692C191.154 347.06 191.574 347.244 192.094 347.244ZM202.195 348.108C201.483 348.108 200.951 347.924 200.599 347.556C200.247 347.18 200.071 346.644 200.071 345.948V342.996H198.931V342.156H200.071V340.38H201.163V342.156H202.999V342.996H201.163V345.852C201.163 346.292 201.255 346.624 201.439 346.848C201.623 347.072 201.927 347.184 202.351 347.184C202.479 347.184 202.603 347.172 202.723 347.148C202.851 347.116 202.971 347.084 203.083 347.052L203.263 347.868C203.151 347.94 202.991 347.996 202.783 348.036C202.583 348.084 202.387 348.108 202.195 348.108ZM206.497 348.108C205.921 348.108 205.421 347.984 204.997 347.736C204.573 347.488 204.245 347.136 204.013 346.68C203.781 346.224 203.665 345.688 203.665 345.072C203.665 344.456 203.781 343.924 204.013 343.476C204.245 343.02 204.573 342.668 204.997 342.42C205.421 342.172 205.921 342.048 206.497 342.048C207.073 342.048 207.573 342.172 207.997 342.42C208.421 342.668 208.749 343.02 208.981 343.476C209.213 343.924 209.329 344.456 209.329 345.072C209.329 345.688 209.213 346.224 208.981 346.68C208.749 347.136 208.421 347.488 207.997 347.736C207.573 347.984 207.073 348.108 206.497 348.108ZM206.497 347.244C207.025 347.244 207.445 347.06 207.757 346.692C208.069 346.316 208.225 345.776 208.225 345.072C208.225 344.368 208.069 343.832 207.757 343.464C207.445 343.096 207.025 342.912 206.497 342.912C205.977 342.912 205.557 343.096 205.237 343.464C204.925 343.832 204.769 344.368 204.769 345.072C204.769 345.776 204.925 346.316 205.237 346.692C205.557 347.06 205.977 347.244 206.497 347.244ZM215.705 348.108C215.081 348.108 214.613 347.932 214.301 347.58C213.997 347.22 213.845 346.704 213.845 346.032V339.54H214.937V345.948C214.937 346.22 214.973 346.452 215.045 346.644C215.125 346.828 215.237 346.964 215.381 347.052C215.533 347.14 215.721 347.184 215.945 347.184C216.033 347.184 216.121 347.18 216.209 347.172C216.305 347.164 216.393 347.148 216.473 347.124L216.449 348.012C216.321 348.044 216.193 348.068 216.065 348.084C215.945 348.1 215.825 348.108 215.705 348.108ZM219.314 348.108C218.914 348.108 218.55 348.028 218.222 347.868C217.902 347.708 217.65 347.492 217.466 347.22C217.29 346.948 217.202 346.644 217.202 346.308C217.202 345.876 217.31 345.536 217.526 345.288C217.742 345.04 218.106 344.864 218.618 344.76C219.13 344.648 219.818 344.592 220.682 344.592H221.246V345.288H220.706C220.242 345.288 219.854 345.304 219.542 345.336C219.23 345.368 218.982 345.42 218.798 345.492C218.614 345.564 218.482 345.664 218.402 345.792C218.322 345.912 218.282 346.064 218.282 346.248C218.282 346.56 218.39 346.816 218.606 347.016C218.83 347.216 219.134 347.316 219.518 347.316C219.822 347.316 220.09 347.244 220.322 347.1C220.554 346.948 220.738 346.748 220.874 346.5C221.01 346.244 221.078 345.952 221.078 345.624V344.244C221.078 343.772 220.982 343.432 220.79 343.224C220.598 343.008 220.274 342.9 219.818 342.9C219.482 342.9 219.146 342.952 218.81 343.056C218.482 343.16 218.142 343.32 217.79 343.536L217.442 342.756C217.65 342.612 217.886 342.488 218.15 342.384C218.422 342.272 218.702 342.188 218.99 342.132C219.286 342.076 219.57 342.048 219.842 342.048C220.362 342.048 220.79 342.132 221.126 342.3C221.462 342.46 221.714 342.712 221.882 343.056C222.05 343.392 222.134 343.824 222.134 344.352V348H221.102V346.668H221.21C221.146 346.964 221.026 347.22 220.85 347.436C220.674 347.652 220.454 347.82 220.19 347.94C219.934 348.052 219.642 348.108 219.314 348.108ZM223.853 348V342.156H224.921V343.428H224.789C224.957 342.972 225.229 342.628 225.605 342.396C225.989 342.164 226.425 342.048 226.913 342.048C227.385 342.048 227.773 342.132 228.077 342.3C228.381 342.468 228.609 342.728 228.761 343.08C228.913 343.424 228.989 343.856 228.989 344.376V348H227.897V344.436C227.897 344.092 227.853 343.808 227.765 343.584C227.677 343.36 227.537 343.196 227.345 343.092C227.161 342.988 226.925 342.936 226.637 342.936C226.301 342.936 226.005 343.008 225.749 343.152C225.493 343.296 225.293 343.5 225.149 343.764C225.013 344.028 224.945 344.336 224.945 344.688V348H223.853ZM232.952 348.108C232.44 348.108 231.988 347.988 231.596 347.748C231.212 347.5 230.912 347.148 230.696 346.692C230.48 346.228 230.372 345.688 230.372 345.072C230.372 344.448 230.476 343.912 230.684 343.464C230.9 343.008 231.2 342.66 231.584 342.42C231.976 342.172 232.432 342.048 232.952 342.048C233.472 342.048 233.92 342.18 234.296 342.444C234.672 342.7 234.924 343.044 235.052 343.476H234.92V339.54H236.012V348H234.932V346.644H235.052C234.932 347.092 234.68 347.448 234.296 347.712C233.92 347.976 233.472 348.108 232.952 348.108ZM233.204 347.244C233.732 347.244 234.152 347.06 234.464 346.692C234.776 346.316 234.932 345.776 234.932 345.072C234.932 344.368 234.776 343.832 234.464 343.464C234.152 343.096 233.732 342.912 233.204 342.912C232.684 342.912 232.264 343.096 231.944 343.464C231.632 343.832 231.476 344.368 231.476 345.072C231.476 345.776 231.632 346.316 231.944 346.692C232.264 347.06 232.684 347.244 233.204 347.244ZM62.7311 366.108C62.1551 366.108 61.6551 365.984 61.2311 365.736C60.8071 365.488 60.4791 365.136 60.2471 364.68C60.0151 364.224 59.8991 363.688 59.8991 363.072C59.8991 362.456 60.0151 361.924 60.2471 361.476C60.4791 361.02 60.8071 360.668 61.2311 360.42C61.6551 360.172 62.1551 360.048 62.7311 360.048C63.3071 360.048 63.8071 360.172 64.2311 360.42C64.6551 360.668 64.9831 361.02 65.2151 361.476C65.4471 361.924 65.5631 362.456 65.5631 363.072C65.5631 363.688 65.4471 364.224 65.2151 364.68C64.9831 365.136 64.6551 365.488 64.2311 365.736C63.8071 365.984 63.3071 366.108 62.7311 366.108ZM62.7311 365.244C63.2591 365.244 63.6791 365.06 63.9911 364.692C64.3031 364.316 64.4591 363.776 64.4591 363.072C64.4591 362.368 64.3031 361.832 63.9911 361.464C63.6791 361.096 63.2591 360.912 62.7311 360.912C62.2111 360.912 61.7911 361.096 61.4711 361.464C61.1591 361.832 61.0031 362.368 61.0031 363.072C61.0031 363.776 61.1591 364.316 61.4711 364.692C61.7911 365.06 62.2111 365.244 62.7311 365.244ZM66.9619 368.16V360.156H68.0299V361.5H67.9099C68.0379 361.06 68.2899 360.708 68.6659 360.444C69.0419 360.18 69.4939 360.048 70.0219 360.048C70.5419 360.048 70.9939 360.172 71.3779 360.42C71.7619 360.66 72.0619 361.008 72.2779 361.464C72.4939 361.912 72.6019 362.448 72.6019 363.072C72.6019 363.688 72.4939 364.228 72.2779 364.692C72.0699 365.148 71.7699 365.5 71.3779 365.748C70.9939 365.988 70.5419 366.108 70.0219 366.108C69.5019 366.108 69.0539 365.976 68.6779 365.712C68.3019 365.448 68.0499 365.1 67.9219 364.668H68.0539V368.16H66.9619ZM69.7699 365.244C70.2979 365.244 70.7179 365.06 71.0299 364.692C71.3419 364.316 71.4979 363.776 71.4979 363.072C71.4979 362.368 71.3419 361.832 71.0299 361.464C70.7179 361.096 70.2979 360.912 69.7699 360.912C69.2419 360.912 68.8219 361.096 68.5099 361.464C68.1979 361.832 68.0419 362.368 68.0419 363.072C68.0419 363.776 68.1979 364.316 68.5099 364.692C68.8219 365.06 69.2419 365.244 69.7699 365.244ZM74.0049 368.16V360.156H75.0729V361.5H74.9529C75.0809 361.06 75.3329 360.708 75.7089 360.444C76.0849 360.18 76.5369 360.048 77.0649 360.048C77.5849 360.048 78.0369 360.172 78.4209 360.42C78.8049 360.66 79.1049 361.008 79.3209 361.464C79.5369 361.912 79.6449 362.448 79.6449 363.072C79.6449 363.688 79.5369 364.228 79.3209 364.692C79.1129 365.148 78.8129 365.5 78.4209 365.748C78.0369 365.988 77.5849 366.108 77.0649 366.108C76.5449 366.108 76.0969 365.976 75.7209 365.712C75.3449 365.448 75.0929 365.1 74.9649 364.668H75.0969V368.16H74.0049ZM76.8129 365.244C77.3409 365.244 77.7609 365.06 78.0729 364.692C78.3849 364.316 78.5409 363.776 78.5409 363.072C78.5409 362.368 78.3849 361.832 78.0729 361.464C77.7609 361.096 77.3409 360.912 76.8129 360.912C76.2849 360.912 75.8649 361.096 75.5529 361.464C75.2409 361.832 75.0849 362.368 75.0849 363.072C75.0849 363.776 75.2409 364.316 75.5529 364.692C75.8649 365.06 76.2849 365.244 76.8129 365.244ZM83.5319 366.108C82.9559 366.108 82.4559 365.984 82.0319 365.736C81.6079 365.488 81.2799 365.136 81.0479 364.68C80.8159 364.224 80.6999 363.688 80.6999 363.072C80.6999 362.456 80.8159 361.924 81.0479 361.476C81.2799 361.02 81.6079 360.668 82.0319 360.42C82.4559 360.172 82.9559 360.048 83.5319 360.048C84.1079 360.048 84.6079 360.172 85.0319 360.42C85.4559 360.668 85.7839 361.02 86.0159 361.476C86.2479 361.924 86.3639 362.456 86.3639 363.072C86.3639 363.688 86.2479 364.224 86.0159 364.68C85.7839 365.136 85.4559 365.488 85.0319 365.736C84.6079 365.984 84.1079 366.108 83.5319 366.108ZM83.5319 365.244C84.0599 365.244 84.4799 365.06 84.7919 364.692C85.1039 364.316 85.2599 363.776 85.2599 363.072C85.2599 362.368 85.1039 361.832 84.7919 361.464C84.4799 361.096 84.0599 360.912 83.5319 360.912C83.0119 360.912 82.5919 361.096 82.2719 361.464C81.9599 361.832 81.8039 362.368 81.8039 363.072C81.8039 363.776 81.9599 364.316 82.2719 364.692C82.5919 365.06 83.0119 365.244 83.5319 365.244ZM87.7627 366V360.156H88.8307V361.548H88.7107C88.8387 361.068 89.0707 360.708 89.4067 360.468C89.7427 360.22 90.1867 360.076 90.7387 360.036L91.1107 360L91.1947 360.948L90.5107 361.008C89.9827 361.064 89.5747 361.236 89.2867 361.524C89.0067 361.812 88.8667 362.208 88.8667 362.712V366H87.7627ZM94.8977 366.108C94.1857 366.108 93.6537 365.924 93.3017 365.556C92.9497 365.18 92.7737 364.644 92.7737 363.948V360.996H91.6337V360.156H92.7737V358.38H93.8657V360.156H95.7017V360.996H93.8657V363.852C93.8657 364.292 93.9577 364.624 94.1417 364.848C94.3257 365.072 94.6297 365.184 95.0537 365.184C95.1817 365.184 95.3057 365.172 95.4257 365.148C95.5537 365.116 95.6737 365.084 95.7857 365.052L95.9657 365.868C95.8537 365.94 95.6937 365.996 95.4857 366.036C95.2857 366.084 95.0897 366.108 94.8977 366.108ZM98.8624 366.108C98.3904 366.108 97.9944 366.02 97.6744 365.844C97.3624 365.668 97.1304 365.408 96.9784 365.064C96.8264 364.72 96.7504 364.288 96.7504 363.768V360.156H97.8424V363.768C97.8424 364.096 97.8864 364.368 97.9744 364.584C98.0624 364.8 98.1984 364.96 98.3824 365.064C98.5744 365.168 98.8144 365.22 99.1024 365.22C99.4224 365.22 99.7024 365.148 99.9424 365.004C100.182 364.86 100.37 364.656 100.506 364.392C100.642 364.128 100.71 363.82 100.71 363.468V360.156H101.802V366H100.734V364.68H100.89C100.73 365.144 100.47 365.5 100.11 365.748C99.7584 365.988 99.3424 366.108 98.8624 366.108ZM103.56 366V360.156H104.628V361.428H104.496C104.664 360.972 104.936 360.628 105.312 360.396C105.696 360.164 106.132 360.048 106.62 360.048C107.092 360.048 107.48 360.132 107.784 360.3C108.088 360.468 108.316 360.728 108.468 361.08C108.62 361.424 108.696 361.856 108.696 362.376V366H107.604V362.436C107.604 362.092 107.56 361.808 107.472 361.584C107.384 361.36 107.244 361.196 107.052 361.092C106.868 360.988 106.632 360.936 106.344 360.936C106.008 360.936 105.712 361.008 105.456 361.152C105.2 361.296 105 361.5 104.856 361.764C104.72 362.028 104.652 362.336 104.652 362.688V366H103.56ZM110.319 358.752V357.576H111.627V358.752H110.319ZM110.427 366V360.156H111.519V366H110.427ZM115.698 366.108C114.986 366.108 114.454 365.924 114.102 365.556C113.75 365.18 113.574 364.644 113.574 363.948V360.996H112.434V360.156H113.574V358.38H114.666V360.156H116.502V360.996H114.666V363.852C114.666 364.292 114.758 364.624 114.942 364.848C115.126 365.072 115.43 365.184 115.854 365.184C115.982 365.184 116.106 365.172 116.226 365.148C116.354 365.116 116.474 365.084 116.586 365.052L116.766 365.868C116.654 365.94 116.494 365.996 116.286 366.036C116.086 366.084 115.89 366.108 115.698 366.108ZM117.467 358.752V357.576H118.775V358.752H117.467ZM117.575 366V360.156H118.667V366H117.575ZM123.123 366.108C122.491 366.108 121.947 365.988 121.491 365.748C121.043 365.5 120.695 365.152 120.447 364.704C120.199 364.248 120.075 363.712 120.075 363.096C120.075 362.488 120.195 361.956 120.435 361.5C120.683 361.044 121.019 360.688 121.443 360.432C121.875 360.176 122.367 360.048 122.919 360.048C123.455 360.048 123.911 360.164 124.287 360.396C124.671 360.628 124.963 360.96 125.163 361.392C125.371 361.816 125.475 362.328 125.475 362.928V363.324H120.927V362.628H124.755L124.551 362.796C124.551 362.172 124.415 361.692 124.143 361.356C123.871 361.012 123.471 360.84 122.943 360.84C122.559 360.84 122.231 360.932 121.959 361.116C121.687 361.292 121.479 361.544 121.335 361.872C121.191 362.192 121.119 362.564 121.119 362.988V363.06C121.119 363.54 121.195 363.944 121.347 364.272C121.507 364.592 121.735 364.836 122.031 365.004C122.327 365.164 122.691 365.244 123.123 365.244C123.467 365.244 123.799 365.192 124.119 365.088C124.447 364.976 124.755 364.804 125.043 364.572L125.379 365.328C125.115 365.568 124.775 365.76 124.359 365.904C123.951 366.04 123.539 366.108 123.123 366.108ZM128.849 366.108C128.545 366.108 128.245 366.08 127.949 366.024C127.661 365.968 127.393 365.888 127.145 365.784C126.905 365.672 126.693 365.54 126.509 365.388L126.833 364.632C127.025 364.776 127.233 364.9 127.457 365.004C127.681 365.1 127.913 365.172 128.153 365.22C128.393 365.268 128.633 365.292 128.873 365.292C129.313 365.292 129.645 365.212 129.869 365.052C130.093 364.892 130.205 364.68 130.205 364.416C130.205 364.192 130.129 364.02 129.977 363.9C129.833 363.772 129.605 363.676 129.293 363.612L128.177 363.384C127.681 363.272 127.305 363.088 127.049 362.832C126.801 362.568 126.677 362.232 126.677 361.824C126.677 361.464 126.773 361.152 126.965 360.888C127.165 360.616 127.441 360.408 127.793 360.264C128.145 360.12 128.549 360.048 129.005 360.048C129.277 360.048 129.541 360.076 129.797 360.132C130.053 360.188 130.293 360.268 130.517 360.372C130.741 360.476 130.929 360.612 131.081 360.78L130.745 361.524C130.593 361.38 130.421 361.26 130.229 361.164C130.037 361.068 129.837 360.996 129.629 360.948C129.421 360.892 129.213 360.864 129.005 360.864C128.573 360.864 128.245 360.948 128.021 361.116C127.805 361.284 127.697 361.504 127.697 361.776C127.697 361.984 127.761 362.156 127.889 362.292C128.025 362.428 128.237 362.528 128.525 362.592L129.641 362.82C130.161 362.932 130.553 363.112 130.817 363.36C131.081 363.6 131.213 363.928 131.213 364.344C131.213 364.712 131.113 365.028 130.913 365.292C130.721 365.556 130.445 365.76 130.085 365.904C129.733 366.04 129.321 366.108 128.849 366.108ZM132.431 366V364.668H133.763V366H132.431ZM138.637 366V357.54H143.941V358.452H139.753V361.284H143.689V362.196H139.753V366H138.637ZM147.364 366.108C146.788 366.108 146.288 365.984 145.864 365.736C145.44 365.488 145.112 365.136 144.88 364.68C144.648 364.224 144.532 363.688 144.532 363.072C144.532 362.456 144.648 361.924 144.88 361.476C145.112 361.02 145.44 360.668 145.864 360.42C146.288 360.172 146.788 360.048 147.364 360.048C147.94 360.048 148.44 360.172 148.864 360.42C149.288 360.668 149.616 361.02 149.848 361.476C150.08 361.924 150.196 362.456 150.196 363.072C150.196 363.688 150.08 364.224 149.848 364.68C149.616 365.136 149.288 365.488 148.864 365.736C148.44 365.984 147.94 366.108 147.364 366.108ZM147.364 365.244C147.892 365.244 148.312 365.06 148.624 364.692C148.936 364.316 149.092 363.776 149.092 363.072C149.092 362.368 148.936 361.832 148.624 361.464C148.312 361.096 147.892 360.912 147.364 360.912C146.844 360.912 146.424 361.096 146.104 361.464C145.792 361.832 145.636 362.368 145.636 363.072C145.636 363.776 145.792 364.316 146.104 364.692C146.424 365.06 146.844 365.244 147.364 365.244ZM154.127 366.108C153.535 366.108 153.023 365.984 152.591 365.736C152.159 365.48 151.827 365.124 151.595 364.668C151.363 364.204 151.247 363.66 151.247 363.036C151.247 362.42 151.363 361.888 151.595 361.44C151.827 360.992 152.159 360.648 152.591 360.408C153.023 360.168 153.535 360.048 154.127 360.048C154.495 360.048 154.855 360.112 155.207 360.24C155.567 360.368 155.863 360.548 156.095 360.78L155.735 361.548C155.503 361.34 155.251 361.184 154.979 361.08C154.707 360.976 154.447 360.924 154.199 360.924C153.615 360.924 153.163 361.108 152.843 361.476C152.523 361.844 152.363 362.368 152.363 363.048C152.363 363.728 152.523 364.264 152.843 364.656C153.163 365.04 153.615 365.232 154.199 365.232C154.447 365.232 154.707 365.18 154.979 365.076C155.251 364.972 155.503 364.812 155.735 364.596L156.095 365.376C155.863 365.608 155.563 365.788 155.195 365.916C154.835 366.044 154.479 366.108 154.127 366.108ZM159.261 366.108C158.789 366.108 158.393 366.02 158.073 365.844C157.761 365.668 157.529 365.408 157.377 365.064C157.225 364.72 157.149 364.288 157.149 363.768V360.156H158.241V363.768C158.241 364.096 158.285 364.368 158.373 364.584C158.461 364.8 158.597 364.96 158.781 365.064C158.973 365.168 159.213 365.22 159.501 365.22C159.821 365.22 160.101 365.148 160.341 365.004C160.581 364.86 160.769 364.656 160.905 364.392C161.041 364.128 161.109 363.82 161.109 363.468V360.156H162.201V366H161.133V364.68H161.289C161.129 365.144 160.869 365.5 160.509 365.748C160.157 365.988 159.741 366.108 159.261 366.108ZM165.974 366.108C165.67 366.108 165.37 366.08 165.074 366.024C164.786 365.968 164.518 365.888 164.27 365.784C164.03 365.672 163.818 365.54 163.634 365.388L163.958 364.632C164.15 364.776 164.358 364.9 164.582 365.004C164.806 365.1 165.038 365.172 165.278 365.22C165.518 365.268 165.758 365.292 165.998 365.292C166.438 365.292 166.77 365.212 166.994 365.052C167.218 364.892 167.33 364.68 167.33 364.416C167.33 364.192 167.254 364.02 167.102 363.9C166.958 363.772 166.73 363.676 166.418 363.612L165.302 363.384C164.806 363.272 164.43 363.088 164.174 362.832C163.926 362.568 163.802 362.232 163.802 361.824C163.802 361.464 163.898 361.152 164.09 360.888C164.29 360.616 164.566 360.408 164.918 360.264C165.27 360.12 165.674 360.048 166.13 360.048C166.402 360.048 166.666 360.076 166.922 360.132C167.178 360.188 167.418 360.268 167.642 360.372C167.866 360.476 168.054 360.612 168.206 360.78L167.87 361.524C167.718 361.38 167.546 361.26 167.354 361.164C167.162 361.068 166.962 360.996 166.754 360.948C166.546 360.892 166.338 360.864 166.13 360.864C165.698 360.864 165.37 360.948 165.146 361.116C164.93 361.284 164.822 361.504 164.822 361.776C164.822 361.984 164.886 362.156 165.014 362.292C165.15 362.428 165.362 362.528 165.65 362.592L166.766 362.82C167.286 362.932 167.678 363.112 167.942 363.36C168.206 363.6 168.338 363.928 168.338 364.344C168.338 364.712 168.238 365.028 168.038 365.292C167.846 365.556 167.57 365.76 167.21 365.904C166.858 366.04 166.446 366.108 165.974 366.108ZM175.36 366.108C174.784 366.108 174.284 365.984 173.86 365.736C173.436 365.488 173.108 365.136 172.876 364.68C172.644 364.224 172.528 363.688 172.528 363.072C172.528 362.456 172.644 361.924 172.876 361.476C173.108 361.02 173.436 360.668 173.86 360.42C174.284 360.172 174.784 360.048 175.36 360.048C175.936 360.048 176.436 360.172 176.86 360.42C177.284 360.668 177.612 361.02 177.844 361.476C178.076 361.924 178.192 362.456 178.192 363.072C178.192 363.688 178.076 364.224 177.844 364.68C177.612 365.136 177.284 365.488 176.86 365.736C176.436 365.984 175.936 366.108 175.36 366.108ZM175.36 365.244C175.888 365.244 176.308 365.06 176.62 364.692C176.932 364.316 177.088 363.776 177.088 363.072C177.088 362.368 176.932 361.832 176.62 361.464C176.308 361.096 175.888 360.912 175.36 360.912C174.84 360.912 174.42 361.096 174.1 361.464C173.788 361.832 173.632 362.368 173.632 363.072C173.632 363.776 173.788 364.316 174.1 364.692C174.42 365.06 174.84 365.244 175.36 365.244ZM179.591 366V360.156H180.659V361.428H180.527C180.695 360.972 180.967 360.628 181.343 360.396C181.727 360.164 182.163 360.048 182.651 360.048C183.123 360.048 183.511 360.132 183.815 360.3C184.119 360.468 184.347 360.728 184.499 361.08C184.651 361.424 184.727 361.856 184.727 362.376V366H183.635V362.436C183.635 362.092 183.591 361.808 183.503 361.584C183.415 361.36 183.275 361.196 183.083 361.092C182.899 360.988 182.663 360.936 182.375 360.936C182.039 360.936 181.743 361.008 181.487 361.152C181.231 361.296 181.031 361.5 180.887 361.764C180.751 362.028 180.683 362.336 180.683 362.688V366H179.591ZM189.911 366V360.996H188.771V360.156H190.211L189.911 360.444V360C189.911 359.208 190.111 358.612 190.511 358.212C190.911 357.804 191.527 357.576 192.359 357.528L192.827 357.504L192.887 358.332L192.383 358.368C192.055 358.384 191.791 358.452 191.591 358.572C191.391 358.684 191.243 358.848 191.147 359.064C191.051 359.272 191.003 359.536 191.003 359.856V360.3V360.156H194.663V366H193.571V360.996H191.003V366H189.911ZM193.475 358.752V357.576H194.771V358.752H193.475ZM196.419 366V360.156H197.487V361.428H197.355C197.523 360.972 197.795 360.628 198.171 360.396C198.555 360.164 198.991 360.048 199.479 360.048C199.951 360.048 200.339 360.132 200.643 360.3C200.947 360.468 201.175 360.728 201.327 361.08C201.479 361.424 201.555 361.856 201.555 362.376V366H200.463V362.436C200.463 362.092 200.419 361.808 200.331 361.584C200.243 361.36 200.103 361.196 199.911 361.092C199.727 360.988 199.491 360.936 199.203 360.936C198.867 360.936 198.571 361.008 198.315 361.152C198.059 361.296 197.859 361.5 197.715 361.764C197.579 362.028 197.511 362.336 197.511 362.688V366H196.419ZM205.986 366.108C205.354 366.108 204.81 365.988 204.354 365.748C203.906 365.5 203.558 365.152 203.31 364.704C203.062 364.248 202.938 363.712 202.938 363.096C202.938 362.488 203.058 361.956 203.298 361.5C203.546 361.044 203.882 360.688 204.306 360.432C204.738 360.176 205.23 360.048 205.782 360.048C206.318 360.048 206.774 360.164 207.15 360.396C207.534 360.628 207.826 360.96 208.026 361.392C208.234 361.816 208.338 362.328 208.338 362.928V363.324H203.79V362.628H207.618L207.414 362.796C207.414 362.172 207.278 361.692 207.006 361.356C206.734 361.012 206.334 360.84 205.806 360.84C205.422 360.84 205.094 360.932 204.822 361.116C204.55 361.292 204.342 361.544 204.198 361.872C204.054 362.192 203.982 362.564 203.982 362.988V363.06C203.982 363.54 204.058 363.944 204.21 364.272C204.37 364.592 204.598 364.836 204.894 365.004C205.19 365.164 205.554 365.244 205.986 365.244C206.33 365.244 206.662 365.192 206.982 365.088C207.31 364.976 207.618 364.804 207.906 364.572L208.242 365.328C207.978 365.568 207.638 365.76 207.222 365.904C206.814 366.04 206.402 366.108 205.986 366.108ZM209.813 363.252V362.352H213.221V363.252H209.813ZM217.382 366.108C216.67 366.108 216.138 365.924 215.786 365.556C215.434 365.18 215.258 364.644 215.258 363.948V360.996H214.118V360.156H215.258V358.38H216.35V360.156H218.186V360.996H216.35V363.852C216.35 364.292 216.442 364.624 216.626 364.848C216.81 365.072 217.114 365.184 217.538 365.184C217.666 365.184 217.79 365.172 217.91 365.148C218.038 365.116 218.158 365.084 218.27 365.052L218.45 365.868C218.338 365.94 218.178 365.996 217.97 366.036C217.77 366.084 217.574 366.108 217.382 366.108ZM221.347 366.108C220.875 366.108 220.479 366.02 220.159 365.844C219.847 365.668 219.615 365.408 219.463 365.064C219.311 364.72 219.235 364.288 219.235 363.768V360.156H220.327V363.768C220.327 364.096 220.371 364.368 220.459 364.584C220.547 364.8 220.683 364.96 220.867 365.064C221.059 365.168 221.299 365.22 221.587 365.22C221.907 365.22 222.187 365.148 222.427 365.004C222.667 364.86 222.855 364.656 222.991 364.392C223.127 364.128 223.195 363.82 223.195 363.468V360.156H224.287V366H223.219V364.68H223.375C223.215 365.144 222.955 365.5 222.595 365.748C222.243 365.988 221.827 366.108 221.347 366.108ZM226.044 366V360.156H227.112V361.428H226.98C227.148 360.972 227.42 360.628 227.796 360.396C228.18 360.164 228.616 360.048 229.104 360.048C229.576 360.048 229.964 360.132 230.268 360.3C230.572 360.468 230.8 360.728 230.952 361.08C231.104 361.424 231.18 361.856 231.18 362.376V366H230.088V362.436C230.088 362.092 230.044 361.808 229.956 361.584C229.868 361.36 229.728 361.196 229.536 361.092C229.352 360.988 229.116 360.936 228.828 360.936C228.492 360.936 228.196 361.008 227.94 361.152C227.684 361.296 227.484 361.5 227.34 361.764C227.204 362.028 227.136 362.336 227.136 362.688V366H226.044ZM232.803 358.752V357.576H234.111V358.752H232.803ZM232.911 366V360.156H234.003V366H232.911ZM235.759 366V360.156H236.827V361.428H236.695C236.863 360.972 237.135 360.628 237.511 360.396C237.895 360.164 238.331 360.048 238.819 360.048C239.291 360.048 239.679 360.132 239.983 360.3C240.287 360.468 240.515 360.728 240.667 361.08C240.819 361.424 240.895 361.856 240.895 362.376V366H239.803V362.436C239.803 362.092 239.759 361.808 239.671 361.584C239.583 361.36 239.443 361.196 239.251 361.092C239.067 360.988 238.831 360.936 238.543 360.936C238.207 360.936 237.911 361.008 237.655 361.152C237.399 361.296 237.199 361.5 237.055 361.764C236.919 362.028 236.851 362.336 236.851 362.688V366H235.759ZM245.254 368.268C244.734 368.268 244.25 368.204 243.802 368.076C243.354 367.948 242.954 367.752 242.602 367.488L242.95 366.696C243.19 366.856 243.426 366.988 243.658 367.092C243.898 367.204 244.142 367.284 244.39 367.332C244.646 367.38 244.91 367.404 245.182 367.404C245.75 367.404 246.174 367.256 246.454 366.96C246.742 366.672 246.886 366.248 246.886 365.688V364.392H246.994C246.882 364.84 246.63 365.196 246.238 365.46C245.854 365.724 245.406 365.856 244.894 365.856C244.366 365.856 243.906 365.736 243.514 365.496C243.122 365.248 242.818 364.908 242.602 364.476C242.386 364.036 242.278 363.528 242.278 362.952C242.278 362.368 242.386 361.86 242.602 361.428C242.818 360.988 243.122 360.648 243.514 360.408C243.906 360.168 244.366 360.048 244.894 360.048C245.414 360.048 245.866 360.18 246.25 360.444C246.634 360.708 246.882 361.064 246.994 361.512H246.886V360.156H247.954V365.544C247.954 366.144 247.85 366.648 247.642 367.056C247.442 367.464 247.142 367.768 246.742 367.968C246.342 368.168 245.846 368.268 245.254 368.268ZM245.134 364.992C245.67 364.992 246.094 364.808 246.406 364.44C246.718 364.072 246.874 363.576 246.874 362.952C246.874 362.32 246.718 361.824 246.406 361.464C246.094 361.096 245.67 360.912 245.134 360.912C244.598 360.912 244.17 361.096 243.85 361.464C243.538 361.824 243.382 362.32 243.382 362.952C243.382 363.576 243.538 364.072 243.85 364.44C244.17 364.808 244.598 364.992 245.134 364.992ZM249.56 366V364.668H250.892V366H249.56Z" fill="#6D6D6D"/>
<path d="M97.332 329V323.932L97.78 325.178L93.524 319.13H96.044L98.676 322.938H98.228L100.86 319.13H103.282L99.068 325.178L99.502 323.932V329H97.332ZM105.759 329.154C105.021 329.154 104.377 329.009 103.827 328.72C103.285 328.431 102.865 328.015 102.567 327.474C102.268 326.933 102.119 326.293 102.119 325.556C102.119 324.819 102.268 324.184 102.567 323.652C102.865 323.12 103.285 322.709 103.827 322.42C104.377 322.131 105.021 321.986 105.759 321.986C106.496 321.986 107.135 322.131 107.677 322.42C108.227 322.709 108.652 323.125 108.951 323.666C109.259 324.198 109.413 324.828 109.413 325.556C109.413 326.293 109.259 326.933 108.951 327.474C108.652 328.015 108.227 328.431 107.677 328.72C107.135 329.009 106.496 329.154 105.759 329.154ZM105.759 327.572C106.216 327.572 106.585 327.409 106.865 327.082C107.145 326.746 107.285 326.237 107.285 325.556C107.285 324.875 107.145 324.375 106.865 324.058C106.585 323.731 106.216 323.568 105.759 323.568C105.311 323.568 104.947 323.731 104.667 324.058C104.387 324.375 104.247 324.875 104.247 325.556C104.247 326.237 104.387 326.746 104.667 327.082C104.947 327.409 105.311 327.572 105.759 327.572ZM113.233 329.154C112.654 329.154 112.173 329.047 111.791 328.832C111.408 328.617 111.123 328.295 110.937 327.866C110.759 327.427 110.671 326.886 110.671 326.242V322.126H112.785V326.298C112.785 326.569 112.822 326.797 112.897 326.984C112.971 327.161 113.083 327.297 113.233 327.39C113.391 327.474 113.592 327.516 113.835 327.516C114.105 327.516 114.343 327.455 114.549 327.334C114.754 327.203 114.913 327.021 115.025 326.788C115.146 326.555 115.207 326.279 115.207 325.962V322.126H117.321V329H115.263V327.656H115.473C115.267 328.132 114.973 328.501 114.591 328.762C114.208 329.023 113.755 329.154 113.233 329.154ZM119.839 323.386L119.013 322.742C119.227 322.518 119.4 322.308 119.531 322.112C119.671 321.907 119.769 321.706 119.825 321.51C119.89 321.314 119.923 321.104 119.923 320.88L120.413 321.37H118.831V319.13H121.099V320.572C121.099 320.917 121.057 321.249 120.973 321.566C120.898 321.883 120.767 322.191 120.581 322.49C120.403 322.779 120.156 323.078 119.839 323.386ZM122.593 329V322.126H124.665V323.806H124.525C124.637 323.246 124.88 322.817 125.253 322.518C125.636 322.21 126.14 322.033 126.765 321.986L127.381 321.944L127.507 323.722L126.317 323.848C125.785 323.895 125.389 324.049 125.127 324.31C124.875 324.571 124.749 324.949 124.749 325.444V329H122.593ZM131.81 329.154C130.998 329.154 130.298 329.009 129.71 328.72C129.131 328.421 128.683 328.006 128.366 327.474C128.058 326.933 127.904 326.298 127.904 325.57C127.904 324.861 128.053 324.24 128.352 323.708C128.65 323.167 129.066 322.747 129.598 322.448C130.139 322.14 130.75 321.986 131.432 321.986C132.104 321.986 132.682 322.131 133.168 322.42C133.653 322.7 134.026 323.101 134.288 323.624C134.558 324.147 134.694 324.767 134.694 325.486V326.018H129.64V324.926H133.168L132.944 325.122C132.944 324.553 132.818 324.123 132.566 323.834C132.323 323.535 131.973 323.386 131.516 323.386C131.17 323.386 130.876 323.465 130.634 323.624C130.391 323.783 130.204 324.011 130.074 324.31C129.943 324.609 129.878 324.968 129.878 325.388V325.5C129.878 325.976 129.948 326.368 130.088 326.676C130.237 326.975 130.456 327.199 130.746 327.348C131.044 327.497 131.413 327.572 131.852 327.572C132.225 327.572 132.603 327.516 132.986 327.404C133.368 327.292 133.714 327.119 134.022 326.886L134.582 328.3C134.236 328.561 133.812 328.771 133.308 328.93C132.813 329.079 132.314 329.154 131.81 329.154ZM139.022 329.14L138.868 327.376L139.946 327.32C140.198 327.301 140.403 327.25 140.562 327.166C140.73 327.073 140.856 326.942 140.94 326.774C141.024 326.606 141.066 326.396 141.066 326.144V319.13H143.236V326.116C143.236 326.732 143.124 327.255 142.9 327.684C142.685 328.104 142.358 328.431 141.92 328.664C141.49 328.897 140.949 329.037 140.296 329.084L139.022 329.14ZM148.346 329.154C147.609 329.154 146.965 329.009 146.414 328.72C145.873 328.431 145.453 328.015 145.154 327.474C144.856 326.933 144.706 326.293 144.706 325.556C144.706 324.819 144.856 324.184 145.154 323.652C145.453 323.12 145.873 322.709 146.414 322.42C146.965 322.131 147.609 321.986 148.346 321.986C149.084 321.986 149.723 322.131 150.264 322.42C150.815 322.709 151.24 323.125 151.538 323.666C151.846 324.198 152 324.828 152 325.556C152 326.293 151.846 326.933 151.538 327.474C151.24 328.015 150.815 328.431 150.264 328.72C149.723 329.009 149.084 329.154 148.346 329.154ZM148.346 327.572C148.804 327.572 149.172 327.409 149.452 327.082C149.732 326.746 149.872 326.237 149.872 325.556C149.872 324.875 149.732 324.375 149.452 324.058C149.172 323.731 148.804 323.568 148.346 323.568C147.898 323.568 147.534 323.731 147.254 324.058C146.974 324.375 146.834 324.875 146.834 325.556C146.834 326.237 146.974 326.746 147.254 327.082C147.534 327.409 147.898 327.572 148.346 327.572ZM157.529 329.154C156.978 329.154 156.488 329.019 156.059 328.748C155.639 328.468 155.359 328.099 155.219 327.642H155.359V329H153.287V319.13H155.401V323.4H155.233C155.382 322.98 155.667 322.639 156.087 322.378C156.507 322.117 156.987 321.986 157.529 321.986C158.135 321.986 158.663 322.131 159.111 322.42C159.559 322.709 159.909 323.12 160.161 323.652C160.413 324.184 160.539 324.819 160.539 325.556C160.539 326.293 160.413 326.933 160.161 327.474C159.909 328.015 159.554 328.431 159.097 328.72C158.649 329.009 158.126 329.154 157.529 329.154ZM156.899 327.572C157.347 327.572 157.711 327.409 157.991 327.082C158.271 326.746 158.411 326.237 158.411 325.556C158.411 324.875 158.271 324.375 157.991 324.058C157.711 323.731 157.347 323.568 156.899 323.568C156.441 323.568 156.073 323.731 155.793 324.058C155.513 324.375 155.373 324.875 155.373 325.556C155.373 326.237 155.513 326.746 155.793 327.082C156.073 327.409 156.441 327.572 156.899 327.572ZM165.91 329V319.13H170.418C171.519 319.13 172.369 319.396 172.966 319.928C173.563 320.46 173.862 321.202 173.862 322.154C173.862 322.77 173.727 323.302 173.456 323.75C173.185 324.198 172.793 324.543 172.28 324.786C171.776 325.029 171.155 325.15 170.418 325.15L170.53 324.912H171.104C171.496 324.912 171.837 325.01 172.126 325.206C172.425 325.393 172.681 325.682 172.896 326.074L174.492 329H172.098L170.39 325.85C170.297 325.682 170.189 325.551 170.068 325.458C169.947 325.355 169.807 325.285 169.648 325.248C169.499 325.201 169.331 325.178 169.144 325.178H168.08V329H165.91ZM168.08 323.61H170.026C170.605 323.61 171.039 323.493 171.328 323.26C171.627 323.027 171.776 322.677 171.776 322.21C171.776 321.753 171.627 321.407 171.328 321.174C171.039 320.941 170.605 320.824 170.026 320.824H168.08V323.61ZM178.855 329.154C178.043 329.154 177.343 329.009 176.755 328.72C176.176 328.421 175.728 328.006 175.411 327.474C175.103 326.933 174.949 326.298 174.949 325.57C174.949 324.861 175.098 324.24 175.397 323.708C175.695 323.167 176.111 322.747 176.643 322.448C177.184 322.14 177.795 321.986 178.477 321.986C179.149 321.986 179.727 322.131 180.213 322.42C180.698 322.7 181.071 323.101 181.333 323.624C181.603 324.147 181.739 324.767 181.739 325.486V326.018H176.685V324.926H180.213L179.989 325.122C179.989 324.553 179.863 324.123 179.611 323.834C179.368 323.535 179.018 323.386 178.561 323.386C178.215 323.386 177.921 323.465 177.679 323.624C177.436 323.783 177.249 324.011 177.119 324.31C176.988 324.609 176.923 324.968 176.923 325.388V325.5C176.923 325.976 176.993 326.368 177.133 326.676C177.282 326.975 177.501 327.199 177.791 327.348C178.089 327.497 178.458 327.572 178.897 327.572C179.27 327.572 179.648 327.516 180.031 327.404C180.413 327.292 180.759 327.119 181.067 326.886L181.627 328.3C181.281 328.561 180.857 328.771 180.353 328.93C179.858 329.079 179.359 329.154 178.855 329.154ZM185.292 329.154C184.788 329.154 184.336 329.056 183.934 328.86C183.533 328.664 183.22 328.398 182.996 328.062C182.772 327.726 182.66 327.348 182.66 326.928C182.66 326.424 182.791 326.027 183.052 325.738C183.314 325.439 183.738 325.229 184.326 325.108C184.914 324.977 185.694 324.912 186.664 324.912H187.406V326.004H186.678C186.314 326.004 186.006 326.018 185.754 326.046C185.512 326.074 185.311 326.125 185.152 326.2C184.994 326.265 184.877 326.349 184.802 326.452C184.737 326.555 184.704 326.685 184.704 326.844C184.704 327.105 184.793 327.32 184.97 327.488C185.157 327.656 185.423 327.74 185.768 327.74C186.039 327.74 186.277 327.679 186.482 327.558C186.697 327.427 186.865 327.255 186.986 327.04C187.108 326.816 187.168 326.564 187.168 326.284V324.674C187.168 324.263 187.075 323.974 186.888 323.806C186.702 323.629 186.384 323.54 185.936 323.54C185.563 323.54 185.166 323.601 184.746 323.722C184.336 323.834 183.925 324.007 183.514 324.24L182.94 322.826C183.183 322.658 183.477 322.513 183.822 322.392C184.177 322.261 184.546 322.163 184.928 322.098C185.311 322.023 185.675 321.986 186.02 321.986C186.739 321.986 187.327 322.093 187.784 322.308C188.251 322.513 188.601 322.835 188.834 323.274C189.068 323.703 189.184 324.259 189.184 324.94V329H187.21V327.614H187.308C187.252 327.931 187.131 328.207 186.944 328.44C186.767 328.664 186.538 328.841 186.258 328.972C185.978 329.093 185.656 329.154 185.292 329.154ZM193.435 329.154C192.838 329.154 192.311 329.009 191.853 328.72C191.405 328.431 191.055 328.015 190.803 327.474C190.551 326.933 190.425 326.293 190.425 325.556C190.425 324.819 190.551 324.184 190.803 323.652C191.055 323.12 191.405 322.709 191.853 322.42C192.311 322.131 192.838 321.986 193.435 321.986C193.977 321.986 194.453 322.117 194.863 322.378C195.283 322.639 195.568 322.98 195.717 323.4H195.563V319.13H197.677V329H195.605V327.642H195.731C195.601 328.099 195.321 328.468 194.891 328.748C194.471 329.019 193.986 329.154 193.435 329.154ZM194.065 327.572C194.523 327.572 194.891 327.409 195.171 327.082C195.451 326.746 195.591 326.237 195.591 325.556C195.591 324.875 195.451 324.375 195.171 324.058C194.891 323.731 194.523 323.568 194.065 323.568C193.617 323.568 193.253 323.731 192.973 324.058C192.693 324.375 192.553 324.875 192.553 325.556C192.553 326.237 192.693 326.746 192.973 327.082C193.253 327.409 193.617 327.572 194.065 327.572ZM199.838 331.52L201.35 328.202V329.07L198.326 322.126H200.552L202.498 327.054H202.05L204.052 322.126H206.152L201.994 331.52H199.838ZM207.135 325.878L206.477 319.13H209.081L208.409 325.878H207.135ZM206.645 329V326.76H208.913V329H206.645ZM210.772 325.878L210.114 319.13H212.718L212.046 325.878H210.772ZM210.282 329V326.76H212.55V329H210.282ZM214.408 325.878L213.75 319.13H216.354L215.682 325.878H214.408ZM213.918 329V326.76H216.186V329H213.918Z" fill="black"/>
<path d="M63.332 100V94.932L63.78 96.178L59.524 90.13H62.044L64.676 93.938H64.228L66.86 90.13H69.282L65.068 96.178L65.502 94.932V100H63.332ZM71.7586 100.154C71.0212 100.154 70.3772 100.009 69.8266 99.72C69.2852 99.4307 68.8652 99.0153 68.5666 98.474C68.2679 97.9327 68.1186 97.2933 68.1186 96.556C68.1186 95.8187 68.2679 95.184 68.5666 94.652C68.8652 94.12 69.2852 93.7093 69.8266 93.42C70.3772 93.1307 71.0212 92.986 71.7586 92.986C72.4959 92.986 73.1352 93.1307 73.6766 93.42C74.2272 93.7093 74.6519 94.1247 74.9506 94.666C75.2586 95.198 75.4126 95.828 75.4126 96.556C75.4126 97.2933 75.2586 97.9327 74.9506 98.474C74.6519 99.0153 74.2272 99.4307 73.6766 99.72C73.1352 100.009 72.4959 100.154 71.7586 100.154ZM71.7586 98.572C72.2159 98.572 72.5846 98.4087 72.8646 98.082C73.1446 97.746 73.2846 97.2373 73.2846 96.556C73.2846 95.8747 73.1446 95.3753 72.8646 95.058C72.5846 94.7313 72.2159 94.568 71.7586 94.568C71.3106 94.568 70.9466 94.7313 70.6666 95.058C70.3866 95.3753 70.2466 95.8747 70.2466 96.556C70.2466 97.2373 70.3866 97.746 70.6666 98.082C70.9466 98.4087 71.3106 98.572 71.7586 98.572ZM79.2327 100.154C78.6541 100.154 78.1734 100.047 77.7907 99.832C77.4081 99.6173 77.1234 99.2953 76.9367 98.866C76.7594 98.4273 76.6707 97.886 76.6707 97.242V93.126H78.7847V97.298C78.7847 97.5687 78.8221 97.7973 78.8967 97.984C78.9714 98.1613 79.0834 98.2967 79.2327 98.39C79.3914 98.474 79.5921 98.516 79.8347 98.516C80.1054 98.516 80.3434 98.4553 80.5487 98.334C80.7541 98.2033 80.9127 98.0213 81.0247 97.788C81.1461 97.5547 81.2067 97.2793 81.2067 96.962V93.126H83.3207V100H81.2627V98.656H81.4727C81.2674 99.132 80.9734 99.5007 80.5907 99.762C80.2081 100.023 79.7554 100.154 79.2327 100.154ZM84.9565 100V93.126H87.0285V94.806H86.8885C87.0005 94.246 87.2432 93.8167 87.6165 93.518C87.9992 93.21 88.5032 93.0327 89.1285 92.986L89.7445 92.944L89.8705 94.722L88.6805 94.848C88.1485 94.8947 87.7519 95.0487 87.4905 95.31C87.2385 95.5713 87.1125 95.9493 87.1125 96.444V100H84.9565ZM94.8045 100V90.13H99.3125C100.414 90.13 101.263 90.396 101.861 90.928C102.458 91.46 102.757 92.202 102.757 93.154C102.757 93.77 102.621 94.302 102.351 94.75C102.08 95.198 101.688 95.5433 101.175 95.786C100.671 96.0287 100.05 96.15 99.3125 96.15L99.4245 95.912H99.9985C100.391 95.912 100.731 96.01 101.021 96.206C101.319 96.3927 101.576 96.682 101.791 97.074L103.387 100H100.993L99.2845 96.85C99.1912 96.682 99.0839 96.5513 98.9625 96.458C98.8412 96.3553 98.7012 96.2853 98.5425 96.248C98.3932 96.2013 98.2252 96.178 98.0385 96.178H96.9745V100H94.8045ZM96.9745 94.61H98.9205C99.4992 94.61 99.9332 94.4933 100.223 94.26C100.521 94.0267 100.671 93.6767 100.671 93.21C100.671 92.7527 100.521 92.4073 100.223 92.174C99.9332 91.9407 99.4992 91.824 98.9205 91.824H96.9745V94.61ZM107.749 100.154C106.937 100.154 106.237 100.009 105.649 99.72C105.071 99.4213 104.623 99.006 104.305 98.474C103.997 97.9327 103.843 97.298 103.843 96.57C103.843 95.8607 103.993 95.24 104.291 94.708C104.59 94.1667 105.005 93.7467 105.537 93.448C106.079 93.14 106.69 92.986 107.371 92.986C108.043 92.986 108.622 93.1307 109.107 93.42C109.593 93.7 109.966 94.1013 110.227 94.624C110.498 95.1467 110.633 95.7673 110.633 96.486V97.018H105.579V95.926H109.107L108.883 96.122C108.883 95.5527 108.757 95.1233 108.505 94.834C108.263 94.5353 107.913 94.386 107.455 94.386C107.11 94.386 106.816 94.4653 106.573 94.624C106.331 94.7827 106.144 95.0113 106.013 95.31C105.883 95.6087 105.817 95.968 105.817 96.388V96.5C105.817 96.976 105.887 97.368 106.027 97.676C106.177 97.9747 106.396 98.1987 106.685 98.348C106.984 98.4973 107.353 98.572 107.791 98.572C108.165 98.572 108.543 98.516 108.925 98.404C109.308 98.292 109.653 98.1193 109.961 97.886L110.521 99.3C110.176 99.5613 109.751 99.7713 109.247 99.93C108.753 100.079 108.253 100.154 107.749 100.154ZM114.495 100.154C114.093 100.154 113.706 100.121 113.333 100.056C112.959 99.9907 112.619 99.902 112.311 99.79C112.003 99.678 111.732 99.538 111.499 99.37L112.003 97.998C112.236 98.138 112.488 98.264 112.759 98.376C113.039 98.4787 113.328 98.558 113.627 98.614C113.925 98.67 114.219 98.698 114.509 98.698C114.91 98.698 115.199 98.6373 115.377 98.516C115.563 98.3853 115.657 98.2173 115.657 98.012C115.657 97.8253 115.596 97.6853 115.475 97.592C115.353 97.4987 115.176 97.4333 114.943 97.396L113.473 97.13C112.894 97.0273 112.446 96.8173 112.129 96.5C111.821 96.1733 111.667 95.758 111.667 95.254C111.667 94.7873 111.797 94.386 112.059 94.05C112.32 93.7047 112.679 93.4433 113.137 93.266C113.603 93.0793 114.131 92.986 114.719 92.986C115.055 92.986 115.381 93.014 115.699 93.07C116.016 93.126 116.315 93.21 116.595 93.322C116.884 93.434 117.141 93.5833 117.365 93.77L116.833 95.128C116.655 94.988 116.445 94.8667 116.203 94.764C115.96 94.6613 115.713 94.582 115.461 94.526C115.209 94.4607 114.971 94.428 114.747 94.428C114.327 94.428 114.023 94.498 113.837 94.638C113.65 94.7687 113.557 94.9367 113.557 95.142C113.557 95.3007 113.608 95.436 113.711 95.548C113.823 95.6507 113.991 95.7207 114.215 95.758L115.685 96.024C116.291 96.1267 116.753 96.332 117.071 96.64C117.388 96.9387 117.547 97.3493 117.547 97.872C117.547 98.348 117.421 98.7587 117.169 99.104C116.917 99.44 116.562 99.7013 116.105 99.888C115.647 100.065 115.111 100.154 114.495 100.154ZM121.287 100.154C120.709 100.154 120.228 100.047 119.845 99.832C119.463 99.6173 119.178 99.2953 118.991 98.866C118.814 98.4273 118.725 97.886 118.725 97.242V93.126H120.839V97.298C120.839 97.5687 120.877 97.7973 120.951 97.984C121.026 98.1613 121.138 98.2967 121.287 98.39C121.446 98.474 121.647 98.516 121.889 98.516C122.16 98.516 122.398 98.4553 122.603 98.334C122.809 98.2033 122.967 98.0213 123.079 97.788C123.201 97.5547 123.261 97.2793 123.261 96.962V93.126H125.375V100H123.317V98.656H123.527C123.322 99.132 123.028 99.5007 122.645 99.762C122.263 100.023 121.81 100.154 121.287 100.154ZM129.573 100.154C128.687 100.154 128.038 99.9253 127.627 99.468C127.217 99.0013 127.011 98.3107 127.011 97.396V90.13H129.125V97.312C129.125 97.5453 129.163 97.7507 129.237 97.928C129.312 98.096 129.419 98.222 129.559 98.306C129.709 98.39 129.895 98.432 130.119 98.432C130.213 98.432 130.311 98.4273 130.413 98.418C130.516 98.4087 130.614 98.39 130.707 98.362L130.679 100C130.502 100.047 130.32 100.084 130.133 100.112C129.956 100.14 129.769 100.154 129.573 100.154ZM134.842 100.154C133.862 100.154 133.134 99.916 132.658 99.44C132.182 98.964 131.944 98.264 131.944 97.34V94.708H130.642V93.126H131.944V91.11H134.058V93.126H136.088V94.708H134.058V97.256C134.058 97.648 134.147 97.942 134.324 98.138C134.511 98.334 134.805 98.432 135.206 98.432C135.328 98.432 135.454 98.418 135.584 98.39C135.724 98.362 135.874 98.3247 136.032 98.278L136.34 99.818C136.144 99.9207 135.911 100 135.64 100.056C135.37 100.121 135.104 100.154 134.842 100.154Z" fill="black"/>
<path d="M41.48 63.1C41.2267 63.1 40.9733 63.07 40.72 63.01C40.4733 62.95 40.2367 62.8633 40.01 62.75C39.79 62.63 39.5867 62.4833 39.4 62.31L39.84 61.34C40.0933 61.5733 40.3567 61.7433 40.63 61.85C40.91 61.95 41.1967 62 41.49 62C41.7767 62 42.0333 61.95 42.26 61.85C42.4867 61.7433 42.6767 61.59 42.83 61.39C42.9833 61.1833 43.1 60.93 43.18 60.63C43.26 60.3233 43.3 59.9733 43.3 59.58V58.98H43.35C43.2967 59.2867 43.1833 59.5533 43.01 59.78C42.8367 60 42.6233 60.1667 42.37 60.28C42.1167 60.3933 41.83 60.45 41.51 60.45C41.11 60.45 40.75 60.3567 40.43 60.17C40.1167 59.9767 39.8667 59.7133 39.68 59.38C39.5 59.04 39.41 58.65 39.41 58.21C39.41 57.75 39.51 57.3433 39.71 56.99C39.91 56.6367 40.1867 56.36 40.54 56.16C40.8933 55.9533 41.2967 55.85 41.75 55.85C42.3433 55.85 42.8433 55.9867 43.25 56.26C43.6633 56.5333 43.9733 56.9333 44.18 57.46C44.3933 57.98 44.5 58.6133 44.5 59.36C44.5 60.1467 44.38 60.82 44.14 61.38C43.9 61.94 43.5533 62.3667 43.1 62.66C42.6533 62.9533 42.1133 63.1 41.48 63.1ZM41.83 59.42C42.07 59.42 42.28 59.37 42.46 59.27C42.6467 59.1633 42.79 59.0133 42.89 58.82C42.99 58.6267 43.04 58.4067 43.04 58.16C43.04 57.9067 42.99 57.6867 42.89 57.5C42.79 57.3067 42.6467 57.1567 42.46 57.05C42.28 56.9433 42.0667 56.89 41.82 56.89C41.58 56.89 41.37 56.9433 41.19 57.05C41.01 57.1567 40.8667 57.3067 40.76 57.5C40.66 57.6867 40.61 57.9067 40.61 58.16C40.61 58.4067 40.66 58.6267 40.76 58.82C40.8667 59.0133 41.01 59.1633 41.19 59.27C41.37 59.37 41.5833 59.42 41.83 59.42ZM45.5761 59.47V58.06H47.0661V59.47H45.5761ZM45.5761 63V61.59H47.0661V63H45.5761ZM51.1728 63V61.67H48.0528V60.72L51.2628 55.95H52.4328V60.61H53.3828V61.67H52.4328V63H51.1728ZM51.1928 60.61V57.51H51.3628L49.1128 60.89L49.0528 60.61H51.1928ZM54.6089 63V61.91H56.3089V57.03L56.9489 57.07L54.9889 58.26L54.4589 57.29L56.6789 55.95H57.6089V61.91H59.1889V63H54.6089Z" fill="black"/>
<rect width="17" height="16" transform="translate(36 88)" fill="#F2F3F5"/>
<path d="M46.5 99.3462L45.9051 100L42.6648 96.4367C42.6126 96.3796 42.5711 96.3117 42.5428 96.2369C42.5146 96.1621 42.5 96.0819 42.5 96.0009C42.5 95.9199 42.5146 95.8397 42.5428 95.7649C42.5711 95.6901 42.6126 95.6222 42.6648 95.5652L45.9051 92L46.4994 92.6538L43.4582 96L46.5 99.3462Z" fill="black"/>
<path d="M264.072 56H254.428C253.639 56 253 56.6394 253 57.4281V61.5719C253 62.3606 253.639 63 254.428 63H264.072C264.861 63 265.5 62.3606 265.5 61.5719V57.4281C265.5 56.6394 264.861 56 264.072 56Z" stroke="black" stroke-miterlimit="10" stroke-linecap="square"/>
<path d="M263.697 57.7166H254.803C254.734 57.7166 254.678 57.7725 254.678 57.8416V61.1584C254.678 61.2275 254.734 61.2834 254.803 61.2834H263.697C263.766 61.2834 263.822 61.2275 263.822 61.1584V57.8416C263.822 57.7725 263.766 57.7166 263.697 57.7166Z" fill="black" stroke="black" stroke-miterlimit="10" stroke-linecap="square"/>
<path d="M267 58.3335V60.6666" stroke="black" stroke-miterlimit="10" stroke-linecap="round"/>
<path d="M218 64.0625V60.9375C218 60.6771 218.09 60.4558 218.271 60.2737C218.452 60.0917 218.671 60.0004 218.929 60C219.186 59.9996 219.405 60.0908 219.587 60.2737C219.768 60.4567 219.858 60.6779 219.857 60.9375V64.0625C219.857 64.3229 219.767 64.5444 219.587 64.7269C219.406 64.9094 219.187 65.0004 218.929 65C218.67 64.9996 218.451 64.9085 218.271 64.7269C218.091 64.5452 218.001 64.3237 218 64.0625ZM221.714 64.0625V59.375C221.714 59.1146 221.805 58.8933 221.985 58.7113C222.166 58.5292 222.385 58.4379 222.643 58.4375C222.9 58.4371 223.12 58.5283 223.301 58.7113C223.482 58.8942 223.572 59.1154 223.571 59.375V64.0625C223.571 64.3229 223.481 64.5444 223.301 64.7269C223.121 64.9094 222.901 65.0004 222.643 65C222.385 64.9996 222.165 64.9085 221.985 64.7269C221.805 64.5452 221.715 64.3237 221.714 64.0625ZM225.429 64.0625V57.8125C225.429 57.5521 225.519 57.3308 225.7 57.1488C225.88 56.9667 226.1 56.8754 226.357 56.875C226.615 56.8746 226.834 56.9658 227.015 57.1488C227.196 57.3317 227.287 57.5529 227.286 57.8125V64.0625C227.286 64.3229 227.196 64.5444 227.015 64.7269C226.835 64.9094 226.615 65.0004 226.357 65C226.099 64.9996 225.88 64.9085 225.7 64.7269C225.52 64.5452 225.429 64.3237 225.429 64.0625ZM229.143 64.0625V55.9375C229.143 55.6771 229.233 55.4558 229.414 55.2738C229.595 55.0917 229.814 55.0004 230.071 55C230.329 54.9996 230.548 55.0908 230.729 55.2738C230.911 55.4567 231.001 55.6779 231 55.9375V64.0625C231 64.3229 230.91 64.5444 230.729 64.7269C230.549 64.9094 230.33 65.0004 230.071 65C229.813 64.9996 229.594 64.9085 229.414 64.7269C229.234 64.5452 229.144 64.3237 229.143 64.0625Z" fill="black"/>
<path d="M242 61.5625C241.611 61.5625 241.233 61.6146 240.865 61.7187C240.497 61.8229 240.149 61.9792 239.822 62.1875C239.638 62.3021 239.439 62.3569 239.224 62.3519C239.01 62.3469 238.826 62.266 238.672 62.1094C238.519 61.9527 238.447 61.7704 238.458 61.5625C238.468 61.3546 238.56 61.1879 238.734 61.0625C239.214 60.7187 239.73 60.4556 240.282 60.2731C240.834 60.0906 241.407 59.9996 242 60C242.593 60.0004 243.165 60.0917 243.717 60.2737C244.269 60.4558 244.785 60.7187 245.266 61.0625C245.44 61.1875 245.532 61.3542 245.542 61.5625C245.552 61.7708 245.48 61.9531 245.327 62.1094C245.174 62.2656 244.99 62.3464 244.775 62.3519C244.56 62.3573 244.361 62.3025 244.177 62.1875C243.85 61.9792 243.502 61.8229 243.134 61.7187C242.766 61.6146 242.388 61.5625 242 61.5625ZM242 56.5625C240.957 56.5625 239.953 56.7396 238.986 57.0937C238.02 57.4479 237.139 57.9531 236.342 58.6094C236.168 58.7552 235.976 58.8256 235.767 58.8206C235.558 58.8156 235.376 58.7348 235.222 58.5781C235.069 58.4215 234.995 58.2367 235 58.0237C235.006 57.8108 235.09 57.631 235.253 57.4844C236.204 56.6719 237.257 56.0548 238.412 55.6331C239.567 55.2115 240.763 55.0004 242 55C243.237 54.9996 244.433 55.2106 245.588 55.6331C246.743 56.0556 247.796 56.6727 248.746 57.4844C248.91 57.6302 248.994 57.81 249 58.0237C249.005 58.2375 248.931 58.4223 248.777 58.5781C248.623 58.734 248.442 58.8148 248.232 58.8206C248.023 58.8265 247.832 58.756 247.658 58.6094C246.86 57.9531 245.979 57.4479 245.013 57.0937C244.047 56.7396 243.043 56.5625 242 56.5625ZM242 59.0625C241.284 59.0625 240.594 59.1746 239.93 59.3987C239.265 59.6229 238.647 59.9535 238.074 60.3906C237.901 60.526 237.709 60.5912 237.5 60.5862C237.29 60.5812 237.109 60.5004 236.955 60.3437C236.812 60.1875 236.743 60.0052 236.748 59.7969C236.754 59.5885 236.838 59.4167 237.001 59.2812C237.717 58.6979 238.501 58.2552 239.355 57.9531C240.209 57.651 241.095 57.5 242.015 57.5C242.935 57.5 243.819 57.651 244.668 57.9531C245.517 58.2552 246.299 58.6927 247.014 59.2656C247.177 59.401 247.264 59.5756 247.274 59.7894C247.285 60.0031 247.213 60.1879 247.06 60.3437C246.906 60.4996 246.722 60.5804 246.508 60.5862C246.293 60.5921 246.099 60.5269 245.925 60.3906C245.353 59.9531 244.732 59.6223 244.062 59.3981C243.393 59.174 242.705 59.0621 242 59.0625ZM242 65C241.662 65 241.374 64.8777 241.134 64.6331C240.894 64.3885 240.773 64.0942 240.773 63.75C240.773 63.4058 240.893 63.1117 241.134 62.8675C241.375 62.6233 241.663 62.5008 242 62.5C242.336 62.4992 242.625 62.6217 242.866 62.8675C243.108 63.1133 243.228 63.4075 243.226 63.75C243.225 64.0925 243.105 64.3869 242.866 64.6331C242.628 64.8794 242.339 65.0016 242 65Z" fill="black"/>
</g>
<defs>
<clipPath id="clip0_2_735">
<rect width="305" height="372" rx="24" fill="white"/>
</clipPath>
</defs>
</svg>
