<svg width="305" height="372" viewBox="0 0 305 372" fill="none" xmlns="http://www.w3.org/2000/svg">
<g clip-path="url(#clip0_2_898)">
<rect width="305" height="372" rx="24" fill="#F4F4F4"/>
<rect x="14" y="35" width="278" height="591" rx="36" fill="#D9D9D9" fill-opacity="0.17"/>
<g clip-path="url(#clip1_2_898)">
<rect x="24" y="43" width="262" height="572" rx="28" fill="white"/>
<rect x="36" y="-196" width="239" height="369" rx="10" fill="#F4F5F7"/>
<path d="M77.1613 71V66.62L77.4013 67.364L73.9213 62.54H75.2173L77.8813 66.224H77.6053L80.2693 62.54H81.5053L78.0373 67.364L78.2773 66.62V71H77.1613ZM83.7194 71.108C83.1434 71.108 82.6434 70.984 82.2194 70.736C81.7954 70.488 81.4674 70.136 81.2354 69.68C81.0034 69.224 80.8874 68.688 80.8874 68.072C80.8874 67.456 81.0034 66.924 81.2354 66.476C81.4674 66.02 81.7954 65.668 82.2194 65.42C82.6434 65.172 83.1434 65.048 83.7194 65.048C84.2954 65.048 84.7954 65.172 85.2194 65.42C85.6434 65.668 85.9714 66.02 86.2034 66.476C86.4354 66.924 86.5514 67.456 86.5514 68.072C86.5514 68.688 86.4354 69.224 86.2034 69.68C85.9714 70.136 85.6434 70.488 85.2194 70.736C84.7954 70.984 84.2954 71.108 83.7194 71.108ZM83.7194 70.244C84.2474 70.244 84.6674 70.06 84.9794 69.692C85.2914 69.316 85.4474 68.776 85.4474 68.072C85.4474 67.368 85.2914 66.832 84.9794 66.464C84.6674 66.096 84.2474 65.912 83.7194 65.912C83.1994 65.912 82.7794 66.096 82.4594 66.464C82.1474 66.832 81.9914 67.368 81.9914 68.072C81.9914 68.776 82.1474 69.316 82.4594 69.692C82.7794 70.06 83.1994 70.244 83.7194 70.244ZM90.0382 71.108C89.5662 71.108 89.1702 71.02 88.8502 70.844C88.5382 70.668 88.3062 70.408 88.1542 70.064C88.0022 69.72 87.9262 69.288 87.9262 68.768V65.156H89.0182V68.768C89.0182 69.096 89.0622 69.368 89.1502 69.584C89.2382 69.8 89.3742 69.96 89.5582 70.064C89.7502 70.168 89.9902 70.22 90.2782 70.22C90.5982 70.22 90.8782 70.148 91.1182 70.004C91.3582 69.86 91.5462 69.656 91.6822 69.392C91.8182 69.128 91.8862 68.82 91.8862 68.468V65.156H92.9782V71H91.9102V69.68H92.0662C91.9062 70.144 91.6462 70.5 91.2862 70.748C90.9342 70.988 90.5182 71.108 90.0382 71.108ZM95.1554 65.288L94.6634 64.916C94.8074 64.756 94.9194 64.608 94.9994 64.472C95.0874 64.336 95.1474 64.2 95.1794 64.064C95.2114 63.92 95.2274 63.78 95.2274 63.644L95.5394 63.872H94.5914V62.54H95.9234V63.452C95.9234 63.684 95.8994 63.904 95.8514 64.112C95.8034 64.32 95.7234 64.52 95.6114 64.712C95.4994 64.904 95.3474 65.096 95.1554 65.288ZM97.5362 71V65.156H98.6042V66.548H98.4842C98.6122 66.068 98.8442 65.708 99.1802 65.468C99.5162 65.22 99.9602 65.076 100.512 65.036L100.884 65L100.968 65.948L100.284 66.008C99.7562 66.064 99.3482 66.236 99.0602 66.524C98.7802 66.812 98.6402 67.208 98.6402 67.712V71H97.5362ZM104.537 71.108C103.905 71.108 103.361 70.988 102.905 70.748C102.457 70.5 102.109 70.152 101.861 69.704C101.613 69.248 101.489 68.712 101.489 68.096C101.489 67.488 101.609 66.956 101.849 66.5C102.097 66.044 102.433 65.688 102.857 65.432C103.289 65.176 103.781 65.048 104.333 65.048C104.869 65.048 105.325 65.164 105.701 65.396C106.085 65.628 106.377 65.96 106.577 66.392C106.785 66.816 106.889 67.328 106.889 67.928V68.324H102.341V67.628H106.169L105.965 67.796C105.965 67.172 105.829 66.692 105.557 66.356C105.285 66.012 104.885 65.84 104.357 65.84C103.973 65.84 103.645 65.932 103.373 66.116C103.101 66.292 102.893 66.544 102.749 66.872C102.605 67.192 102.533 67.564 102.533 67.988V68.06C102.533 68.54 102.609 68.944 102.761 69.272C102.921 69.592 103.149 69.836 103.445 70.004C103.741 70.164 104.105 70.244 104.537 70.244C104.881 70.244 105.213 70.192 105.533 70.088C105.861 69.976 106.169 69.804 106.457 69.572L106.793 70.328C106.529 70.568 106.189 70.76 105.773 70.904C105.365 71.04 104.953 71.108 104.537 71.108ZM112.936 71L110.74 65.156H111.868L113.62 70.124H113.332L115.144 65.156H116.02L117.796 70.124H117.52L119.296 65.156H120.364L118.168 71H117.148L115.276 65.888H115.828L113.956 71H112.936ZM124.096 71.108C123.464 71.108 122.92 70.988 122.464 70.748C122.016 70.5 121.668 70.152 121.42 69.704C121.172 69.248 121.048 68.712 121.048 68.096C121.048 67.488 121.168 66.956 121.408 66.5C121.656 66.044 121.992 65.688 122.416 65.432C122.848 65.176 123.34 65.048 123.892 65.048C124.428 65.048 124.884 65.164 125.26 65.396C125.644 65.628 125.936 65.96 126.136 66.392C126.344 66.816 126.448 67.328 126.448 67.928V68.324H121.9V67.628H125.728L125.524 67.796C125.524 67.172 125.388 66.692 125.116 66.356C124.844 66.012 124.444 65.84 123.916 65.84C123.532 65.84 123.204 65.932 122.932 66.116C122.66 66.292 122.452 66.544 122.308 66.872C122.164 67.192 122.092 67.564 122.092 67.988V68.06C122.092 68.54 122.168 68.944 122.32 69.272C122.48 69.592 122.708 69.836 123.004 70.004C123.3 70.164 123.664 70.244 124.096 70.244C124.44 70.244 124.772 70.192 125.092 70.088C125.42 69.976 125.728 69.804 126.016 69.572L126.352 70.328C126.088 70.568 125.748 70.76 125.332 70.904C124.924 71.04 124.512 71.108 124.096 71.108ZM129.666 71.108C129.042 71.108 128.574 70.932 128.262 70.58C127.958 70.22 127.806 69.704 127.806 69.032V62.54H128.898V68.948C128.898 69.22 128.934 69.452 129.006 69.644C129.086 69.828 129.198 69.964 129.342 70.052C129.494 70.14 129.682 70.184 129.906 70.184C129.994 70.184 130.082 70.18 130.17 70.172C130.266 70.164 130.354 70.148 130.434 70.124L130.41 71.012C130.282 71.044 130.154 71.068 130.026 71.084C129.906 71.1 129.786 71.108 129.666 71.108ZM133.275 71.108C132.651 71.108 132.183 70.932 131.871 70.58C131.567 70.22 131.415 69.704 131.415 69.032V62.54H132.507V68.948C132.507 69.22 132.543 69.452 132.615 69.644C132.695 69.828 132.807 69.964 132.951 70.052C133.103 70.14 133.291 70.184 133.515 70.184C133.603 70.184 133.691 70.18 133.779 70.172C133.875 70.164 133.963 70.148 134.043 70.124L134.019 71.012C133.891 71.044 133.763 71.068 133.635 71.084C133.515 71.1 133.395 71.108 133.275 71.108ZM134.918 68.252V67.352H138.326V68.252H134.918ZM140.064 73.16V65.156H141.132V66.5H141.012C141.14 66.06 141.392 65.708 141.768 65.444C142.144 65.18 142.596 65.048 143.124 65.048C143.644 65.048 144.096 65.172 144.48 65.42C144.864 65.66 145.164 66.008 145.38 66.464C145.596 66.912 145.704 67.448 145.704 68.072C145.704 68.688 145.596 69.228 145.38 69.692C145.172 70.148 144.872 70.5 144.48 70.748C144.096 70.988 143.644 71.108 143.124 71.108C142.604 71.108 142.156 70.976 141.78 70.712C141.404 70.448 141.152 70.1 141.024 69.668H141.156V73.16H140.064ZM142.872 70.244C143.4 70.244 143.82 70.06 144.132 69.692C144.444 69.316 144.6 68.776 144.6 68.072C144.6 67.368 144.444 66.832 144.132 66.464C143.82 66.096 143.4 65.912 142.872 65.912C142.344 65.912 141.924 66.096 141.612 66.464C141.3 66.832 141.144 67.368 141.144 68.072C141.144 68.776 141.3 69.316 141.612 69.692C141.924 70.06 142.344 70.244 142.872 70.244ZM149.59 71.108C149.014 71.108 148.514 70.984 148.09 70.736C147.666 70.488 147.338 70.136 147.106 69.68C146.874 69.224 146.758 68.688 146.758 68.072C146.758 67.456 146.874 66.924 147.106 66.476C147.338 66.02 147.666 65.668 148.09 65.42C148.514 65.172 149.014 65.048 149.59 65.048C150.166 65.048 150.666 65.172 151.09 65.42C151.514 65.668 151.842 66.02 152.074 66.476C152.306 66.924 152.422 67.456 152.422 68.072C152.422 68.688 152.306 69.224 152.074 69.68C151.842 70.136 151.514 70.488 151.09 70.736C150.666 70.984 150.166 71.108 149.59 71.108ZM149.59 70.244C150.118 70.244 150.538 70.06 150.85 69.692C151.162 69.316 151.318 68.776 151.318 68.072C151.318 67.368 151.162 66.832 150.85 66.464C150.538 66.096 150.118 65.912 149.59 65.912C149.07 65.912 148.65 66.096 148.33 66.464C148.018 66.832 147.862 67.368 147.862 68.072C147.862 68.776 148.018 69.316 148.33 69.692C148.65 70.06 149.07 70.244 149.59 70.244ZM155.837 71.108C155.533 71.108 155.233 71.08 154.937 71.024C154.649 70.968 154.381 70.888 154.133 70.784C153.893 70.672 153.681 70.54 153.497 70.388L153.821 69.632C154.013 69.776 154.221 69.9 154.445 70.004C154.669 70.1 154.901 70.172 155.141 70.22C155.381 70.268 155.621 70.292 155.861 70.292C156.301 70.292 156.633 70.212 156.857 70.052C157.081 69.892 157.193 69.68 157.193 69.416C157.193 69.192 157.117 69.02 156.965 68.9C156.821 68.772 156.593 68.676 156.281 68.612L155.165 68.384C154.669 68.272 154.293 68.088 154.037 67.832C153.789 67.568 153.665 67.232 153.665 66.824C153.665 66.464 153.761 66.152 153.953 65.888C154.153 65.616 154.429 65.408 154.781 65.264C155.133 65.12 155.537 65.048 155.993 65.048C156.265 65.048 156.529 65.076 156.785 65.132C157.041 65.188 157.281 65.268 157.505 65.372C157.729 65.476 157.917 65.612 158.069 65.78L157.733 66.524C157.581 66.38 157.409 66.26 157.217 66.164C157.025 66.068 156.825 65.996 156.617 65.948C156.409 65.892 156.201 65.864 155.993 65.864C155.561 65.864 155.233 65.948 155.009 66.116C154.793 66.284 154.685 66.504 154.685 66.776C154.685 66.984 154.749 67.156 154.877 67.292C155.013 67.428 155.225 67.528 155.513 67.592L156.629 67.82C157.149 67.932 157.541 68.112 157.805 68.36C158.069 68.6 158.201 68.928 158.201 69.344C158.201 69.712 158.101 70.028 157.901 70.292C157.709 70.556 157.433 70.76 157.073 70.904C156.721 71.04 156.309 71.108 155.837 71.108ZM159.514 63.752V62.576H160.822V63.752H159.514ZM159.622 71V65.156H160.714V71H159.622ZM164.894 71.108C164.182 71.108 163.65 70.924 163.298 70.556C162.946 70.18 162.77 69.644 162.77 68.948V65.996H161.63V65.156H162.77V63.38H163.862V65.156H165.698V65.996H163.862V68.852C163.862 69.292 163.954 69.624 164.138 69.848C164.322 70.072 164.626 70.184 165.05 70.184C165.178 70.184 165.302 70.172 165.422 70.148C165.55 70.116 165.67 70.084 165.782 70.052L165.962 70.868C165.85 70.94 165.69 70.996 165.482 71.036C165.282 71.084 165.086 71.108 164.894 71.108ZM166.663 63.752V62.576H167.971V63.752H166.663ZM166.771 71V65.156H167.863V71H166.771ZM172.102 71.108C171.526 71.108 171.026 70.984 170.602 70.736C170.178 70.488 169.85 70.136 169.618 69.68C169.386 69.224 169.27 68.688 169.27 68.072C169.27 67.456 169.386 66.924 169.618 66.476C169.85 66.02 170.178 65.668 170.602 65.42C171.026 65.172 171.526 65.048 172.102 65.048C172.678 65.048 173.178 65.172 173.602 65.42C174.026 65.668 174.354 66.02 174.586 66.476C174.818 66.924 174.934 67.456 174.934 68.072C174.934 68.688 174.818 69.224 174.586 69.68C174.354 70.136 174.026 70.488 173.602 70.736C173.178 70.984 172.678 71.108 172.102 71.108ZM172.102 70.244C172.63 70.244 173.05 70.06 173.362 69.692C173.674 69.316 173.83 68.776 173.83 68.072C173.83 67.368 173.674 66.832 173.362 66.464C173.05 66.096 172.63 65.912 172.102 65.912C171.582 65.912 171.162 66.096 170.842 66.464C170.53 66.832 170.374 67.368 170.374 68.072C170.374 68.776 170.53 69.316 170.842 69.692C171.162 70.06 171.582 70.244 172.102 70.244ZM176.333 71V65.156H177.401V66.428H177.269C177.437 65.972 177.709 65.628 178.085 65.396C178.469 65.164 178.905 65.048 179.393 65.048C179.865 65.048 180.253 65.132 180.557 65.3C180.861 65.468 181.089 65.728 181.241 66.08C181.393 66.424 181.469 66.856 181.469 67.376V71H180.377V67.436C180.377 67.092 180.333 66.808 180.245 66.584C180.157 66.36 180.017 66.196 179.825 66.092C179.641 65.988 179.405 65.936 179.117 65.936C178.781 65.936 178.485 66.008 178.229 66.152C177.973 66.296 177.773 66.5 177.629 66.764C177.493 67.028 177.425 67.336 177.425 67.688V71H176.333ZM185.9 71.108C185.268 71.108 184.724 70.988 184.268 70.748C183.82 70.5 183.472 70.152 183.224 69.704C182.976 69.248 182.852 68.712 182.852 68.096C182.852 67.488 182.972 66.956 183.212 66.5C183.46 66.044 183.796 65.688 184.22 65.432C184.652 65.176 185.144 65.048 185.696 65.048C186.232 65.048 186.688 65.164 187.064 65.396C187.448 65.628 187.74 65.96 187.94 66.392C188.148 66.816 188.252 67.328 188.252 67.928V68.324H183.704V67.628H187.532L187.328 67.796C187.328 67.172 187.192 66.692 186.92 66.356C186.648 66.012 186.248 65.84 185.72 65.84C185.336 65.84 185.008 65.932 184.736 66.116C184.464 66.292 184.256 66.544 184.112 66.872C183.968 67.192 183.896 67.564 183.896 67.988V68.06C183.896 68.54 183.972 68.944 184.124 69.272C184.284 69.592 184.512 69.836 184.808 70.004C185.104 70.164 185.468 70.244 185.9 70.244C186.244 70.244 186.576 70.192 186.896 70.088C187.224 69.976 187.532 69.804 187.82 69.572L188.156 70.328C187.892 70.568 187.552 70.76 187.136 70.904C186.728 71.04 186.316 71.108 185.9 71.108ZM191.842 71.108C191.33 71.108 190.878 70.988 190.486 70.748C190.102 70.5 189.802 70.148 189.586 69.692C189.37 69.228 189.262 68.688 189.262 68.072C189.262 67.448 189.366 66.912 189.574 66.464C189.79 66.008 190.09 65.66 190.474 65.42C190.866 65.172 191.322 65.048 191.842 65.048C192.362 65.048 192.81 65.18 193.186 65.444C193.562 65.7 193.814 66.044 193.942 66.476H193.81V62.54H194.902V71H193.822V69.644H193.942C193.822 70.092 193.57 70.448 193.186 70.712C192.81 70.976 192.362 71.108 191.842 71.108ZM192.094 70.244C192.622 70.244 193.042 70.06 193.354 69.692C193.666 69.316 193.822 68.776 193.822 68.072C193.822 67.368 193.666 66.832 193.354 66.464C193.042 66.096 192.622 65.912 192.094 65.912C191.574 65.912 191.154 66.096 190.834 66.464C190.522 66.832 190.366 67.368 190.366 68.072C190.366 68.776 190.522 69.316 190.834 69.692C191.154 70.06 191.574 70.244 192.094 70.244ZM202.195 71.108C201.483 71.108 200.951 70.924 200.599 70.556C200.247 70.18 200.071 69.644 200.071 68.948V65.996H198.931V65.156H200.071V63.38H201.163V65.156H202.999V65.996H201.163V68.852C201.163 69.292 201.255 69.624 201.439 69.848C201.623 70.072 201.927 70.184 202.351 70.184C202.479 70.184 202.603 70.172 202.723 70.148C202.851 70.116 202.971 70.084 203.083 70.052L203.263 70.868C203.151 70.94 202.991 70.996 202.783 71.036C202.583 71.084 202.387 71.108 202.195 71.108ZM206.497 71.108C205.921 71.108 205.421 70.984 204.997 70.736C204.573 70.488 204.245 70.136 204.013 69.68C203.781 69.224 203.665 68.688 203.665 68.072C203.665 67.456 203.781 66.924 204.013 66.476C204.245 66.02 204.573 65.668 204.997 65.42C205.421 65.172 205.921 65.048 206.497 65.048C207.073 65.048 207.573 65.172 207.997 65.42C208.421 65.668 208.749 66.02 208.981 66.476C209.213 66.924 209.329 67.456 209.329 68.072C209.329 68.688 209.213 69.224 208.981 69.68C208.749 70.136 208.421 70.488 207.997 70.736C207.573 70.984 207.073 71.108 206.497 71.108ZM206.497 70.244C207.025 70.244 207.445 70.06 207.757 69.692C208.069 69.316 208.225 68.776 208.225 68.072C208.225 67.368 208.069 66.832 207.757 66.464C207.445 66.096 207.025 65.912 206.497 65.912C205.977 65.912 205.557 66.096 205.237 66.464C204.925 66.832 204.769 67.368 204.769 68.072C204.769 68.776 204.925 69.316 205.237 69.692C205.557 70.06 205.977 70.244 206.497 70.244ZM215.705 71.108C215.081 71.108 214.613 70.932 214.301 70.58C213.997 70.22 213.845 69.704 213.845 69.032V62.54H214.937V68.948C214.937 69.22 214.973 69.452 215.045 69.644C215.125 69.828 215.237 69.964 215.381 70.052C215.533 70.14 215.721 70.184 215.945 70.184C216.033 70.184 216.121 70.18 216.209 70.172C216.305 70.164 216.393 70.148 216.473 70.124L216.449 71.012C216.321 71.044 216.193 71.068 216.065 71.084C215.945 71.1 215.825 71.108 215.705 71.108ZM219.314 71.108C218.914 71.108 218.55 71.028 218.222 70.868C217.902 70.708 217.65 70.492 217.466 70.22C217.29 69.948 217.202 69.644 217.202 69.308C217.202 68.876 217.31 68.536 217.526 68.288C217.742 68.04 218.106 67.864 218.618 67.76C219.13 67.648 219.818 67.592 220.682 67.592H221.246V68.288H220.706C220.242 68.288 219.854 68.304 219.542 68.336C219.23 68.368 218.982 68.42 218.798 68.492C218.614 68.564 218.482 68.664 218.402 68.792C218.322 68.912 218.282 69.064 218.282 69.248C218.282 69.56 218.39 69.816 218.606 70.016C218.83 70.216 219.134 70.316 219.518 70.316C219.822 70.316 220.09 70.244 220.322 70.1C220.554 69.948 220.738 69.748 220.874 69.5C221.01 69.244 221.078 68.952 221.078 68.624V67.244C221.078 66.772 220.982 66.432 220.79 66.224C220.598 66.008 220.274 65.9 219.818 65.9C219.482 65.9 219.146 65.952 218.81 66.056C218.482 66.16 218.142 66.32 217.79 66.536L217.442 65.756C217.65 65.612 217.886 65.488 218.15 65.384C218.422 65.272 218.702 65.188 218.99 65.132C219.286 65.076 219.57 65.048 219.842 65.048C220.362 65.048 220.79 65.132 221.126 65.3C221.462 65.46 221.714 65.712 221.882 66.056C222.05 66.392 222.134 66.824 222.134 67.352V71H221.102V69.668H221.21C221.146 69.964 221.026 70.22 220.85 70.436C220.674 70.652 220.454 70.82 220.19 70.94C219.934 71.052 219.642 71.108 219.314 71.108ZM223.853 71V65.156H224.921V66.428H224.789C224.957 65.972 225.229 65.628 225.605 65.396C225.989 65.164 226.425 65.048 226.913 65.048C227.385 65.048 227.773 65.132 228.077 65.3C228.381 65.468 228.609 65.728 228.761 66.08C228.913 66.424 228.989 66.856 228.989 67.376V71H227.897V67.436C227.897 67.092 227.853 66.808 227.765 66.584C227.677 66.36 227.537 66.196 227.345 66.092C227.161 65.988 226.925 65.936 226.637 65.936C226.301 65.936 226.005 66.008 225.749 66.152C225.493 66.296 225.293 66.5 225.149 66.764C225.013 67.028 224.945 67.336 224.945 67.688V71H223.853ZM232.952 71.108C232.44 71.108 231.988 70.988 231.596 70.748C231.212 70.5 230.912 70.148 230.696 69.692C230.48 69.228 230.372 68.688 230.372 68.072C230.372 67.448 230.476 66.912 230.684 66.464C230.9 66.008 231.2 65.66 231.584 65.42C231.976 65.172 232.432 65.048 232.952 65.048C233.472 65.048 233.92 65.18 234.296 65.444C234.672 65.7 234.924 66.044 235.052 66.476H234.92V62.54H236.012V71H234.932V69.644H235.052C234.932 70.092 234.68 70.448 234.296 70.712C233.92 70.976 233.472 71.108 232.952 71.108ZM233.204 70.244C233.732 70.244 234.152 70.06 234.464 69.692C234.776 69.316 234.932 68.776 234.932 68.072C234.932 67.368 234.776 66.832 234.464 66.464C234.152 66.096 233.732 65.912 233.204 65.912C232.684 65.912 232.264 66.096 231.944 66.464C231.632 66.832 231.476 67.368 231.476 68.072C231.476 68.776 231.632 69.316 231.944 69.692C232.264 70.06 232.684 70.244 233.204 70.244ZM62.7311 89.108C62.1551 89.108 61.6551 88.984 61.2311 88.736C60.8071 88.488 60.4791 88.136 60.2471 87.68C60.0151 87.224 59.8991 86.688 59.8991 86.072C59.8991 85.456 60.0151 84.924 60.2471 84.476C60.4791 84.02 60.8071 83.668 61.2311 83.42C61.6551 83.172 62.1551 83.048 62.7311 83.048C63.3071 83.048 63.8071 83.172 64.2311 83.42C64.6551 83.668 64.9831 84.02 65.2151 84.476C65.4471 84.924 65.5631 85.456 65.5631 86.072C65.5631 86.688 65.4471 87.224 65.2151 87.68C64.9831 88.136 64.6551 88.488 64.2311 88.736C63.8071 88.984 63.3071 89.108 62.7311 89.108ZM62.7311 88.244C63.2591 88.244 63.6791 88.06 63.9911 87.692C64.3031 87.316 64.4591 86.776 64.4591 86.072C64.4591 85.368 64.3031 84.832 63.9911 84.464C63.6791 84.096 63.2591 83.912 62.7311 83.912C62.2111 83.912 61.7911 84.096 61.4711 84.464C61.1591 84.832 61.0031 85.368 61.0031 86.072C61.0031 86.776 61.1591 87.316 61.4711 87.692C61.7911 88.06 62.2111 88.244 62.7311 88.244ZM66.9619 91.16V83.156H68.0299V84.5H67.9099C68.0379 84.06 68.2899 83.708 68.6659 83.444C69.0419 83.18 69.4939 83.048 70.0219 83.048C70.5419 83.048 70.9939 83.172 71.3779 83.42C71.7619 83.66 72.0619 84.008 72.2779 84.464C72.4939 84.912 72.6019 85.448 72.6019 86.072C72.6019 86.688 72.4939 87.228 72.2779 87.692C72.0699 88.148 71.7699 88.5 71.3779 88.748C70.9939 88.988 70.5419 89.108 70.0219 89.108C69.5019 89.108 69.0539 88.976 68.6779 88.712C68.3019 88.448 68.0499 88.1 67.9219 87.668H68.0539V91.16H66.9619ZM69.7699 88.244C70.2979 88.244 70.7179 88.06 71.0299 87.692C71.3419 87.316 71.4979 86.776 71.4979 86.072C71.4979 85.368 71.3419 84.832 71.0299 84.464C70.7179 84.096 70.2979 83.912 69.7699 83.912C69.2419 83.912 68.8219 84.096 68.5099 84.464C68.1979 84.832 68.0419 85.368 68.0419 86.072C68.0419 86.776 68.1979 87.316 68.5099 87.692C68.8219 88.06 69.2419 88.244 69.7699 88.244ZM74.0049 91.16V83.156H75.0729V84.5H74.9529C75.0809 84.06 75.3329 83.708 75.7089 83.444C76.0849 83.18 76.5369 83.048 77.0649 83.048C77.5849 83.048 78.0369 83.172 78.4209 83.42C78.8049 83.66 79.1049 84.008 79.3209 84.464C79.5369 84.912 79.6449 85.448 79.6449 86.072C79.6449 86.688 79.5369 87.228 79.3209 87.692C79.1129 88.148 78.8129 88.5 78.4209 88.748C78.0369 88.988 77.5849 89.108 77.0649 89.108C76.5449 89.108 76.0969 88.976 75.7209 88.712C75.3449 88.448 75.0929 88.1 74.9649 87.668H75.0969V91.16H74.0049ZM76.8129 88.244C77.3409 88.244 77.7609 88.06 78.0729 87.692C78.3849 87.316 78.5409 86.776 78.5409 86.072C78.5409 85.368 78.3849 84.832 78.0729 84.464C77.7609 84.096 77.3409 83.912 76.8129 83.912C76.2849 83.912 75.8649 84.096 75.5529 84.464C75.2409 84.832 75.0849 85.368 75.0849 86.072C75.0849 86.776 75.2409 87.316 75.5529 87.692C75.8649 88.06 76.2849 88.244 76.8129 88.244ZM83.5319 89.108C82.9559 89.108 82.4559 88.984 82.0319 88.736C81.6079 88.488 81.2799 88.136 81.0479 87.68C80.8159 87.224 80.6999 86.688 80.6999 86.072C80.6999 85.456 80.8159 84.924 81.0479 84.476C81.2799 84.02 81.6079 83.668 82.0319 83.42C82.4559 83.172 82.9559 83.048 83.5319 83.048C84.1079 83.048 84.6079 83.172 85.0319 83.42C85.4559 83.668 85.7839 84.02 86.0159 84.476C86.2479 84.924 86.3639 85.456 86.3639 86.072C86.3639 86.688 86.2479 87.224 86.0159 87.68C85.7839 88.136 85.4559 88.488 85.0319 88.736C84.6079 88.984 84.1079 89.108 83.5319 89.108ZM83.5319 88.244C84.0599 88.244 84.4799 88.06 84.7919 87.692C85.1039 87.316 85.2599 86.776 85.2599 86.072C85.2599 85.368 85.1039 84.832 84.7919 84.464C84.4799 84.096 84.0599 83.912 83.5319 83.912C83.0119 83.912 82.5919 84.096 82.2719 84.464C81.9599 84.832 81.8039 85.368 81.8039 86.072C81.8039 86.776 81.9599 87.316 82.2719 87.692C82.5919 88.06 83.0119 88.244 83.5319 88.244ZM87.7627 89V83.156H88.8307V84.548H88.7107C88.8387 84.068 89.0707 83.708 89.4067 83.468C89.7427 83.22 90.1867 83.076 90.7387 83.036L91.1107 83L91.1947 83.948L90.5107 84.008C89.9827 84.064 89.5747 84.236 89.2867 84.524C89.0067 84.812 88.8667 85.208 88.8667 85.712V89H87.7627ZM94.8977 89.108C94.1857 89.108 93.6537 88.924 93.3017 88.556C92.9497 88.18 92.7737 87.644 92.7737 86.948V83.996H91.6337V83.156H92.7737V81.38H93.8657V83.156H95.7017V83.996H93.8657V86.852C93.8657 87.292 93.9577 87.624 94.1417 87.848C94.3257 88.072 94.6297 88.184 95.0537 88.184C95.1817 88.184 95.3057 88.172 95.4257 88.148C95.5537 88.116 95.6737 88.084 95.7857 88.052L95.9657 88.868C95.8537 88.94 95.6937 88.996 95.4857 89.036C95.2857 89.084 95.0897 89.108 94.8977 89.108ZM98.8624 89.108C98.3904 89.108 97.9944 89.02 97.6744 88.844C97.3624 88.668 97.1304 88.408 96.9784 88.064C96.8264 87.72 96.7504 87.288 96.7504 86.768V83.156H97.8424V86.768C97.8424 87.096 97.8864 87.368 97.9744 87.584C98.0624 87.8 98.1984 87.96 98.3824 88.064C98.5744 88.168 98.8144 88.22 99.1024 88.22C99.4224 88.22 99.7024 88.148 99.9424 88.004C100.182 87.86 100.37 87.656 100.506 87.392C100.642 87.128 100.71 86.82 100.71 86.468V83.156H101.802V89H100.734V87.68H100.89C100.73 88.144 100.47 88.5 100.11 88.748C99.7584 88.988 99.3424 89.108 98.8624 89.108ZM103.56 89V83.156H104.628V84.428H104.496C104.664 83.972 104.936 83.628 105.312 83.396C105.696 83.164 106.132 83.048 106.62 83.048C107.092 83.048 107.48 83.132 107.784 83.3C108.088 83.468 108.316 83.728 108.468 84.08C108.62 84.424 108.696 84.856 108.696 85.376V89H107.604V85.436C107.604 85.092 107.56 84.808 107.472 84.584C107.384 84.36 107.244 84.196 107.052 84.092C106.868 83.988 106.632 83.936 106.344 83.936C106.008 83.936 105.712 84.008 105.456 84.152C105.2 84.296 105 84.5 104.856 84.764C104.72 85.028 104.652 85.336 104.652 85.688V89H103.56ZM110.319 81.752V80.576H111.627V81.752H110.319ZM110.427 89V83.156H111.519V89H110.427ZM115.698 89.108C114.986 89.108 114.454 88.924 114.102 88.556C113.75 88.18 113.574 87.644 113.574 86.948V83.996H112.434V83.156H113.574V81.38H114.666V83.156H116.502V83.996H114.666V86.852C114.666 87.292 114.758 87.624 114.942 87.848C115.126 88.072 115.43 88.184 115.854 88.184C115.982 88.184 116.106 88.172 116.226 88.148C116.354 88.116 116.474 88.084 116.586 88.052L116.766 88.868C116.654 88.94 116.494 88.996 116.286 89.036C116.086 89.084 115.89 89.108 115.698 89.108ZM117.467 81.752V80.576H118.775V81.752H117.467ZM117.575 89V83.156H118.667V89H117.575ZM123.123 89.108C122.491 89.108 121.947 88.988 121.491 88.748C121.043 88.5 120.695 88.152 120.447 87.704C120.199 87.248 120.075 86.712 120.075 86.096C120.075 85.488 120.195 84.956 120.435 84.5C120.683 84.044 121.019 83.688 121.443 83.432C121.875 83.176 122.367 83.048 122.919 83.048C123.455 83.048 123.911 83.164 124.287 83.396C124.671 83.628 124.963 83.96 125.163 84.392C125.371 84.816 125.475 85.328 125.475 85.928V86.324H120.927V85.628H124.755L124.551 85.796C124.551 85.172 124.415 84.692 124.143 84.356C123.871 84.012 123.471 83.84 122.943 83.84C122.559 83.84 122.231 83.932 121.959 84.116C121.687 84.292 121.479 84.544 121.335 84.872C121.191 85.192 121.119 85.564 121.119 85.988V86.06C121.119 86.54 121.195 86.944 121.347 87.272C121.507 87.592 121.735 87.836 122.031 88.004C122.327 88.164 122.691 88.244 123.123 88.244C123.467 88.244 123.799 88.192 124.119 88.088C124.447 87.976 124.755 87.804 125.043 87.572L125.379 88.328C125.115 88.568 124.775 88.76 124.359 88.904C123.951 89.04 123.539 89.108 123.123 89.108ZM128.849 89.108C128.545 89.108 128.245 89.08 127.949 89.024C127.661 88.968 127.393 88.888 127.145 88.784C126.905 88.672 126.693 88.54 126.509 88.388L126.833 87.632C127.025 87.776 127.233 87.9 127.457 88.004C127.681 88.1 127.913 88.172 128.153 88.22C128.393 88.268 128.633 88.292 128.873 88.292C129.313 88.292 129.645 88.212 129.869 88.052C130.093 87.892 130.205 87.68 130.205 87.416C130.205 87.192 130.129 87.02 129.977 86.9C129.833 86.772 129.605 86.676 129.293 86.612L128.177 86.384C127.681 86.272 127.305 86.088 127.049 85.832C126.801 85.568 126.677 85.232 126.677 84.824C126.677 84.464 126.773 84.152 126.965 83.888C127.165 83.616 127.441 83.408 127.793 83.264C128.145 83.12 128.549 83.048 129.005 83.048C129.277 83.048 129.541 83.076 129.797 83.132C130.053 83.188 130.293 83.268 130.517 83.372C130.741 83.476 130.929 83.612 131.081 83.78L130.745 84.524C130.593 84.38 130.421 84.26 130.229 84.164C130.037 84.068 129.837 83.996 129.629 83.948C129.421 83.892 129.213 83.864 129.005 83.864C128.573 83.864 128.245 83.948 128.021 84.116C127.805 84.284 127.697 84.504 127.697 84.776C127.697 84.984 127.761 85.156 127.889 85.292C128.025 85.428 128.237 85.528 128.525 85.592L129.641 85.82C130.161 85.932 130.553 86.112 130.817 86.36C131.081 86.6 131.213 86.928 131.213 87.344C131.213 87.712 131.113 88.028 130.913 88.292C130.721 88.556 130.445 88.76 130.085 88.904C129.733 89.04 129.321 89.108 128.849 89.108ZM132.431 89V87.668H133.763V89H132.431ZM138.637 89V80.54H143.941V81.452H139.753V84.284H143.689V85.196H139.753V89H138.637ZM147.364 89.108C146.788 89.108 146.288 88.984 145.864 88.736C145.44 88.488 145.112 88.136 144.88 87.68C144.648 87.224 144.532 86.688 144.532 86.072C144.532 85.456 144.648 84.924 144.88 84.476C145.112 84.02 145.44 83.668 145.864 83.42C146.288 83.172 146.788 83.048 147.364 83.048C147.94 83.048 148.44 83.172 148.864 83.42C149.288 83.668 149.616 84.02 149.848 84.476C150.08 84.924 150.196 85.456 150.196 86.072C150.196 86.688 150.08 87.224 149.848 87.68C149.616 88.136 149.288 88.488 148.864 88.736C148.44 88.984 147.94 89.108 147.364 89.108ZM147.364 88.244C147.892 88.244 148.312 88.06 148.624 87.692C148.936 87.316 149.092 86.776 149.092 86.072C149.092 85.368 148.936 84.832 148.624 84.464C148.312 84.096 147.892 83.912 147.364 83.912C146.844 83.912 146.424 84.096 146.104 84.464C145.792 84.832 145.636 85.368 145.636 86.072C145.636 86.776 145.792 87.316 146.104 87.692C146.424 88.06 146.844 88.244 147.364 88.244ZM154.127 89.108C153.535 89.108 153.023 88.984 152.591 88.736C152.159 88.48 151.827 88.124 151.595 87.668C151.363 87.204 151.247 86.66 151.247 86.036C151.247 85.42 151.363 84.888 151.595 84.44C151.827 83.992 152.159 83.648 152.591 83.408C153.023 83.168 153.535 83.048 154.127 83.048C154.495 83.048 154.855 83.112 155.207 83.24C155.567 83.368 155.863 83.548 156.095 83.78L155.735 84.548C155.503 84.34 155.251 84.184 154.979 84.08C154.707 83.976 154.447 83.924 154.199 83.924C153.615 83.924 153.163 84.108 152.843 84.476C152.523 84.844 152.363 85.368 152.363 86.048C152.363 86.728 152.523 87.264 152.843 87.656C153.163 88.04 153.615 88.232 154.199 88.232C154.447 88.232 154.707 88.18 154.979 88.076C155.251 87.972 155.503 87.812 155.735 87.596L156.095 88.376C155.863 88.608 155.563 88.788 155.195 88.916C154.835 89.044 154.479 89.108 154.127 89.108ZM159.261 89.108C158.789 89.108 158.393 89.02 158.073 88.844C157.761 88.668 157.529 88.408 157.377 88.064C157.225 87.72 157.149 87.288 157.149 86.768V83.156H158.241V86.768C158.241 87.096 158.285 87.368 158.373 87.584C158.461 87.8 158.597 87.96 158.781 88.064C158.973 88.168 159.213 88.22 159.501 88.22C159.821 88.22 160.101 88.148 160.341 88.004C160.581 87.86 160.769 87.656 160.905 87.392C161.041 87.128 161.109 86.82 161.109 86.468V83.156H162.201V89H161.133V87.68H161.289C161.129 88.144 160.869 88.5 160.509 88.748C160.157 88.988 159.741 89.108 159.261 89.108ZM165.974 89.108C165.67 89.108 165.37 89.08 165.074 89.024C164.786 88.968 164.518 88.888 164.27 88.784C164.03 88.672 163.818 88.54 163.634 88.388L163.958 87.632C164.15 87.776 164.358 87.9 164.582 88.004C164.806 88.1 165.038 88.172 165.278 88.22C165.518 88.268 165.758 88.292 165.998 88.292C166.438 88.292 166.77 88.212 166.994 88.052C167.218 87.892 167.33 87.68 167.33 87.416C167.33 87.192 167.254 87.02 167.102 86.9C166.958 86.772 166.73 86.676 166.418 86.612L165.302 86.384C164.806 86.272 164.43 86.088 164.174 85.832C163.926 85.568 163.802 85.232 163.802 84.824C163.802 84.464 163.898 84.152 164.09 83.888C164.29 83.616 164.566 83.408 164.918 83.264C165.27 83.12 165.674 83.048 166.13 83.048C166.402 83.048 166.666 83.076 166.922 83.132C167.178 83.188 167.418 83.268 167.642 83.372C167.866 83.476 168.054 83.612 168.206 83.78L167.87 84.524C167.718 84.38 167.546 84.26 167.354 84.164C167.162 84.068 166.962 83.996 166.754 83.948C166.546 83.892 166.338 83.864 166.13 83.864C165.698 83.864 165.37 83.948 165.146 84.116C164.93 84.284 164.822 84.504 164.822 84.776C164.822 84.984 164.886 85.156 165.014 85.292C165.15 85.428 165.362 85.528 165.65 85.592L166.766 85.82C167.286 85.932 167.678 86.112 167.942 86.36C168.206 86.6 168.338 86.928 168.338 87.344C168.338 87.712 168.238 88.028 168.038 88.292C167.846 88.556 167.57 88.76 167.21 88.904C166.858 89.04 166.446 89.108 165.974 89.108ZM175.36 89.108C174.784 89.108 174.284 88.984 173.86 88.736C173.436 88.488 173.108 88.136 172.876 87.68C172.644 87.224 172.528 86.688 172.528 86.072C172.528 85.456 172.644 84.924 172.876 84.476C173.108 84.02 173.436 83.668 173.86 83.42C174.284 83.172 174.784 83.048 175.36 83.048C175.936 83.048 176.436 83.172 176.86 83.42C177.284 83.668 177.612 84.02 177.844 84.476C178.076 84.924 178.192 85.456 178.192 86.072C178.192 86.688 178.076 87.224 177.844 87.68C177.612 88.136 177.284 88.488 176.86 88.736C176.436 88.984 175.936 89.108 175.36 89.108ZM175.36 88.244C175.888 88.244 176.308 88.06 176.62 87.692C176.932 87.316 177.088 86.776 177.088 86.072C177.088 85.368 176.932 84.832 176.62 84.464C176.308 84.096 175.888 83.912 175.36 83.912C174.84 83.912 174.42 84.096 174.1 84.464C173.788 84.832 173.632 85.368 173.632 86.072C173.632 86.776 173.788 87.316 174.1 87.692C174.42 88.06 174.84 88.244 175.36 88.244ZM179.591 89V83.156H180.659V84.428H180.527C180.695 83.972 180.967 83.628 181.343 83.396C181.727 83.164 182.163 83.048 182.651 83.048C183.123 83.048 183.511 83.132 183.815 83.3C184.119 83.468 184.347 83.728 184.499 84.08C184.651 84.424 184.727 84.856 184.727 85.376V89H183.635V85.436C183.635 85.092 183.591 84.808 183.503 84.584C183.415 84.36 183.275 84.196 183.083 84.092C182.899 83.988 182.663 83.936 182.375 83.936C182.039 83.936 181.743 84.008 181.487 84.152C181.231 84.296 181.031 84.5 180.887 84.764C180.751 85.028 180.683 85.336 180.683 85.688V89H179.591ZM189.911 89V83.996H188.771V83.156H190.211L189.911 83.444V83C189.911 82.208 190.111 81.612 190.511 81.212C190.911 80.804 191.527 80.576 192.359 80.528L192.827 80.504L192.887 81.332L192.383 81.368C192.055 81.384 191.791 81.452 191.591 81.572C191.391 81.684 191.243 81.848 191.147 82.064C191.051 82.272 191.003 82.536 191.003 82.856V83.3V83.156H194.663V89H193.571V83.996H191.003V89H189.911ZM193.475 81.752V80.576H194.771V81.752H193.475ZM196.419 89V83.156H197.487V84.428H197.355C197.523 83.972 197.795 83.628 198.171 83.396C198.555 83.164 198.991 83.048 199.479 83.048C199.951 83.048 200.339 83.132 200.643 83.3C200.947 83.468 201.175 83.728 201.327 84.08C201.479 84.424 201.555 84.856 201.555 85.376V89H200.463V85.436C200.463 85.092 200.419 84.808 200.331 84.584C200.243 84.36 200.103 84.196 199.911 84.092C199.727 83.988 199.491 83.936 199.203 83.936C198.867 83.936 198.571 84.008 198.315 84.152C198.059 84.296 197.859 84.5 197.715 84.764C197.579 85.028 197.511 85.336 197.511 85.688V89H196.419ZM205.986 89.108C205.354 89.108 204.81 88.988 204.354 88.748C203.906 88.5 203.558 88.152 203.31 87.704C203.062 87.248 202.938 86.712 202.938 86.096C202.938 85.488 203.058 84.956 203.298 84.5C203.546 84.044 203.882 83.688 204.306 83.432C204.738 83.176 205.23 83.048 205.782 83.048C206.318 83.048 206.774 83.164 207.15 83.396C207.534 83.628 207.826 83.96 208.026 84.392C208.234 84.816 208.338 85.328 208.338 85.928V86.324H203.79V85.628H207.618L207.414 85.796C207.414 85.172 207.278 84.692 207.006 84.356C206.734 84.012 206.334 83.84 205.806 83.84C205.422 83.84 205.094 83.932 204.822 84.116C204.55 84.292 204.342 84.544 204.198 84.872C204.054 85.192 203.982 85.564 203.982 85.988V86.06C203.982 86.54 204.058 86.944 204.21 87.272C204.37 87.592 204.598 87.836 204.894 88.004C205.19 88.164 205.554 88.244 205.986 88.244C206.33 88.244 206.662 88.192 206.982 88.088C207.31 87.976 207.618 87.804 207.906 87.572L208.242 88.328C207.978 88.568 207.638 88.76 207.222 88.904C206.814 89.04 206.402 89.108 205.986 89.108ZM209.813 86.252V85.352H213.221V86.252H209.813ZM217.382 89.108C216.67 89.108 216.138 88.924 215.786 88.556C215.434 88.18 215.258 87.644 215.258 86.948V83.996H214.118V83.156H215.258V81.38H216.35V83.156H218.186V83.996H216.35V86.852C216.35 87.292 216.442 87.624 216.626 87.848C216.81 88.072 217.114 88.184 217.538 88.184C217.666 88.184 217.79 88.172 217.91 88.148C218.038 88.116 218.158 88.084 218.27 88.052L218.45 88.868C218.338 88.94 218.178 88.996 217.97 89.036C217.77 89.084 217.574 89.108 217.382 89.108ZM221.347 89.108C220.875 89.108 220.479 89.02 220.159 88.844C219.847 88.668 219.615 88.408 219.463 88.064C219.311 87.72 219.235 87.288 219.235 86.768V83.156H220.327V86.768C220.327 87.096 220.371 87.368 220.459 87.584C220.547 87.8 220.683 87.96 220.867 88.064C221.059 88.168 221.299 88.22 221.587 88.22C221.907 88.22 222.187 88.148 222.427 88.004C222.667 87.86 222.855 87.656 222.991 87.392C223.127 87.128 223.195 86.82 223.195 86.468V83.156H224.287V89H223.219V87.68H223.375C223.215 88.144 222.955 88.5 222.595 88.748C222.243 88.988 221.827 89.108 221.347 89.108ZM226.044 89V83.156H227.112V84.428H226.98C227.148 83.972 227.42 83.628 227.796 83.396C228.18 83.164 228.616 83.048 229.104 83.048C229.576 83.048 229.964 83.132 230.268 83.3C230.572 83.468 230.8 83.728 230.952 84.08C231.104 84.424 231.18 84.856 231.18 85.376V89H230.088V85.436C230.088 85.092 230.044 84.808 229.956 84.584C229.868 84.36 229.728 84.196 229.536 84.092C229.352 83.988 229.116 83.936 228.828 83.936C228.492 83.936 228.196 84.008 227.94 84.152C227.684 84.296 227.484 84.5 227.34 84.764C227.204 85.028 227.136 85.336 227.136 85.688V89H226.044ZM232.803 81.752V80.576H234.111V81.752H232.803ZM232.911 89V83.156H234.003V89H232.911ZM235.759 89V83.156H236.827V84.428H236.695C236.863 83.972 237.135 83.628 237.511 83.396C237.895 83.164 238.331 83.048 238.819 83.048C239.291 83.048 239.679 83.132 239.983 83.3C240.287 83.468 240.515 83.728 240.667 84.08C240.819 84.424 240.895 84.856 240.895 85.376V89H239.803V85.436C239.803 85.092 239.759 84.808 239.671 84.584C239.583 84.36 239.443 84.196 239.251 84.092C239.067 83.988 238.831 83.936 238.543 83.936C238.207 83.936 237.911 84.008 237.655 84.152C237.399 84.296 237.199 84.5 237.055 84.764C236.919 85.028 236.851 85.336 236.851 85.688V89H235.759ZM245.254 91.268C244.734 91.268 244.25 91.204 243.802 91.076C243.354 90.948 242.954 90.752 242.602 90.488L242.95 89.696C243.19 89.856 243.426 89.988 243.658 90.092C243.898 90.204 244.142 90.284 244.39 90.332C244.646 90.38 244.91 90.404 245.182 90.404C245.75 90.404 246.174 90.256 246.454 89.96C246.742 89.672 246.886 89.248 246.886 88.688V87.392H246.994C246.882 87.84 246.63 88.196 246.238 88.46C245.854 88.724 245.406 88.856 244.894 88.856C244.366 88.856 243.906 88.736 243.514 88.496C243.122 88.248 242.818 87.908 242.602 87.476C242.386 87.036 242.278 86.528 242.278 85.952C242.278 85.368 242.386 84.86 242.602 84.428C242.818 83.988 243.122 83.648 243.514 83.408C243.906 83.168 244.366 83.048 244.894 83.048C245.414 83.048 245.866 83.18 246.25 83.444C246.634 83.708 246.882 84.064 246.994 84.512H246.886V83.156H247.954V88.544C247.954 89.144 247.85 89.648 247.642 90.056C247.442 90.464 247.142 90.768 246.742 90.968C246.342 91.168 245.846 91.268 245.254 91.268ZM245.134 87.992C245.67 87.992 246.094 87.808 246.406 87.44C246.718 87.072 246.874 86.576 246.874 85.952C246.874 85.32 246.718 84.824 246.406 84.464C246.094 84.096 245.67 83.912 245.134 83.912C244.598 83.912 244.17 84.096 243.85 84.464C243.538 84.824 243.382 85.32 243.382 85.952C243.382 86.576 243.538 87.072 243.85 87.44C244.17 87.808 244.598 87.992 245.134 87.992ZM249.56 89V87.668H250.892V89H249.56Z" fill="#6D6D6D"/>
<path d="M97.332 47V41.932L97.78 43.178L93.524 37.13H96.044L98.676 40.938H98.228L100.86 37.13H103.282L99.068 43.178L99.502 41.932V47H97.332ZM105.759 47.154C105.021 47.154 104.377 47.0093 103.827 46.72C103.285 46.4307 102.865 46.0153 102.567 45.474C102.268 44.9327 102.119 44.2933 102.119 43.556C102.119 42.8187 102.268 42.184 102.567 41.652C102.865 41.12 103.285 40.7093 103.827 40.42C104.377 40.1307 105.021 39.986 105.759 39.986C106.496 39.986 107.135 40.1307 107.677 40.42C108.227 40.7093 108.652 41.1247 108.951 41.666C109.259 42.198 109.413 42.828 109.413 43.556C109.413 44.2933 109.259 44.9327 108.951 45.474C108.652 46.0153 108.227 46.4307 107.677 46.72C107.135 47.0093 106.496 47.154 105.759 47.154ZM105.759 45.572C106.216 45.572 106.585 45.4087 106.865 45.082C107.145 44.746 107.285 44.2373 107.285 43.556C107.285 42.8747 107.145 42.3753 106.865 42.058C106.585 41.7313 106.216 41.568 105.759 41.568C105.311 41.568 104.947 41.7313 104.667 42.058C104.387 42.3753 104.247 42.8747 104.247 43.556C104.247 44.2373 104.387 44.746 104.667 45.082C104.947 45.4087 105.311 45.572 105.759 45.572ZM113.233 47.154C112.654 47.154 112.173 47.0467 111.791 46.832C111.408 46.6173 111.123 46.2953 110.937 45.866C110.759 45.4273 110.671 44.886 110.671 44.242V40.126H112.785V44.298C112.785 44.5687 112.822 44.7973 112.897 44.984C112.971 45.1613 113.083 45.2967 113.233 45.39C113.391 45.474 113.592 45.516 113.835 45.516C114.105 45.516 114.343 45.4553 114.549 45.334C114.754 45.2033 114.913 45.0213 115.025 44.788C115.146 44.5547 115.207 44.2793 115.207 43.962V40.126H117.321V47H115.263V45.656H115.473C115.267 46.132 114.973 46.5007 114.591 46.762C114.208 47.0233 113.755 47.154 113.233 47.154ZM119.839 41.386L119.013 40.742C119.227 40.518 119.4 40.308 119.531 40.112C119.671 39.9067 119.769 39.706 119.825 39.51C119.89 39.314 119.923 39.104 119.923 38.88L120.413 39.37H118.831V37.13H121.099V38.572C121.099 38.9173 121.057 39.2487 120.973 39.566C120.898 39.8833 120.767 40.1913 120.581 40.49C120.403 40.7793 120.156 41.078 119.839 41.386ZM122.593 47V40.126H124.665V41.806H124.525C124.637 41.246 124.88 40.8167 125.253 40.518C125.636 40.21 126.14 40.0327 126.765 39.986L127.381 39.944L127.507 41.722L126.317 41.848C125.785 41.8947 125.389 42.0487 125.127 42.31C124.875 42.5713 124.749 42.9493 124.749 43.444V47H122.593ZM131.81 47.154C130.998 47.154 130.298 47.0093 129.71 46.72C129.131 46.4213 128.683 46.006 128.366 45.474C128.058 44.9327 127.904 44.298 127.904 43.57C127.904 42.8607 128.053 42.24 128.352 41.708C128.65 41.1667 129.066 40.7467 129.598 40.448C130.139 40.14 130.75 39.986 131.432 39.986C132.104 39.986 132.682 40.1307 133.168 40.42C133.653 40.7 134.026 41.1013 134.288 41.624C134.558 42.1467 134.694 42.7673 134.694 43.486V44.018H129.64V42.926H133.168L132.944 43.122C132.944 42.5527 132.818 42.1233 132.566 41.834C132.323 41.5353 131.973 41.386 131.516 41.386C131.17 41.386 130.876 41.4653 130.634 41.624C130.391 41.7827 130.204 42.0113 130.074 42.31C129.943 42.6087 129.878 42.968 129.878 43.388V43.5C129.878 43.976 129.948 44.368 130.088 44.676C130.237 44.9747 130.456 45.1987 130.746 45.348C131.044 45.4973 131.413 45.572 131.852 45.572C132.225 45.572 132.603 45.516 132.986 45.404C133.368 45.292 133.714 45.1193 134.022 44.886L134.582 46.3C134.236 46.5613 133.812 46.7713 133.308 46.93C132.813 47.0793 132.314 47.154 131.81 47.154ZM139.022 47.14L138.868 45.376L139.946 45.32C140.198 45.3013 140.403 45.25 140.562 45.166C140.73 45.0727 140.856 44.942 140.94 44.774C141.024 44.606 141.066 44.396 141.066 44.144V37.13H143.236V44.116C143.236 44.732 143.124 45.2547 142.9 45.684C142.685 46.104 142.358 46.4307 141.92 46.664C141.49 46.8973 140.949 47.0373 140.296 47.084L139.022 47.14ZM148.346 47.154C147.609 47.154 146.965 47.0093 146.414 46.72C145.873 46.4307 145.453 46.0153 145.154 45.474C144.856 44.9327 144.706 44.2933 144.706 43.556C144.706 42.8187 144.856 42.184 145.154 41.652C145.453 41.12 145.873 40.7093 146.414 40.42C146.965 40.1307 147.609 39.986 148.346 39.986C149.084 39.986 149.723 40.1307 150.264 40.42C150.815 40.7093 151.24 41.1247 151.538 41.666C151.846 42.198 152 42.828 152 43.556C152 44.2933 151.846 44.9327 151.538 45.474C151.24 46.0153 150.815 46.4307 150.264 46.72C149.723 47.0093 149.084 47.154 148.346 47.154ZM148.346 45.572C148.804 45.572 149.172 45.4087 149.452 45.082C149.732 44.746 149.872 44.2373 149.872 43.556C149.872 42.8747 149.732 42.3753 149.452 42.058C149.172 41.7313 148.804 41.568 148.346 41.568C147.898 41.568 147.534 41.7313 147.254 42.058C146.974 42.3753 146.834 42.8747 146.834 43.556C146.834 44.2373 146.974 44.746 147.254 45.082C147.534 45.4087 147.898 45.572 148.346 45.572ZM157.529 47.154C156.978 47.154 156.488 47.0187 156.059 46.748C155.639 46.468 155.359 46.0993 155.219 45.642H155.359V47H153.287V37.13H155.401V41.4H155.233C155.382 40.98 155.667 40.6393 156.087 40.378C156.507 40.1167 156.987 39.986 157.529 39.986C158.135 39.986 158.663 40.1307 159.111 40.42C159.559 40.7093 159.909 41.12 160.161 41.652C160.413 42.184 160.539 42.8187 160.539 43.556C160.539 44.2933 160.413 44.9327 160.161 45.474C159.909 46.0153 159.554 46.4307 159.097 46.72C158.649 47.0093 158.126 47.154 157.529 47.154ZM156.899 45.572C157.347 45.572 157.711 45.4087 157.991 45.082C158.271 44.746 158.411 44.2373 158.411 43.556C158.411 42.8747 158.271 42.3753 157.991 42.058C157.711 41.7313 157.347 41.568 156.899 41.568C156.441 41.568 156.073 41.7313 155.793 42.058C155.513 42.3753 155.373 42.8747 155.373 43.556C155.373 44.2373 155.513 44.746 155.793 45.082C156.073 45.4087 156.441 45.572 156.899 45.572ZM165.91 47V37.13H170.418C171.519 37.13 172.369 37.396 172.966 37.928C173.563 38.46 173.862 39.202 173.862 40.154C173.862 40.77 173.727 41.302 173.456 41.75C173.185 42.198 172.793 42.5433 172.28 42.786C171.776 43.0287 171.155 43.15 170.418 43.15L170.53 42.912H171.104C171.496 42.912 171.837 43.01 172.126 43.206C172.425 43.3927 172.681 43.682 172.896 44.074L174.492 47H172.098L170.39 43.85C170.297 43.682 170.189 43.5513 170.068 43.458C169.947 43.3553 169.807 43.2853 169.648 43.248C169.499 43.2013 169.331 43.178 169.144 43.178H168.08V47H165.91ZM168.08 41.61H170.026C170.605 41.61 171.039 41.4933 171.328 41.26C171.627 41.0267 171.776 40.6767 171.776 40.21C171.776 39.7527 171.627 39.4073 171.328 39.174C171.039 38.9407 170.605 38.824 170.026 38.824H168.08V41.61ZM178.855 47.154C178.043 47.154 177.343 47.0093 176.755 46.72C176.176 46.4213 175.728 46.006 175.411 45.474C175.103 44.9327 174.949 44.298 174.949 43.57C174.949 42.8607 175.098 42.24 175.397 41.708C175.695 41.1667 176.111 40.7467 176.643 40.448C177.184 40.14 177.795 39.986 178.477 39.986C179.149 39.986 179.727 40.1307 180.213 40.42C180.698 40.7 181.071 41.1013 181.333 41.624C181.603 42.1467 181.739 42.7673 181.739 43.486V44.018H176.685V42.926H180.213L179.989 43.122C179.989 42.5527 179.863 42.1233 179.611 41.834C179.368 41.5353 179.018 41.386 178.561 41.386C178.215 41.386 177.921 41.4653 177.679 41.624C177.436 41.7827 177.249 42.0113 177.119 42.31C176.988 42.6087 176.923 42.968 176.923 43.388V43.5C176.923 43.976 176.993 44.368 177.133 44.676C177.282 44.9747 177.501 45.1987 177.791 45.348C178.089 45.4973 178.458 45.572 178.897 45.572C179.27 45.572 179.648 45.516 180.031 45.404C180.413 45.292 180.759 45.1193 181.067 44.886L181.627 46.3C181.281 46.5613 180.857 46.7713 180.353 46.93C179.858 47.0793 179.359 47.154 178.855 47.154ZM185.292 47.154C184.788 47.154 184.336 47.056 183.934 46.86C183.533 46.664 183.22 46.398 182.996 46.062C182.772 45.726 182.66 45.348 182.66 44.928C182.66 44.424 182.791 44.0273 183.052 43.738C183.314 43.4393 183.738 43.2293 184.326 43.108C184.914 42.9773 185.694 42.912 186.664 42.912H187.406V44.004H186.678C186.314 44.004 186.006 44.018 185.754 44.046C185.512 44.074 185.311 44.1253 185.152 44.2C184.994 44.2653 184.877 44.3493 184.802 44.452C184.737 44.5547 184.704 44.6853 184.704 44.844C184.704 45.1053 184.793 45.32 184.97 45.488C185.157 45.656 185.423 45.74 185.768 45.74C186.039 45.74 186.277 45.6793 186.482 45.558C186.697 45.4273 186.865 45.2547 186.986 45.04C187.108 44.816 187.168 44.564 187.168 44.284V42.674C187.168 42.2633 187.075 41.974 186.888 41.806C186.702 41.6287 186.384 41.54 185.936 41.54C185.563 41.54 185.166 41.6007 184.746 41.722C184.336 41.834 183.925 42.0067 183.514 42.24L182.94 40.826C183.183 40.658 183.477 40.5133 183.822 40.392C184.177 40.2613 184.546 40.1633 184.928 40.098C185.311 40.0233 185.675 39.986 186.02 39.986C186.739 39.986 187.327 40.0933 187.784 40.308C188.251 40.5133 188.601 40.8353 188.834 41.274C189.068 41.7033 189.184 42.2587 189.184 42.94V47H187.21V45.614H187.308C187.252 45.9313 187.131 46.2067 186.944 46.44C186.767 46.664 186.538 46.8413 186.258 46.972C185.978 47.0933 185.656 47.154 185.292 47.154ZM193.435 47.154C192.838 47.154 192.311 47.0093 191.853 46.72C191.405 46.4307 191.055 46.0153 190.803 45.474C190.551 44.9327 190.425 44.2933 190.425 43.556C190.425 42.8187 190.551 42.184 190.803 41.652C191.055 41.12 191.405 40.7093 191.853 40.42C192.311 40.1307 192.838 39.986 193.435 39.986C193.977 39.986 194.453 40.1167 194.863 40.378C195.283 40.6393 195.568 40.98 195.717 41.4H195.563V37.13H197.677V47H195.605V45.642H195.731C195.601 46.0993 195.321 46.468 194.891 46.748C194.471 47.0187 193.986 47.154 193.435 47.154ZM194.065 45.572C194.523 45.572 194.891 45.4087 195.171 45.082C195.451 44.746 195.591 44.2373 195.591 43.556C195.591 42.8747 195.451 42.3753 195.171 42.058C194.891 41.7313 194.523 41.568 194.065 41.568C193.617 41.568 193.253 41.7313 192.973 42.058C192.693 42.3753 192.553 42.8747 192.553 43.556C192.553 44.2373 192.693 44.746 192.973 45.082C193.253 45.4087 193.617 45.572 194.065 45.572ZM199.838 49.52L201.35 46.202V47.07L198.326 40.126H200.552L202.498 45.054H202.05L204.052 40.126H206.152L201.994 49.52H199.838ZM207.135 43.878L206.477 37.13H209.081L208.409 43.878H207.135ZM206.645 47V44.76H208.913V47H206.645ZM210.772 43.878L210.114 37.13H212.718L212.046 43.878H210.772ZM210.282 47V44.76H212.55V47H210.282ZM214.408 43.878L213.75 37.13H216.354L215.682 43.878H214.408ZM213.918 47V44.76H216.186V47H213.918Z" fill="black"/>
<line x1="48" y1="108.5" x2="263" y2="108.5" stroke="#D9D9D9"/>
<g filter="url(#filter0_dd_2_898)">
<rect x="50" y="124" width="212" height="32.6154" rx="9.51282" fill="#146374"/>
<rect x="50" y="124" width="212" height="32.6154" rx="9.51282" fill="url(#paint0_linear_2_898)" fill-opacity="0.3"/>
<rect x="50.3397" y="124.34" width="211.321" height="31.9359" rx="9.17308" stroke="url(#paint1_linear_2_898)" stroke-width="0.679487" style="mix-blend-mode:overlay"/>
<path d="M78.0877 144.427C77.6818 144.427 77.2904 144.395 76.9135 144.329C76.5366 144.264 76.1851 144.17 75.859 144.047C75.5401 143.924 75.2574 143.779 75.011 143.612L75.5219 142.264C75.7539 142.423 76.0076 142.557 76.283 142.666C76.5584 142.775 76.8483 142.858 77.1527 142.916C77.4571 142.974 77.7688 143.003 78.0877 143.003C78.6095 143.003 78.9828 142.923 79.2075 142.764C79.4394 142.604 79.5554 142.398 79.5554 142.144C79.5554 141.999 79.5191 141.88 79.4467 141.785C79.3814 141.684 79.2691 141.597 79.1096 141.525C78.9502 141.452 78.7364 141.39 78.4682 141.34L77.2288 141.09C76.5258 140.952 76.0039 140.706 75.6633 140.35C75.3299 139.988 75.1632 139.521 75.1632 138.948C75.1632 138.455 75.2936 138.031 75.5546 137.676C75.8227 137.314 76.1924 137.031 76.6635 136.828C77.1418 136.625 77.6927 136.524 78.316 136.524C78.6711 136.524 79.0118 136.56 79.3379 136.632C79.6714 136.697 79.9758 136.792 80.2512 136.915C80.5338 137.038 80.7766 137.187 80.9796 137.361L80.4795 138.644C80.1823 138.412 79.8489 138.238 79.4793 138.122C79.1169 138.006 78.7219 137.948 78.2943 137.948C77.9971 137.948 77.7398 137.988 77.5224 138.067C77.3049 138.14 77.1382 138.249 77.0223 138.393C76.9063 138.531 76.8483 138.694 76.8483 138.883C76.8483 139.093 76.9244 139.263 77.0766 139.394C77.2288 139.517 77.497 139.618 77.8811 139.698L79.1096 139.948C79.8272 140.093 80.3635 140.336 80.7187 140.677C81.0738 141.017 81.2514 141.467 81.2514 142.025C81.2514 142.503 81.1209 142.923 80.86 143.286C80.5991 143.648 80.2331 143.931 79.7619 144.134C79.2908 144.329 78.7328 144.427 78.0877 144.427ZM85.1141 144.427C84.469 144.427 83.9146 144.315 83.4507 144.09C82.9869 143.858 82.6317 143.532 82.3853 143.112C82.1389 142.691 82.0156 142.195 82.0156 141.622C82.0156 141.079 82.1316 140.597 82.3635 140.176C82.6027 139.756 82.9325 139.426 83.3529 139.187C83.7732 138.948 84.2552 138.828 84.7988 138.828C85.3279 138.828 85.7845 138.941 86.1687 139.165C86.5528 139.383 86.85 139.698 87.0602 140.111C87.2776 140.524 87.3863 141.014 87.3863 141.579V142.003H83.3855V141.133H86.1687L86.0056 141.285C86.0056 140.836 85.9041 140.499 85.7012 140.274C85.5055 140.05 85.2264 139.937 84.864 139.937C84.5959 139.937 84.3676 139.999 84.1791 140.122C83.9907 140.238 83.8421 140.412 83.7334 140.644C83.6319 140.869 83.5812 141.144 83.5812 141.47V141.579C83.5812 141.949 83.6392 142.253 83.7551 142.492C83.8711 142.724 84.045 142.898 84.277 143.014C84.5162 143.123 84.8133 143.177 85.1685 143.177C85.4511 143.177 85.741 143.137 86.0382 143.057C86.3426 142.971 86.6108 142.84 86.8427 142.666L87.2885 143.775C87.013 143.978 86.6796 144.137 86.2883 144.253C85.8969 144.369 85.5055 144.427 85.1141 144.427ZM91.2613 144.427C90.6163 144.427 90.0618 144.315 89.5979 144.09C89.1341 143.858 88.7789 143.532 88.5325 143.112C88.2861 142.691 88.1629 142.195 88.1629 141.622C88.1629 141.079 88.2788 140.597 88.5108 140.176C88.7499 139.756 89.0797 139.426 89.5001 139.187C89.9205 138.948 90.4025 138.828 90.9461 138.828C91.4751 138.828 91.9318 138.941 92.3159 139.165C92.7 139.383 92.9972 139.698 93.2074 140.111C93.4248 140.524 93.5335 141.014 93.5335 141.579V142.003H89.5327V141.133H92.3159L92.1528 141.285C92.1528 140.836 92.0514 140.499 91.8484 140.274C91.6527 140.05 91.3737 139.937 91.0113 139.937C90.7431 139.937 90.5148 139.999 90.3264 140.122C90.1379 140.238 89.9893 140.412 89.8806 140.644C89.7791 140.869 89.7284 141.144 89.7284 141.47V141.579C89.7284 141.949 89.7864 142.253 89.9024 142.492C90.0183 142.724 90.1923 142.898 90.4242 143.014C90.6634 143.123 90.9605 143.177 91.3157 143.177C91.5984 143.177 91.8883 143.137 92.1854 143.057C92.4898 142.971 92.758 142.84 92.9899 142.666L93.4357 143.775C93.1603 143.978 92.8269 144.137 92.4355 144.253C92.0441 144.369 91.6527 144.427 91.2613 144.427ZM96.9428 144.308L100.465 136.643H101.868L105.39 144.308H103.651L102.737 142.177L103.433 142.688H98.8888L99.5738 142.177L98.6714 144.308H96.9428ZM101.139 138.437L99.7477 141.764L99.4542 141.34H102.857L102.574 141.764L101.172 138.437H101.139ZM106.006 144.308V138.948H107.604V139.97H107.517C107.619 139.731 107.753 139.528 107.92 139.361C108.094 139.194 108.297 139.064 108.529 138.97C108.768 138.875 109.029 138.828 109.311 138.828C109.724 138.828 110.069 138.93 110.344 139.133C110.627 139.328 110.826 139.622 110.942 140.013H110.833C110.986 139.658 111.225 139.372 111.551 139.155C111.884 138.937 112.268 138.828 112.703 138.828C113.116 138.828 113.457 138.912 113.725 139.078C114.001 139.245 114.207 139.499 114.345 139.839C114.483 140.173 114.552 140.6 114.552 141.122V144.308H112.888V141.166C112.888 140.811 112.83 140.553 112.714 140.394C112.598 140.227 112.403 140.144 112.127 140.144C111.917 140.144 111.732 140.195 111.573 140.296C111.42 140.39 111.304 140.532 111.225 140.72C111.145 140.901 111.105 141.122 111.105 141.383V144.308H109.442V141.166C109.442 140.811 109.384 140.553 109.268 140.394C109.152 140.227 108.96 140.144 108.692 140.144C108.474 140.144 108.289 140.195 108.137 140.296C107.985 140.398 107.869 140.539 107.789 140.72C107.71 140.901 107.67 141.122 107.67 141.383V144.308H106.006ZM118.01 144.427C117.532 144.427 117.111 144.315 116.749 144.09C116.394 143.858 116.118 143.532 115.923 143.112C115.727 142.684 115.629 142.188 115.629 141.622C115.629 141.05 115.727 140.557 115.923 140.144C116.118 139.723 116.394 139.401 116.749 139.176C117.104 138.944 117.521 138.828 117.999 138.828C118.419 138.828 118.789 138.93 119.108 139.133C119.427 139.328 119.644 139.586 119.76 139.905H119.684V136.643H121.348V144.308H119.76V143.253H119.826C119.702 143.616 119.474 143.902 119.141 144.112C118.814 144.322 118.438 144.427 118.01 144.427ZM118.51 143.166C118.872 143.166 119.162 143.039 119.38 142.786C119.597 142.525 119.706 142.137 119.706 141.622C119.706 141.101 119.597 140.713 119.38 140.459C119.162 140.205 118.869 140.079 118.499 140.079C118.144 140.079 117.854 140.205 117.629 140.459C117.412 140.713 117.303 141.101 117.303 141.622C117.303 142.137 117.412 142.525 117.629 142.786C117.854 143.039 118.148 143.166 118.51 143.166ZM124.544 144.427C124.138 144.427 123.779 144.351 123.468 144.199C123.156 144.047 122.909 143.84 122.728 143.579C122.554 143.318 122.467 143.021 122.467 142.688C122.467 142.296 122.572 141.985 122.783 141.753C122.993 141.521 123.33 141.354 123.794 141.253C124.258 141.144 124.87 141.09 125.631 141.09H126.24V141.959H125.653C125.377 141.959 125.138 141.97 124.935 141.992C124.74 142.014 124.577 142.05 124.446 142.101C124.323 142.151 124.232 142.22 124.174 142.307C124.116 142.387 124.087 142.489 124.087 142.612C124.087 142.822 124.16 142.989 124.305 143.112C124.45 143.235 124.656 143.297 124.924 143.297C125.135 143.297 125.323 143.25 125.49 143.155C125.664 143.054 125.801 142.916 125.903 142.742C126.004 142.568 126.055 142.373 126.055 142.155V140.927C126.055 140.608 125.975 140.383 125.816 140.253C125.656 140.122 125.392 140.057 125.022 140.057C124.74 140.057 124.435 140.1 124.109 140.187C123.79 140.267 123.464 140.401 123.131 140.59L122.696 139.481C122.899 139.35 123.138 139.238 123.413 139.144C123.689 139.042 123.975 138.966 124.272 138.915C124.577 138.857 124.87 138.828 125.153 138.828C125.704 138.828 126.164 138.912 126.533 139.078C126.903 139.238 127.182 139.488 127.371 139.829C127.559 140.169 127.653 140.608 127.653 141.144V144.308H126.131V143.231H126.186C126.128 143.471 126.022 143.681 125.87 143.862C125.725 144.036 125.54 144.174 125.316 144.275C125.091 144.377 124.834 144.427 124.544 144.427ZM128.97 144.308V138.948H130.558V140.263H130.482C130.576 139.836 130.768 139.502 131.058 139.263C131.355 139.017 131.743 138.875 132.221 138.839L132.754 138.807L132.862 140.242L131.895 140.329C131.482 140.372 131.174 140.499 130.971 140.709C130.768 140.919 130.666 141.213 130.666 141.59V144.308H128.97ZM133.544 137.915V136.36H135.349V137.915H133.544ZM133.621 144.308V138.948H135.295V144.308H133.621ZM139.888 144.308V136.643H143.421C144.284 136.643 144.947 136.85 145.411 137.263C145.882 137.676 146.117 138.249 146.117 138.981C146.117 139.444 146.016 139.843 145.813 140.176C145.617 140.51 145.335 140.771 144.965 140.959C144.603 141.14 144.164 141.242 143.65 141.264L143.715 141.133H144.095C144.363 141.14 144.599 141.217 144.802 141.361C145.012 141.499 145.197 141.717 145.356 142.014L146.596 144.308H144.715L143.421 141.905C143.349 141.767 143.265 141.662 143.171 141.59C143.077 141.51 142.968 141.456 142.845 141.427C142.729 141.39 142.595 141.372 142.443 141.372H141.595V144.308H139.888ZM141.595 140.122H143.139C143.581 140.122 143.91 140.035 144.128 139.861C144.353 139.68 144.465 139.408 144.465 139.046C144.465 138.691 144.353 138.426 144.128 138.252C143.91 138.071 143.581 137.98 143.139 137.98H141.595V140.122ZM150.133 144.427C149.487 144.427 148.933 144.315 148.469 144.09C148.005 143.858 147.65 143.532 147.404 143.112C147.157 142.691 147.034 142.195 147.034 141.622C147.034 141.079 147.15 140.597 147.382 140.176C147.621 139.756 147.951 139.426 148.371 139.187C148.792 138.948 149.274 138.828 149.817 138.828C150.346 138.828 150.803 138.941 151.187 139.165C151.571 139.383 151.868 139.698 152.079 140.111C152.296 140.524 152.405 141.014 152.405 141.579V142.003H148.404V141.133H151.187L151.024 141.285C151.024 140.836 150.923 140.499 150.72 140.274C150.524 140.05 150.245 139.937 149.882 139.937C149.614 139.937 149.386 139.999 149.198 140.122C149.009 140.238 148.861 140.412 148.752 140.644C148.65 140.869 148.6 141.144 148.6 141.47V141.579C148.6 141.949 148.658 142.253 148.774 142.492C148.89 142.724 149.063 142.898 149.295 143.014C149.535 143.123 149.832 143.177 150.187 143.177C150.47 143.177 150.759 143.137 151.057 143.057C151.361 142.971 151.629 142.84 151.861 142.666L152.307 143.775C152.031 143.978 151.698 144.137 151.307 144.253C150.915 144.369 150.524 144.427 150.133 144.427ZM156.062 144.427C155.482 144.427 154.975 144.311 154.54 144.079C154.113 143.847 153.779 143.521 153.54 143.101C153.301 142.681 153.181 142.184 153.181 141.612C153.181 141.039 153.301 140.546 153.54 140.133C153.779 139.713 154.113 139.39 154.54 139.165C154.975 138.941 155.486 138.828 156.073 138.828C156.436 138.828 156.791 138.883 157.139 138.991C157.487 139.093 157.773 139.234 157.998 139.415L157.53 140.59C157.349 140.445 157.142 140.332 156.91 140.253C156.678 140.166 156.457 140.122 156.247 140.122C155.812 140.122 155.475 140.253 155.236 140.513C154.997 140.767 154.877 141.137 154.877 141.622C154.877 142.094 154.997 142.463 155.236 142.731C155.475 142.999 155.812 143.134 156.247 143.134C156.457 143.134 156.678 143.094 156.91 143.014C157.142 142.927 157.349 142.811 157.53 142.666L157.998 143.829C157.773 144.011 157.483 144.156 157.128 144.264C156.78 144.373 156.425 144.427 156.062 144.427ZM161.275 144.427C160.695 144.427 160.188 144.315 159.753 144.09C159.325 143.858 158.992 143.532 158.753 143.112C158.521 142.691 158.405 142.195 158.405 141.622C158.405 141.05 158.521 140.557 158.753 140.144C158.992 139.723 159.325 139.401 159.753 139.176C160.188 138.944 160.695 138.828 161.275 138.828C161.855 138.828 162.359 138.944 162.786 139.176C163.214 139.401 163.547 139.723 163.786 140.144C164.026 140.557 164.145 141.05 164.145 141.622C164.145 142.195 164.026 142.691 163.786 143.112C163.547 143.532 163.214 143.858 162.786 144.09C162.359 144.315 161.855 144.427 161.275 144.427ZM161.275 143.155C161.637 143.155 161.927 143.028 162.145 142.775C162.362 142.514 162.471 142.13 162.471 141.622C162.471 141.108 162.362 140.724 162.145 140.47C161.927 140.216 161.637 140.089 161.275 140.089C160.913 140.089 160.619 140.216 160.394 140.47C160.177 140.724 160.068 141.108 160.068 141.622C160.068 142.13 160.177 142.514 160.394 142.775C160.619 143.028 160.913 143.155 161.275 143.155ZM165.238 144.308V138.948H166.837V139.97H166.75C166.851 139.731 166.985 139.528 167.152 139.361C167.326 139.194 167.529 139.064 167.761 138.97C168 138.875 168.261 138.828 168.543 138.828C168.957 138.828 169.301 138.93 169.576 139.133C169.859 139.328 170.058 139.622 170.174 140.013H170.066C170.218 139.658 170.457 139.372 170.783 139.155C171.116 138.937 171.501 138.828 171.935 138.828C172.349 138.828 172.689 138.912 172.957 139.078C173.233 139.245 173.439 139.499 173.577 139.839C173.715 140.173 173.784 140.6 173.784 141.122V144.308H172.12V141.166C172.12 140.811 172.062 140.553 171.946 140.394C171.83 140.227 171.635 140.144 171.359 140.144C171.149 140.144 170.964 140.195 170.805 140.296C170.653 140.39 170.537 140.532 170.457 140.72C170.377 140.901 170.337 141.122 170.337 141.383V144.308H168.674V141.166C168.674 140.811 168.616 140.553 168.5 140.394C168.384 140.227 168.192 140.144 167.924 140.144C167.706 140.144 167.522 140.195 167.369 140.296C167.217 140.398 167.101 140.539 167.021 140.72C166.942 140.901 166.902 141.122 166.902 141.383V144.308H165.238ZM175.155 144.308V138.948H176.753V139.97H176.666C176.767 139.731 176.901 139.528 177.068 139.361C177.242 139.194 177.445 139.064 177.677 138.97C177.916 138.875 178.177 138.828 178.46 138.828C178.873 138.828 179.217 138.93 179.493 139.133C179.775 139.328 179.975 139.622 180.091 140.013H179.982C180.134 139.658 180.373 139.372 180.699 139.155C181.033 138.937 181.417 138.828 181.852 138.828C182.265 138.828 182.606 138.912 182.874 139.078C183.149 139.245 183.356 139.499 183.493 139.839C183.631 140.173 183.7 140.6 183.7 141.122V144.308H182.037V141.166C182.037 140.811 181.979 140.553 181.863 140.394C181.747 140.227 181.551 140.144 181.276 140.144C181.065 140.144 180.881 140.195 180.721 140.296C180.569 140.39 180.453 140.532 180.373 140.72C180.293 140.901 180.254 141.122 180.254 141.383V144.308H178.59V141.166C178.59 140.811 178.532 140.553 178.416 140.394C178.3 140.227 178.108 140.144 177.84 140.144C177.623 140.144 177.438 140.195 177.286 140.296C177.133 140.398 177.017 140.539 176.938 140.72C176.858 140.901 176.818 141.122 176.818 141.383V144.308H175.155ZM187.876 144.427C187.231 144.427 186.676 144.315 186.213 144.09C185.749 143.858 185.394 143.532 185.147 143.112C184.901 142.691 184.777 142.195 184.777 141.622C184.777 141.079 184.893 140.597 185.125 140.176C185.365 139.756 185.694 139.426 186.115 139.187C186.535 138.948 187.017 138.828 187.561 138.828C188.09 138.828 188.546 138.941 188.93 139.165C189.315 139.383 189.612 139.698 189.822 140.111C190.039 140.524 190.148 141.014 190.148 141.579V142.003H186.147V141.133H188.93L188.767 141.285C188.767 140.836 188.666 140.499 188.463 140.274C188.267 140.05 187.988 139.937 187.626 139.937C187.358 139.937 187.129 139.999 186.941 140.122C186.752 140.238 186.604 140.412 186.495 140.644C186.394 140.869 186.343 141.144 186.343 141.47V141.579C186.343 141.949 186.401 142.253 186.517 142.492C186.633 142.724 186.807 142.898 187.039 143.014C187.278 143.123 187.575 143.177 187.93 143.177C188.213 143.177 188.503 143.137 188.8 143.057C189.104 142.971 189.373 142.84 189.605 142.666L190.05 143.775C189.775 143.978 189.441 144.137 189.05 144.253C188.659 144.369 188.267 144.427 187.876 144.427ZM191.196 144.308V138.948H192.806V139.959H192.719C192.885 139.597 193.135 139.318 193.469 139.122C193.802 138.926 194.179 138.828 194.599 138.828C195.034 138.828 195.393 138.912 195.676 139.078C195.958 139.238 196.169 139.488 196.306 139.829C196.451 140.169 196.524 140.6 196.524 141.122V144.308H194.849V141.188C194.849 140.941 194.82 140.742 194.762 140.59C194.704 140.437 194.614 140.325 194.491 140.253C194.367 140.18 194.212 140.144 194.023 140.144C193.791 140.144 193.588 140.195 193.414 140.296C193.24 140.39 193.106 140.528 193.012 140.709C192.918 140.89 192.871 141.104 192.871 141.351V144.308H191.196ZM199.962 144.427C199.484 144.427 199.064 144.315 198.701 144.09C198.346 143.858 198.071 143.532 197.875 143.112C197.679 142.684 197.582 142.188 197.582 141.622C197.582 141.05 197.679 140.557 197.875 140.144C198.071 139.723 198.346 139.401 198.701 139.176C199.056 138.944 199.473 138.828 199.952 138.828C200.372 138.828 200.742 138.93 201.061 139.133C201.379 139.328 201.597 139.586 201.713 139.905H201.637V136.643H203.3V144.308H201.713V143.253H201.778C201.655 143.616 201.427 143.902 201.093 144.112C200.767 144.322 200.39 144.427 199.962 144.427ZM200.463 143.166C200.825 143.166 201.115 143.039 201.332 142.786C201.55 142.525 201.658 142.137 201.658 141.622C201.658 141.101 201.55 140.713 201.332 140.459C201.115 140.205 200.821 140.079 200.452 140.079C200.097 140.079 199.807 140.205 199.582 140.459C199.365 140.713 199.256 141.101 199.256 141.622C199.256 142.137 199.365 142.525 199.582 142.786C199.807 143.039 200.1 143.166 200.463 143.166ZM206.496 144.427C206.091 144.427 205.732 144.351 205.42 144.199C205.108 144.047 204.862 143.84 204.681 143.579C204.507 143.318 204.42 143.021 204.42 142.688C204.42 142.296 204.525 141.985 204.735 141.753C204.945 141.521 205.282 141.354 205.746 141.253C206.21 141.144 206.823 141.09 207.584 141.09H208.192V141.959H207.605C207.33 141.959 207.091 141.97 206.888 141.992C206.692 142.014 206.529 142.05 206.399 142.101C206.275 142.151 206.185 142.22 206.127 142.307C206.069 142.387 206.04 142.489 206.04 142.612C206.04 142.822 206.112 142.989 206.257 143.112C206.402 143.235 206.609 143.297 206.877 143.297C207.087 143.297 207.276 143.25 207.442 143.155C207.616 143.054 207.754 142.916 207.855 142.742C207.957 142.568 208.008 142.373 208.008 142.155V140.927C208.008 140.608 207.928 140.383 207.768 140.253C207.609 140.122 207.344 140.057 206.975 140.057C206.692 140.057 206.388 140.1 206.062 140.187C205.743 140.267 205.416 140.401 205.083 140.59L204.648 139.481C204.851 139.35 205.09 139.238 205.366 139.144C205.641 139.042 205.927 138.966 206.225 138.915C206.529 138.857 206.823 138.828 207.105 138.828C207.656 138.828 208.116 138.912 208.486 139.078C208.856 139.238 209.135 139.488 209.323 139.829C209.512 140.169 209.606 140.608 209.606 141.144V144.308H208.084V143.231H208.138C208.08 143.471 207.975 143.681 207.823 143.862C207.678 144.036 207.493 144.174 207.268 144.275C207.044 144.377 206.786 144.427 206.496 144.427ZM213.586 144.427C212.804 144.427 212.224 144.239 211.847 143.862C211.477 143.485 211.292 142.934 211.292 142.209V140.187H210.271V138.948H211.325V137.393H212.967V138.948H214.608V140.187H212.967V142.144C212.967 142.456 213.039 142.688 213.184 142.84C213.329 142.992 213.557 143.068 213.869 143.068C213.971 143.068 214.079 143.057 214.195 143.036C214.311 143.014 214.431 142.985 214.554 142.949L214.793 144.166C214.627 144.246 214.434 144.308 214.217 144.351C214.007 144.402 213.797 144.427 213.586 144.427ZM215.423 137.915V136.36H217.227V137.915H215.423ZM215.499 144.308V138.948H217.173V144.308H215.499ZM221.123 144.427C220.543 144.427 220.036 144.315 219.601 144.09C219.173 143.858 218.84 143.532 218.601 143.112C218.369 142.691 218.253 142.195 218.253 141.622C218.253 141.05 218.369 140.557 218.601 140.144C218.84 139.723 219.173 139.401 219.601 139.176C220.036 138.944 220.543 138.828 221.123 138.828C221.703 138.828 222.207 138.944 222.634 139.176C223.062 139.401 223.395 139.723 223.634 140.144C223.874 140.557 223.993 141.05 223.993 141.622C223.993 142.195 223.874 142.691 223.634 143.112C223.395 143.532 223.062 143.858 222.634 144.09C222.207 144.315 221.703 144.427 221.123 144.427ZM221.123 143.155C221.485 143.155 221.775 143.028 221.993 142.775C222.21 142.514 222.319 142.13 222.319 141.622C222.319 141.108 222.21 140.724 221.993 140.47C221.775 140.216 221.485 140.089 221.123 140.089C220.761 140.089 220.467 140.216 220.242 140.47C220.025 140.724 219.916 141.108 219.916 141.622C219.916 142.13 220.025 142.514 220.242 142.775C220.467 143.028 220.761 143.155 221.123 143.155ZM225.065 144.308V138.948H226.674V139.959H226.587C226.753 139.597 227.003 139.318 227.337 139.122C227.67 138.926 228.047 138.828 228.468 138.828C228.902 138.828 229.261 138.912 229.544 139.078C229.827 139.238 230.037 139.488 230.174 139.829C230.319 140.169 230.392 140.6 230.392 141.122V144.308H228.718V141.188C228.718 140.941 228.689 140.742 228.631 140.59C228.573 140.437 228.482 140.325 228.359 140.253C228.236 140.18 228.08 140.144 227.891 140.144C227.659 140.144 227.456 140.195 227.283 140.296C227.109 140.39 226.974 140.528 226.88 140.709C226.786 140.89 226.739 141.104 226.739 141.351V144.308H225.065ZM233.809 144.427C233.49 144.427 233.182 144.402 232.885 144.351C232.595 144.308 232.327 144.243 232.08 144.156C231.834 144.061 231.616 143.949 231.428 143.819L231.83 142.731C232.011 142.84 232.211 142.938 232.428 143.025C232.653 143.105 232.881 143.166 233.113 143.21C233.345 143.246 233.573 143.264 233.798 143.264C234.124 143.264 234.363 143.217 234.516 143.123C234.668 143.028 234.744 142.902 234.744 142.742C234.744 142.604 234.697 142.499 234.603 142.427C234.508 142.354 234.363 142.304 234.168 142.275L233.004 142.079C232.533 141.999 232.175 141.833 231.928 141.579C231.682 141.318 231.558 140.992 231.558 140.6C231.558 140.238 231.656 139.926 231.852 139.665C232.055 139.397 232.338 139.191 232.7 139.046C233.07 138.901 233.501 138.828 233.994 138.828C234.255 138.828 234.512 138.85 234.766 138.894C235.019 138.937 235.258 139.002 235.483 139.089C235.715 139.176 235.914 139.289 236.081 139.426L235.657 140.503C235.519 140.394 235.356 140.303 235.168 140.231C234.979 140.151 234.784 140.089 234.581 140.046C234.378 140.003 234.186 139.981 234.005 139.981C233.664 139.981 233.418 140.031 233.265 140.133C233.113 140.227 233.037 140.358 233.037 140.524C233.037 140.648 233.08 140.749 233.167 140.829C233.254 140.901 233.389 140.952 233.57 140.981L234.733 141.188C235.226 141.267 235.599 141.43 235.853 141.677C236.106 141.916 236.233 142.242 236.233 142.655C236.233 143.025 236.132 143.344 235.929 143.612C235.733 143.873 235.454 144.076 235.092 144.221C234.729 144.358 234.302 144.427 233.809 144.427Z" fill="#F2F4F7"/>
</g>
<rect x="135.296" y="184" width="137.704" height="59.9526" rx="9.36759" fill="#F2F2F2"/>
<rect x="149.348" y="196.178" width="103.98" height="6.55731" rx="3.27866" fill="#D9D9D9"/>
<rect x="149.348" y="206.482" width="103.98" height="6.55731" rx="3.27866" fill="#D9D9D9"/>
<rect x="170.893" y="216.786" width="82.4348" height="6.55731" rx="3.27866" fill="#D9D9D9"/>
<rect x="196.186" y="227.091" width="57.1423" height="6.55731" rx="3.27866" fill="#D9D9D9"/>
<rect x="135.296" y="311.399" width="137.704" height="51.5217" rx="9.36759" fill="#146374"/>
<rect x="149.348" y="323.577" width="103.98" height="6.55731" rx="3.27866" fill="white"/>
<rect x="149.348" y="333.881" width="103.98" height="6.55731" rx="3.27866" fill="white"/>
<rect x="170.893" y="344.186" width="82.4348" height="6.55731" rx="3.27866" fill="white"/>
<rect x="36" y="260.814" width="137.704" height="41.2174" rx="9.36759" fill="#F2F2F2"/>
<rect x="50.0513" y="272.992" width="103.98" height="6.55731" rx="3.27866" fill="#D9D9D9"/>
<rect x="50.0513" y="283.297" width="103.98" height="6.55731" rx="3.27866" fill="#D9D9D9"/>
<rect width="262" height="67" transform="translate(24 43)" fill="white"/>
<path d="M63.332 100V94.932L63.78 96.178L59.524 90.13H62.044L64.676 93.938H64.228L66.86 90.13H69.282L65.068 96.178L65.502 94.932V100H63.332ZM71.7586 100.154C71.0212 100.154 70.3772 100.009 69.8266 99.72C69.2852 99.4307 68.8652 99.0153 68.5666 98.474C68.2679 97.9327 68.1186 97.2933 68.1186 96.556C68.1186 95.8187 68.2679 95.184 68.5666 94.652C68.8652 94.12 69.2852 93.7093 69.8266 93.42C70.3772 93.1307 71.0212 92.986 71.7586 92.986C72.4959 92.986 73.1352 93.1307 73.6766 93.42C74.2272 93.7093 74.6519 94.1247 74.9506 94.666C75.2586 95.198 75.4126 95.828 75.4126 96.556C75.4126 97.2933 75.2586 97.9327 74.9506 98.474C74.6519 99.0153 74.2272 99.4307 73.6766 99.72C73.1352 100.009 72.4959 100.154 71.7586 100.154ZM71.7586 98.572C72.2159 98.572 72.5846 98.4087 72.8646 98.082C73.1446 97.746 73.2846 97.2373 73.2846 96.556C73.2846 95.8747 73.1446 95.3753 72.8646 95.058C72.5846 94.7313 72.2159 94.568 71.7586 94.568C71.3106 94.568 70.9466 94.7313 70.6666 95.058C70.3866 95.3753 70.2466 95.8747 70.2466 96.556C70.2466 97.2373 70.3866 97.746 70.6666 98.082C70.9466 98.4087 71.3106 98.572 71.7586 98.572ZM79.2327 100.154C78.6541 100.154 78.1734 100.047 77.7907 99.832C77.4081 99.6173 77.1234 99.2953 76.9367 98.866C76.7594 98.4273 76.6707 97.886 76.6707 97.242V93.126H78.7847V97.298C78.7847 97.5687 78.8221 97.7973 78.8967 97.984C78.9714 98.1613 79.0834 98.2967 79.2327 98.39C79.3914 98.474 79.5921 98.516 79.8347 98.516C80.1054 98.516 80.3434 98.4553 80.5487 98.334C80.7541 98.2033 80.9127 98.0213 81.0247 97.788C81.1461 97.5547 81.2067 97.2793 81.2067 96.962V93.126H83.3207V100H81.2627V98.656H81.4727C81.2674 99.132 80.9734 99.5007 80.5907 99.762C80.2081 100.023 79.7554 100.154 79.2327 100.154ZM84.9565 100V93.126H87.0285V94.806H86.8885C87.0005 94.246 87.2432 93.8167 87.6165 93.518C87.9992 93.21 88.5032 93.0327 89.1285 92.986L89.7445 92.944L89.8705 94.722L88.6805 94.848C88.1485 94.8947 87.7519 95.0487 87.4905 95.31C87.2385 95.5713 87.1125 95.9493 87.1125 96.444V100H84.9565ZM94.8045 100V90.13H99.3125C100.414 90.13 101.263 90.396 101.861 90.928C102.458 91.46 102.757 92.202 102.757 93.154C102.757 93.77 102.621 94.302 102.351 94.75C102.08 95.198 101.688 95.5433 101.175 95.786C100.671 96.0287 100.05 96.15 99.3125 96.15L99.4245 95.912H99.9985C100.391 95.912 100.731 96.01 101.021 96.206C101.319 96.3927 101.576 96.682 101.791 97.074L103.387 100H100.993L99.2845 96.85C99.1912 96.682 99.0839 96.5513 98.9625 96.458C98.8412 96.3553 98.7012 96.2853 98.5425 96.248C98.3932 96.2013 98.2252 96.178 98.0385 96.178H96.9745V100H94.8045ZM96.9745 94.61H98.9205C99.4992 94.61 99.9332 94.4933 100.223 94.26C100.521 94.0267 100.671 93.6767 100.671 93.21C100.671 92.7527 100.521 92.4073 100.223 92.174C99.9332 91.9407 99.4992 91.824 98.9205 91.824H96.9745V94.61ZM107.749 100.154C106.937 100.154 106.237 100.009 105.649 99.72C105.071 99.4213 104.623 99.006 104.305 98.474C103.997 97.9327 103.843 97.298 103.843 96.57C103.843 95.8607 103.993 95.24 104.291 94.708C104.59 94.1667 105.005 93.7467 105.537 93.448C106.079 93.14 106.69 92.986 107.371 92.986C108.043 92.986 108.622 93.1307 109.107 93.42C109.593 93.7 109.966 94.1013 110.227 94.624C110.498 95.1467 110.633 95.7673 110.633 96.486V97.018H105.579V95.926H109.107L108.883 96.122C108.883 95.5527 108.757 95.1233 108.505 94.834C108.263 94.5353 107.913 94.386 107.455 94.386C107.11 94.386 106.816 94.4653 106.573 94.624C106.331 94.7827 106.144 95.0113 106.013 95.31C105.883 95.6087 105.817 95.968 105.817 96.388V96.5C105.817 96.976 105.887 97.368 106.027 97.676C106.177 97.9747 106.396 98.1987 106.685 98.348C106.984 98.4973 107.353 98.572 107.791 98.572C108.165 98.572 108.543 98.516 108.925 98.404C109.308 98.292 109.653 98.1193 109.961 97.886L110.521 99.3C110.176 99.5613 109.751 99.7713 109.247 99.93C108.753 100.079 108.253 100.154 107.749 100.154ZM114.495 100.154C114.093 100.154 113.706 100.121 113.333 100.056C112.959 99.9907 112.619 99.902 112.311 99.79C112.003 99.678 111.732 99.538 111.499 99.37L112.003 97.998C112.236 98.138 112.488 98.264 112.759 98.376C113.039 98.4787 113.328 98.558 113.627 98.614C113.925 98.67 114.219 98.698 114.509 98.698C114.91 98.698 115.199 98.6373 115.377 98.516C115.563 98.3853 115.657 98.2173 115.657 98.012C115.657 97.8253 115.596 97.6853 115.475 97.592C115.353 97.4987 115.176 97.4333 114.943 97.396L113.473 97.13C112.894 97.0273 112.446 96.8173 112.129 96.5C111.821 96.1733 111.667 95.758 111.667 95.254C111.667 94.7873 111.797 94.386 112.059 94.05C112.32 93.7047 112.679 93.4433 113.137 93.266C113.603 93.0793 114.131 92.986 114.719 92.986C115.055 92.986 115.381 93.014 115.699 93.07C116.016 93.126 116.315 93.21 116.595 93.322C116.884 93.434 117.141 93.5833 117.365 93.77L116.833 95.128C116.655 94.988 116.445 94.8667 116.203 94.764C115.96 94.6613 115.713 94.582 115.461 94.526C115.209 94.4607 114.971 94.428 114.747 94.428C114.327 94.428 114.023 94.498 113.837 94.638C113.65 94.7687 113.557 94.9367 113.557 95.142C113.557 95.3007 113.608 95.436 113.711 95.548C113.823 95.6507 113.991 95.7207 114.215 95.758L115.685 96.024C116.291 96.1267 116.753 96.332 117.071 96.64C117.388 96.9387 117.547 97.3493 117.547 97.872C117.547 98.348 117.421 98.7587 117.169 99.104C116.917 99.44 116.562 99.7013 116.105 99.888C115.647 100.065 115.111 100.154 114.495 100.154ZM121.287 100.154C120.709 100.154 120.228 100.047 119.845 99.832C119.463 99.6173 119.178 99.2953 118.991 98.866C118.814 98.4273 118.725 97.886 118.725 97.242V93.126H120.839V97.298C120.839 97.5687 120.877 97.7973 120.951 97.984C121.026 98.1613 121.138 98.2967 121.287 98.39C121.446 98.474 121.647 98.516 121.889 98.516C122.16 98.516 122.398 98.4553 122.603 98.334C122.809 98.2033 122.967 98.0213 123.079 97.788C123.201 97.5547 123.261 97.2793 123.261 96.962V93.126H125.375V100H123.317V98.656H123.527C123.322 99.132 123.028 99.5007 122.645 99.762C122.263 100.023 121.81 100.154 121.287 100.154ZM129.573 100.154C128.687 100.154 128.038 99.9253 127.627 99.468C127.217 99.0013 127.011 98.3107 127.011 97.396V90.13H129.125V97.312C129.125 97.5453 129.163 97.7507 129.237 97.928C129.312 98.096 129.419 98.222 129.559 98.306C129.709 98.39 129.895 98.432 130.119 98.432C130.213 98.432 130.311 98.4273 130.413 98.418C130.516 98.4087 130.614 98.39 130.707 98.362L130.679 100C130.502 100.047 130.32 100.084 130.133 100.112C129.956 100.14 129.769 100.154 129.573 100.154ZM134.842 100.154C133.862 100.154 133.134 99.916 132.658 99.44C132.182 98.964 131.944 98.264 131.944 97.34V94.708H130.642V93.126H131.944V91.11H134.058V93.126H136.088V94.708H134.058V97.256C134.058 97.648 134.147 97.942 134.324 98.138C134.511 98.334 134.805 98.432 135.206 98.432C135.328 98.432 135.454 98.418 135.584 98.39C135.724 98.362 135.874 98.3247 136.032 98.278L136.34 99.818C136.144 99.9207 135.911 100 135.64 100.056C135.37 100.121 135.104 100.154 134.842 100.154Z" fill="black"/>
<path d="M41.48 63.1C41.2267 63.1 40.9733 63.07 40.72 63.01C40.4733 62.95 40.2367 62.8633 40.01 62.75C39.79 62.63 39.5867 62.4833 39.4 62.31L39.84 61.34C40.0933 61.5733 40.3567 61.7433 40.63 61.85C40.91 61.95 41.1967 62 41.49 62C41.7767 62 42.0333 61.95 42.26 61.85C42.4867 61.7433 42.6767 61.59 42.83 61.39C42.9833 61.1833 43.1 60.93 43.18 60.63C43.26 60.3233 43.3 59.9733 43.3 59.58V58.98H43.35C43.2967 59.2867 43.1833 59.5533 43.01 59.78C42.8367 60 42.6233 60.1667 42.37 60.28C42.1167 60.3933 41.83 60.45 41.51 60.45C41.11 60.45 40.75 60.3567 40.43 60.17C40.1167 59.9767 39.8667 59.7133 39.68 59.38C39.5 59.04 39.41 58.65 39.41 58.21C39.41 57.75 39.51 57.3433 39.71 56.99C39.91 56.6367 40.1867 56.36 40.54 56.16C40.8933 55.9533 41.2967 55.85 41.75 55.85C42.3433 55.85 42.8433 55.9867 43.25 56.26C43.6633 56.5333 43.9733 56.9333 44.18 57.46C44.3933 57.98 44.5 58.6133 44.5 59.36C44.5 60.1467 44.38 60.82 44.14 61.38C43.9 61.94 43.5533 62.3667 43.1 62.66C42.6533 62.9533 42.1133 63.1 41.48 63.1ZM41.83 59.42C42.07 59.42 42.28 59.37 42.46 59.27C42.6467 59.1633 42.79 59.0133 42.89 58.82C42.99 58.6267 43.04 58.4067 43.04 58.16C43.04 57.9067 42.99 57.6867 42.89 57.5C42.79 57.3067 42.6467 57.1567 42.46 57.05C42.28 56.9433 42.0667 56.89 41.82 56.89C41.58 56.89 41.37 56.9433 41.19 57.05C41.01 57.1567 40.8667 57.3067 40.76 57.5C40.66 57.6867 40.61 57.9067 40.61 58.16C40.61 58.4067 40.66 58.6267 40.76 58.82C40.8667 59.0133 41.01 59.1633 41.19 59.27C41.37 59.37 41.5833 59.42 41.83 59.42ZM45.5761 59.47V58.06H47.0661V59.47H45.5761ZM45.5761 63V61.59H47.0661V63H45.5761ZM51.1728 63V61.67H48.0528V60.72L51.2628 55.95H52.4328V60.61H53.3828V61.67H52.4328V63H51.1728ZM51.1928 60.61V57.51H51.3628L49.1128 60.89L49.0528 60.61H51.1928ZM54.6089 63V61.91H56.3089V57.03L56.9489 57.07L54.9889 58.26L54.4589 57.29L56.6789 55.95H57.6089V61.91H59.1889V63H54.6089Z" fill="black"/>
<rect x="36" y="88" width="17" height="16" rx="4" fill="#F2F3F5"/>
<path d="M46.5 99.3462L45.9051 100L42.6648 96.4367C42.6126 96.3796 42.5711 96.3117 42.5428 96.2369C42.5146 96.1621 42.5 96.0819 42.5 96.0009C42.5 95.9199 42.5146 95.8397 42.5428 95.7649C42.5711 95.6901 42.6126 95.6222 42.6648 95.5652L45.9051 92L46.4994 92.6538L43.4582 96L46.5 99.3462Z" fill="black"/>
<path d="M264.072 56H254.428C253.639 56 253 56.6394 253 57.4281V61.5719C253 62.3606 253.639 63 254.428 63H264.072C264.861 63 265.5 62.3606 265.5 61.5719V57.4281C265.5 56.6394 264.861 56 264.072 56Z" stroke="black" stroke-miterlimit="10" stroke-linecap="square"/>
<path d="M263.697 57.7166H254.803C254.734 57.7166 254.678 57.7725 254.678 57.8416V61.1584C254.678 61.2275 254.734 61.2834 254.803 61.2834H263.697C263.766 61.2834 263.822 61.2275 263.822 61.1584V57.8416C263.822 57.7725 263.766 57.7166 263.697 57.7166Z" fill="black" stroke="black" stroke-miterlimit="10" stroke-linecap="square"/>
<path d="M267 58.3335V60.6666" stroke="black" stroke-miterlimit="10" stroke-linecap="round"/>
<path d="M218 64.0625V60.9375C218 60.6771 218.09 60.4558 218.271 60.2737C218.452 60.0917 218.671 60.0004 218.929 60C219.186 59.9996 219.405 60.0908 219.587 60.2737C219.768 60.4567 219.858 60.6779 219.857 60.9375V64.0625C219.857 64.3229 219.767 64.5444 219.587 64.7269C219.406 64.9094 219.187 65.0004 218.929 65C218.67 64.9996 218.451 64.9085 218.271 64.7269C218.091 64.5452 218.001 64.3237 218 64.0625ZM221.714 64.0625V59.375C221.714 59.1146 221.805 58.8933 221.985 58.7113C222.166 58.5292 222.385 58.4379 222.643 58.4375C222.9 58.4371 223.12 58.5283 223.301 58.7113C223.482 58.8942 223.572 59.1154 223.571 59.375V64.0625C223.571 64.3229 223.481 64.5444 223.301 64.7269C223.121 64.9094 222.901 65.0004 222.643 65C222.385 64.9996 222.165 64.9085 221.985 64.7269C221.805 64.5452 221.715 64.3237 221.714 64.0625ZM225.429 64.0625V57.8125C225.429 57.5521 225.519 57.3308 225.7 57.1488C225.88 56.9667 226.1 56.8754 226.357 56.875C226.615 56.8746 226.834 56.9658 227.015 57.1488C227.196 57.3317 227.287 57.5529 227.286 57.8125V64.0625C227.286 64.3229 227.196 64.5444 227.015 64.7269C226.835 64.9094 226.615 65.0004 226.357 65C226.099 64.9996 225.88 64.9085 225.7 64.7269C225.52 64.5452 225.429 64.3237 225.429 64.0625ZM229.143 64.0625V55.9375C229.143 55.6771 229.233 55.4558 229.414 55.2738C229.595 55.0917 229.814 55.0004 230.071 55C230.329 54.9996 230.548 55.0908 230.729 55.2738C230.911 55.4567 231.001 55.6779 231 55.9375V64.0625C231 64.3229 230.91 64.5444 230.729 64.7269C230.549 64.9094 230.33 65.0004 230.071 65C229.813 64.9996 229.594 64.9085 229.414 64.7269C229.234 64.5452 229.144 64.3237 229.143 64.0625Z" fill="black"/>
<path d="M242 61.5625C241.611 61.5625 241.233 61.6146 240.865 61.7187C240.497 61.8229 240.149 61.9792 239.822 62.1875C239.638 62.3021 239.439 62.3569 239.224 62.3519C239.01 62.3469 238.826 62.266 238.672 62.1094C238.519 61.9527 238.447 61.7704 238.458 61.5625C238.468 61.3546 238.56 61.1879 238.734 61.0625C239.214 60.7187 239.73 60.4556 240.282 60.2731C240.834 60.0906 241.407 59.9996 242 60C242.593 60.0004 243.165 60.0917 243.717 60.2737C244.269 60.4558 244.785 60.7187 245.266 61.0625C245.44 61.1875 245.532 61.3542 245.542 61.5625C245.552 61.7708 245.48 61.9531 245.327 62.1094C245.174 62.2656 244.99 62.3464 244.775 62.3519C244.56 62.3573 244.361 62.3025 244.177 62.1875C243.85 61.9792 243.502 61.8229 243.134 61.7187C242.766 61.6146 242.388 61.5625 242 61.5625ZM242 56.5625C240.957 56.5625 239.953 56.7396 238.986 57.0937C238.02 57.4479 237.139 57.9531 236.342 58.6094C236.168 58.7552 235.976 58.8256 235.767 58.8206C235.558 58.8156 235.376 58.7348 235.222 58.5781C235.069 58.4215 234.995 58.2367 235 58.0237C235.006 57.8108 235.09 57.631 235.253 57.4844C236.204 56.6719 237.257 56.0548 238.412 55.6331C239.567 55.2115 240.763 55.0004 242 55C243.237 54.9996 244.433 55.2106 245.588 55.6331C246.743 56.0556 247.796 56.6727 248.746 57.4844C248.91 57.6302 248.994 57.81 249 58.0237C249.005 58.2375 248.931 58.4223 248.777 58.5781C248.623 58.734 248.442 58.8148 248.232 58.8206C248.023 58.8265 247.832 58.756 247.658 58.6094C246.86 57.9531 245.979 57.4479 245.013 57.0937C244.047 56.7396 243.043 56.5625 242 56.5625ZM242 59.0625C241.284 59.0625 240.594 59.1746 239.93 59.3987C239.265 59.6229 238.647 59.9535 238.074 60.3906C237.901 60.526 237.709 60.5912 237.5 60.5862C237.29 60.5812 237.109 60.5004 236.955 60.3437C236.812 60.1875 236.743 60.0052 236.748 59.7969C236.754 59.5885 236.838 59.4167 237.001 59.2812C237.717 58.6979 238.501 58.2552 239.355 57.9531C240.209 57.651 241.095 57.5 242.015 57.5C242.935 57.5 243.819 57.651 244.668 57.9531C245.517 58.2552 246.299 58.6927 247.014 59.2656C247.177 59.401 247.264 59.5756 247.274 59.7894C247.285 60.0031 247.213 60.1879 247.06 60.3437C246.906 60.4996 246.722 60.5804 246.508 60.5862C246.293 60.5921 246.099 60.5269 245.925 60.3906C245.353 59.9531 244.732 59.6223 244.062 59.3981C243.393 59.174 242.705 59.0621 242 59.0625ZM242 65C241.662 65 241.374 64.8777 241.134 64.6331C240.894 64.3885 240.773 64.0942 240.773 63.75C240.773 63.4058 240.893 63.1117 241.134 62.8675C241.375 62.6233 241.663 62.5008 242 62.5C242.336 62.4992 242.625 62.6217 242.866 62.8675C243.108 63.1133 243.228 63.4075 243.226 63.75C243.225 64.0925 243.105 64.3869 242.866 64.6331C242.628 64.8794 242.339 65.0016 242 65Z" fill="black"/>
<path d="M257 317C262.523 317 267 312.523 267 307C267 301.477 262.523 297 257 297C251.477 297 247 301.477 247 307C247 312.523 251.477 317 257 317Z" fill="#FFF59D"/>
<path d="M263.5 307C263.5 303.15 260.2 300.1 256.25 300.55C253.25 300.9 250.85 303.3 250.55 306.3C250.3 308.6 251.25 310.65 252.85 311.95C253.55 312.55 254 313.4 254 314.35V314.5H260V314.45C260 313.55 260.4 312.65 261.1 312.05C262.55 310.85 263.5 309.05 263.5 307Z" fill="#FBC02D"/>
<path d="M260.3 306.1L258.8 305.1C258.65 305 258.4 305 258.25 305.1L257 305.9L255.8 305.1C255.65 305 255.4 305 255.25 305.1L253.75 306.1C253.65 306.2 253.55 306.3 253.55 306.45C253.55 306.6 253.55 306.75 253.65 306.85L255.55 309.2V314.5H256.55V309C256.55 308.9 256.5 308.8 256.45 308.7L254.8 306.65L255.55 306.15L256.75 306.95C256.9 307.05 257.15 307.05 257.3 306.95L258.5 306.15L259.25 306.65L257.6 308.7C257.55 308.8 257.5 308.9 257.5 309V314.5H258.5V309.2L260.4 306.85C260.5 306.75 260.55 306.6 260.5 306.45C260.45 306.3 260.4 306.15 260.3 306.1Z" fill="#FFF59D"/>
<path d="M257 319.5C257.828 319.5 258.5 318.828 258.5 318C258.5 317.172 257.828 316.5 257 316.5C256.172 316.5 255.5 317.172 255.5 318C255.5 318.828 256.172 319.5 257 319.5Z" fill="#5C6BC0"/>
<path d="M258 318.5H256C254.9 318.5 254 317.6 254 316.5V314H260V316.5C260 317.6 259.1 318.5 258 318.5Z" fill="#9FA8DA"/>
<path d="M260 316.5L254.2 317.3C254.35 317.65 254.65 318 255 318.2L259.7 317.55C259.9 317.25 260 316.9 260 316.5ZM254 315.35V316.35L260 315.5V314.5L254 315.35Z" fill="#5C6BC0"/>
</g>
</g>
<defs>
<filter id="filter0_dd_2_898" x="40.3513" y="117.069" width="231.297" height="51.9128" filterUnits="userSpaceOnUse" color-interpolation-filters="sRGB">
<feFlood flood-opacity="0" result="BackgroundImageFix"/>
<feColorMatrix in="SourceAlpha" type="matrix" values="0 0 0 0 0 0 0 0 0 0 0 0 0 0 0 0 0 0 127 0" result="hardAlpha"/>
<feMorphology radius="0.679487" operator="dilate" in="SourceAlpha" result="effect1_dropShadow_2_898"/>
<feOffset/>
<feComposite in2="hardAlpha" operator="out"/>
<feColorMatrix type="matrix" values="0 0 0 0 0.0784314 0 0 0 0 0.388235 0 0 0 0 0.454902 0 0 0 0.25 0"/>
<feBlend mode="normal" in2="BackgroundImageFix" result="effect1_dropShadow_2_898"/>
<feColorMatrix in="SourceAlpha" type="matrix" values="0 0 0 0 0 0 0 0 0 0 0 0 0 0 0 0 0 0 127 0" result="hardAlpha"/>
<feOffset dy="2.71795"/>
<feGaussianBlur stdDeviation="4.82436"/>
<feComposite in2="hardAlpha" operator="out"/>
<feColorMatrix type="matrix" values="0 0 0 0 0.0784314 0 0 0 0 0.388235 0 0 0 0 0.454902 0 0 0 0.25 0"/>
<feBlend mode="normal" in2="effect1_dropShadow_2_898" result="effect2_dropShadow_2_898"/>
<feBlend mode="normal" in="SourceGraphic" in2="effect2_dropShadow_2_898" result="shape"/>
</filter>
<linearGradient id="paint0_linear_2_898" x1="156" y1="124" x2="156" y2="156.615" gradientUnits="userSpaceOnUse">
<stop stop-color="white" stop-opacity="0.8"/>
<stop offset="1" stop-color="white" stop-opacity="0"/>
</linearGradient>
<linearGradient id="paint1_linear_2_898" x1="156" y1="117.205" x2="156" y2="129.096" gradientUnits="userSpaceOnUse">
<stop stop-color="white"/>
<stop offset="1" stop-color="white" stop-opacity="0"/>
</linearGradient>
<clipPath id="clip0_2_898">
<rect width="305" height="372" rx="24" fill="white"/>
</clipPath>
<clipPath id="clip1_2_898">
<rect x="24" y="43" width="262" height="572" rx="28" fill="white"/>
</clipPath>
</defs>
</svg>
