<svg width="305" height="372" viewBox="0 0 305 372" fill="none" xmlns="http://www.w3.org/2000/svg">
<g clip-path="url(#clip0_2_854)">
<rect width="305" height="372" rx="24" fill="#F4F4F4"/>
<rect x="14" y="35" width="278" height="591" rx="36" fill="#D9D9D9" fill-opacity="0.17"/>
<g clip-path="url(#clip1_2_854)">
<rect x="24" y="43" width="262" height="572" rx="28" fill="white"/>
<rect x="17.5" y="37.5" width="275" height="72" fill="white"/>
<rect x="17.5" y="37.5" width="275" height="72" stroke="#EBEBEB"/>
<path d="M63.332 100V94.932L63.78 96.178L59.524 90.13H62.044L64.676 93.938H64.228L66.86 90.13H69.282L65.068 96.178L65.502 94.932V100H63.332ZM71.7586 100.154C71.0212 100.154 70.3772 100.009 69.8266 99.72C69.2852 99.4307 68.8652 99.0153 68.5666 98.474C68.2679 97.9327 68.1186 97.2933 68.1186 96.556C68.1186 95.8187 68.2679 95.184 68.5666 94.652C68.8652 94.12 69.2852 93.7093 69.8266 93.42C70.3772 93.1307 71.0212 92.986 71.7586 92.986C72.4959 92.986 73.1352 93.1307 73.6766 93.42C74.2272 93.7093 74.6519 94.1247 74.9506 94.666C75.2586 95.198 75.4126 95.828 75.4126 96.556C75.4126 97.2933 75.2586 97.9327 74.9506 98.474C74.6519 99.0153 74.2272 99.4307 73.6766 99.72C73.1352 100.009 72.4959 100.154 71.7586 100.154ZM71.7586 98.572C72.2159 98.572 72.5846 98.4087 72.8646 98.082C73.1446 97.746 73.2846 97.2373 73.2846 96.556C73.2846 95.8747 73.1446 95.3753 72.8646 95.058C72.5846 94.7313 72.2159 94.568 71.7586 94.568C71.3106 94.568 70.9466 94.7313 70.6666 95.058C70.3866 95.3753 70.2466 95.8747 70.2466 96.556C70.2466 97.2373 70.3866 97.746 70.6666 98.082C70.9466 98.4087 71.3106 98.572 71.7586 98.572ZM79.2327 100.154C78.6541 100.154 78.1734 100.047 77.7907 99.832C77.4081 99.6173 77.1234 99.2953 76.9367 98.866C76.7594 98.4273 76.6707 97.886 76.6707 97.242V93.126H78.7847V97.298C78.7847 97.5687 78.8221 97.7973 78.8967 97.984C78.9714 98.1613 79.0834 98.2967 79.2327 98.39C79.3914 98.474 79.5921 98.516 79.8347 98.516C80.1054 98.516 80.3434 98.4553 80.5487 98.334C80.7541 98.2033 80.9127 98.0213 81.0247 97.788C81.1461 97.5547 81.2067 97.2793 81.2067 96.962V93.126H83.3207V100H81.2627V98.656H81.4727C81.2674 99.132 80.9734 99.5007 80.5907 99.762C80.2081 100.023 79.7554 100.154 79.2327 100.154ZM84.9565 100V93.126H87.0285V94.806H86.8885C87.0005 94.246 87.2432 93.8167 87.6165 93.518C87.9992 93.21 88.5032 93.0327 89.1285 92.986L89.7445 92.944L89.8705 94.722L88.6805 94.848C88.1485 94.8947 87.7519 95.0487 87.4905 95.31C87.2385 95.5713 87.1125 95.9493 87.1125 96.444V100H84.9565ZM94.8045 100V90.13H99.3125C100.414 90.13 101.263 90.396 101.861 90.928C102.458 91.46 102.757 92.202 102.757 93.154C102.757 93.77 102.621 94.302 102.351 94.75C102.08 95.198 101.688 95.5433 101.175 95.786C100.671 96.0287 100.05 96.15 99.3125 96.15L99.4245 95.912H99.9985C100.391 95.912 100.731 96.01 101.021 96.206C101.319 96.3927 101.576 96.682 101.791 97.074L103.387 100H100.993L99.2845 96.85C99.1912 96.682 99.0839 96.5513 98.9625 96.458C98.8412 96.3553 98.7012 96.2853 98.5425 96.248C98.3932 96.2013 98.2252 96.178 98.0385 96.178H96.9745V100H94.8045ZM96.9745 94.61H98.9205C99.4992 94.61 99.9332 94.4933 100.223 94.26C100.521 94.0267 100.671 93.6767 100.671 93.21C100.671 92.7527 100.521 92.4073 100.223 92.174C99.9332 91.9407 99.4992 91.824 98.9205 91.824H96.9745V94.61ZM107.483 100.154C106.746 100.154 106.102 100.009 105.551 99.72C105.01 99.4307 104.59 99.0153 104.291 98.474C103.993 97.9327 103.843 97.2933 103.843 96.556C103.843 95.8187 103.993 95.184 104.291 94.652C104.59 94.12 105.01 93.7093 105.551 93.42C106.102 93.1307 106.746 92.986 107.483 92.986C108.221 92.986 108.86 93.1307 109.401 93.42C109.952 93.7093 110.377 94.1247 110.675 94.666C110.983 95.198 111.137 95.828 111.137 96.556C111.137 97.2933 110.983 97.9327 110.675 98.474C110.377 99.0153 109.952 99.4307 109.401 99.72C108.86 100.009 108.221 100.154 107.483 100.154ZM107.483 98.572C107.941 98.572 108.309 98.4087 108.589 98.082C108.869 97.746 109.009 97.2373 109.009 96.556C109.009 95.8747 108.869 95.3753 108.589 95.058C108.309 94.7313 107.941 94.568 107.483 94.568C107.035 94.568 106.671 94.7313 106.391 95.058C106.111 95.3753 105.971 95.8747 105.971 96.556C105.971 97.2373 106.111 97.746 106.391 98.082C106.671 98.4087 107.035 98.572 107.483 98.572ZM114.747 100.154C114.243 100.154 113.791 100.056 113.389 99.86C112.988 99.664 112.675 99.398 112.451 99.062C112.227 98.726 112.115 98.348 112.115 97.928C112.115 97.424 112.246 97.0273 112.507 96.738C112.769 96.4393 113.193 96.2293 113.781 96.108C114.369 95.9773 115.149 95.912 116.119 95.912H116.861V97.004H116.133C115.769 97.004 115.461 97.018 115.209 97.046C114.967 97.074 114.766 97.1253 114.607 97.2C114.449 97.2653 114.332 97.3493 114.257 97.452C114.192 97.5547 114.159 97.6853 114.159 97.844C114.159 98.1053 114.248 98.32 114.425 98.488C114.612 98.656 114.878 98.74 115.223 98.74C115.494 98.74 115.732 98.6793 115.937 98.558C116.152 98.4273 116.32 98.2547 116.441 98.04C116.563 97.816 116.623 97.564 116.623 97.284V95.674C116.623 95.2633 116.53 94.974 116.343 94.806C116.157 94.6287 115.839 94.54 115.391 94.54C115.018 94.54 114.621 94.6007 114.201 94.722C113.791 94.834 113.38 95.0067 112.969 95.24L112.395 93.826C112.638 93.658 112.932 93.5133 113.277 93.392C113.632 93.2613 114.001 93.1633 114.383 93.098C114.766 93.0233 115.13 92.986 115.475 92.986C116.194 92.986 116.782 93.0933 117.239 93.308C117.706 93.5133 118.056 93.8353 118.289 94.274C118.523 94.7033 118.639 95.2587 118.639 95.94V100H116.665V98.614H116.763C116.707 98.9313 116.586 99.2067 116.399 99.44C116.222 99.664 115.993 99.8413 115.713 99.972C115.433 100.093 115.111 100.154 114.747 100.154ZM122.89 100.154C122.293 100.154 121.766 100.009 121.308 99.72C120.86 99.4307 120.51 99.0153 120.258 98.474C120.006 97.9327 119.88 97.2933 119.88 96.556C119.88 95.8187 120.006 95.184 120.258 94.652C120.51 94.12 120.86 93.7093 121.308 93.42C121.766 93.1307 122.293 92.986 122.89 92.986C123.432 92.986 123.908 93.1167 124.318 93.378C124.738 93.6393 125.023 93.98 125.172 94.4H125.018V90.13H127.132V100H125.06V98.642H125.186C125.056 99.0993 124.776 99.468 124.346 99.748C123.926 100.019 123.441 100.154 122.89 100.154ZM123.52 98.572C123.978 98.572 124.346 98.4087 124.626 98.082C124.906 97.746 125.046 97.2373 125.046 96.556C125.046 95.8747 124.906 95.3753 124.626 95.058C124.346 94.7313 123.978 94.568 123.52 94.568C123.072 94.568 122.708 94.7313 122.428 95.058C122.148 95.3753 122.008 95.8747 122.008 96.556C122.008 97.2373 122.148 97.746 122.428 98.082C122.708 98.4087 123.072 98.572 123.52 98.572ZM128.789 100V93.126H130.861V94.414H130.707C130.829 94.1247 130.997 93.8727 131.211 93.658C131.426 93.4433 131.683 93.28 131.981 93.168C132.28 93.0467 132.607 92.986 132.961 92.986C133.493 92.986 133.937 93.112 134.291 93.364C134.646 93.616 134.898 94.0033 135.047 94.526H134.851C135.057 94.05 135.369 93.6767 135.789 93.406C136.219 93.126 136.709 92.986 137.259 92.986C137.791 92.986 138.225 93.0933 138.561 93.308C138.907 93.5133 139.163 93.8307 139.331 94.26C139.499 94.68 139.583 95.2167 139.583 95.87V100H137.469V95.94C137.469 95.4827 137.395 95.1513 137.245 94.946C137.105 94.7313 136.863 94.624 136.517 94.624C136.256 94.624 136.027 94.6893 135.831 94.82C135.635 94.9413 135.486 95.1233 135.383 95.366C135.29 95.5993 135.243 95.8887 135.243 96.234V100H133.129V95.94C133.129 95.4827 133.055 95.1513 132.905 94.946C132.765 94.7313 132.523 94.624 132.177 94.624C131.907 94.624 131.678 94.6893 131.491 94.82C131.305 94.9413 131.16 95.1233 131.057 95.366C130.955 95.5993 130.903 95.8887 130.903 96.234V100H128.789ZM143.527 100.154C143.023 100.154 142.57 100.056 142.169 99.86C141.767 99.664 141.455 99.398 141.231 99.062C141.007 98.726 140.895 98.348 140.895 97.928C140.895 97.424 141.025 97.0273 141.287 96.738C141.548 96.4393 141.973 96.2293 142.561 96.108C143.149 95.9773 143.928 95.912 144.899 95.912H145.641V97.004H144.913C144.549 97.004 144.241 97.018 143.989 97.046C143.746 97.074 143.545 97.1253 143.387 97.2C143.228 97.2653 143.111 97.3493 143.037 97.452C142.971 97.5547 142.939 97.6853 142.939 97.844C142.939 98.1053 143.027 98.32 143.205 98.488C143.391 98.656 143.657 98.74 144.003 98.74C144.273 98.74 144.511 98.6793 144.717 98.558C144.931 98.4273 145.099 98.2547 145.221 98.04C145.342 97.816 145.403 97.564 145.403 97.284V95.674C145.403 95.2633 145.309 94.974 145.123 94.806C144.936 94.6287 144.619 94.54 144.171 94.54C143.797 94.54 143.401 94.6007 142.981 94.722C142.57 94.834 142.159 95.0067 141.749 95.24L141.175 93.826C141.417 93.658 141.711 93.5133 142.057 93.392C142.411 93.2613 142.78 93.1633 143.163 93.098C143.545 93.0233 143.909 92.986 144.255 92.986C144.973 92.986 145.561 93.0933 146.019 93.308C146.485 93.5133 146.835 93.8353 147.069 94.274C147.302 94.7033 147.419 95.2587 147.419 95.94V100H145.445V98.614H145.543C145.487 98.9313 145.365 99.2067 145.179 99.44C145.001 99.664 144.773 99.8413 144.493 99.972C144.213 100.093 143.891 100.154 143.527 100.154ZM148.996 102.52V93.126H151.068V94.484H150.928C151.068 94.036 151.348 93.6767 151.768 93.406C152.197 93.126 152.687 92.986 153.238 92.986C153.835 92.986 154.358 93.1307 154.806 93.42C155.263 93.7093 155.618 94.12 155.87 94.652C156.122 95.184 156.248 95.8187 156.248 96.556C156.248 97.2933 156.122 97.9327 155.87 98.474C155.618 99.0153 155.268 99.4307 154.82 99.72C154.372 100.009 153.844 100.154 153.238 100.154C152.696 100.154 152.216 100.023 151.796 99.762C151.376 99.4913 151.091 99.1413 150.942 98.712H151.11V102.52H148.996ZM152.608 98.572C153.056 98.572 153.42 98.4087 153.7 98.082C153.98 97.746 154.12 97.2373 154.12 96.556C154.12 95.8747 153.98 95.3753 153.7 95.058C153.42 94.7313 153.056 94.568 152.608 94.568C152.15 94.568 151.782 94.7313 151.502 95.058C151.222 95.3753 151.082 95.8747 151.082 96.556C151.082 97.2373 151.222 97.746 151.502 98.082C151.782 98.4087 152.15 98.572 152.608 98.572Z" fill="black"/>
<path d="M41.48 63.1C41.2267 63.1 40.9733 63.07 40.72 63.01C40.4733 62.95 40.2367 62.8633 40.01 62.75C39.79 62.63 39.5867 62.4833 39.4 62.31L39.84 61.34C40.0933 61.5733 40.3567 61.7433 40.63 61.85C40.91 61.95 41.1967 62 41.49 62C41.7767 62 42.0333 61.95 42.26 61.85C42.4867 61.7433 42.6767 61.59 42.83 61.39C42.9833 61.1833 43.1 60.93 43.18 60.63C43.26 60.3233 43.3 59.9733 43.3 59.58V58.98H43.35C43.2967 59.2867 43.1833 59.5533 43.01 59.78C42.8367 60 42.6233 60.1667 42.37 60.28C42.1167 60.3933 41.83 60.45 41.51 60.45C41.11 60.45 40.75 60.3567 40.43 60.17C40.1167 59.9767 39.8667 59.7133 39.68 59.38C39.5 59.04 39.41 58.65 39.41 58.21C39.41 57.75 39.51 57.3433 39.71 56.99C39.91 56.6367 40.1867 56.36 40.54 56.16C40.8933 55.9533 41.2967 55.85 41.75 55.85C42.3433 55.85 42.8433 55.9867 43.25 56.26C43.6633 56.5333 43.9733 56.9333 44.18 57.46C44.3933 57.98 44.5 58.6133 44.5 59.36C44.5 60.1467 44.38 60.82 44.14 61.38C43.9 61.94 43.5533 62.3667 43.1 62.66C42.6533 62.9533 42.1133 63.1 41.48 63.1ZM41.83 59.42C42.07 59.42 42.28 59.37 42.46 59.27C42.6467 59.1633 42.79 59.0133 42.89 58.82C42.99 58.6267 43.04 58.4067 43.04 58.16C43.04 57.9067 42.99 57.6867 42.89 57.5C42.79 57.3067 42.6467 57.1567 42.46 57.05C42.28 56.9433 42.0667 56.89 41.82 56.89C41.58 56.89 41.37 56.9433 41.19 57.05C41.01 57.1567 40.8667 57.3067 40.76 57.5C40.66 57.6867 40.61 57.9067 40.61 58.16C40.61 58.4067 40.66 58.6267 40.76 58.82C40.8667 59.0133 41.01 59.1633 41.19 59.27C41.37 59.37 41.5833 59.42 41.83 59.42ZM45.5761 59.47V58.06H47.0661V59.47H45.5761ZM45.5761 63V61.59H47.0661V63H45.5761ZM51.1728 63V61.67H48.0528V60.72L51.2628 55.95H52.4328V60.61H53.3828V61.67H52.4328V63H51.1728ZM51.1928 60.61V57.51H51.3628L49.1128 60.89L49.0528 60.61H51.1928ZM54.6089 63V61.91H56.3089V57.03L56.9489 57.07L54.9889 58.26L54.4589 57.29L56.6789 55.95H57.6089V61.91H59.1889V63H54.6089Z" fill="black"/>
<rect x="36" y="88" width="17" height="16" rx="4" fill="#F2F3F5"/>
<path d="M46.5 99.3462L45.9051 100L42.6648 96.4367C42.6126 96.3796 42.5711 96.3117 42.5428 96.2369C42.5146 96.1621 42.5 96.0819 42.5 96.0009C42.5 95.9199 42.5146 95.8397 42.5428 95.7649C42.5711 95.6901 42.6126 95.6222 42.6648 95.5652L45.9051 92L46.4994 92.6538L43.4582 96L46.5 99.3462Z" fill="black"/>
<path d="M264.072 56H254.428C253.639 56 253 56.6394 253 57.4281V61.5719C253 62.3606 253.639 63 254.428 63H264.072C264.861 63 265.5 62.3606 265.5 61.5719V57.4281C265.5 56.6394 264.861 56 264.072 56Z" stroke="black" stroke-miterlimit="10" stroke-linecap="square"/>
<path d="M263.697 57.7166H254.803C254.734 57.7166 254.678 57.7725 254.678 57.8416V61.1584C254.678 61.2275 254.734 61.2834 254.803 61.2834H263.697C263.766 61.2834 263.822 61.2275 263.822 61.1584V57.8416C263.822 57.7725 263.766 57.7166 263.697 57.7166Z" fill="black" stroke="black" stroke-miterlimit="10" stroke-linecap="square"/>
<path d="M267 58.3335V60.6666" stroke="black" stroke-miterlimit="10" stroke-linecap="round"/>
<path d="M218 64.0625V60.9375C218 60.6771 218.09 60.4558 218.271 60.2737C218.452 60.0917 218.671 60.0004 218.929 60C219.186 59.9996 219.405 60.0908 219.587 60.2737C219.768 60.4567 219.858 60.6779 219.857 60.9375V64.0625C219.857 64.3229 219.767 64.5444 219.587 64.7269C219.406 64.9094 219.187 65.0004 218.929 65C218.67 64.9996 218.451 64.9085 218.271 64.7269C218.091 64.5452 218.001 64.3237 218 64.0625ZM221.714 64.0625V59.375C221.714 59.1146 221.805 58.8933 221.985 58.7113C222.166 58.5292 222.385 58.4379 222.643 58.4375C222.9 58.4371 223.12 58.5283 223.301 58.7113C223.482 58.8942 223.572 59.1154 223.571 59.375V64.0625C223.571 64.3229 223.481 64.5444 223.301 64.7269C223.121 64.9094 222.901 65.0004 222.643 65C222.385 64.9996 222.165 64.9085 221.985 64.7269C221.805 64.5452 221.715 64.3237 221.714 64.0625ZM225.429 64.0625V57.8125C225.429 57.5521 225.519 57.3308 225.7 57.1488C225.88 56.9667 226.1 56.8754 226.357 56.875C226.615 56.8746 226.834 56.9658 227.015 57.1488C227.196 57.3317 227.287 57.5529 227.286 57.8125V64.0625C227.286 64.3229 227.196 64.5444 227.015 64.7269C226.835 64.9094 226.615 65.0004 226.357 65C226.099 64.9996 225.88 64.9085 225.7 64.7269C225.52 64.5452 225.429 64.3237 225.429 64.0625ZM229.143 64.0625V55.9375C229.143 55.6771 229.233 55.4558 229.414 55.2738C229.595 55.0917 229.814 55.0004 230.071 55C230.329 54.9996 230.548 55.0908 230.729 55.2738C230.911 55.4567 231.001 55.6779 231 55.9375V64.0625C231 64.3229 230.91 64.5444 230.729 64.7269C230.549 64.9094 230.33 65.0004 230.071 65C229.813 64.9996 229.594 64.9085 229.414 64.7269C229.234 64.5452 229.144 64.3237 229.143 64.0625Z" fill="black"/>
<path d="M242 61.5625C241.611 61.5625 241.233 61.6146 240.865 61.7187C240.497 61.8229 240.149 61.9792 239.822 62.1875C239.638 62.3021 239.439 62.3569 239.224 62.3519C239.01 62.3469 238.826 62.266 238.672 62.1094C238.519 61.9527 238.447 61.7704 238.458 61.5625C238.468 61.3546 238.56 61.1879 238.734 61.0625C239.214 60.7187 239.73 60.4556 240.282 60.2731C240.834 60.0906 241.407 59.9996 242 60C242.593 60.0004 243.165 60.0917 243.717 60.2737C244.269 60.4558 244.785 60.7187 245.266 61.0625C245.44 61.1875 245.532 61.3542 245.542 61.5625C245.552 61.7708 245.48 61.9531 245.327 62.1094C245.174 62.2656 244.99 62.3464 244.775 62.3519C244.56 62.3573 244.361 62.3025 244.177 62.1875C243.85 61.9792 243.502 61.8229 243.134 61.7187C242.766 61.6146 242.388 61.5625 242 61.5625ZM242 56.5625C240.957 56.5625 239.953 56.7396 238.986 57.0937C238.02 57.4479 237.139 57.9531 236.342 58.6094C236.168 58.7552 235.976 58.8256 235.767 58.8206C235.558 58.8156 235.376 58.7348 235.222 58.5781C235.069 58.4215 234.995 58.2367 235 58.0237C235.006 57.8108 235.09 57.631 235.253 57.4844C236.204 56.6719 237.257 56.0548 238.412 55.6331C239.567 55.2115 240.763 55.0004 242 55C243.237 54.9996 244.433 55.2106 245.588 55.6331C246.743 56.0556 247.796 56.6727 248.746 57.4844C248.91 57.6302 248.994 57.81 249 58.0237C249.005 58.2375 248.931 58.4223 248.777 58.5781C248.623 58.734 248.442 58.8148 248.232 58.8206C248.023 58.8265 247.832 58.756 247.658 58.6094C246.86 57.9531 245.979 57.4479 245.013 57.0937C244.047 56.7396 243.043 56.5625 242 56.5625ZM242 59.0625C241.284 59.0625 240.594 59.1746 239.93 59.3987C239.265 59.6229 238.647 59.9535 238.074 60.3906C237.901 60.526 237.709 60.5912 237.5 60.5862C237.29 60.5812 237.109 60.5004 236.955 60.3437C236.812 60.1875 236.743 60.0052 236.748 59.7969C236.754 59.5885 236.838 59.4167 237.001 59.2812C237.717 58.6979 238.501 58.2552 239.355 57.9531C240.209 57.651 241.095 57.5 242.015 57.5C242.935 57.5 243.819 57.651 244.668 57.9531C245.517 58.2552 246.299 58.6927 247.014 59.2656C247.177 59.401 247.264 59.5756 247.274 59.7894C247.285 60.0031 247.213 60.1879 247.06 60.3437C246.906 60.4996 246.722 60.5804 246.508 60.5862C246.293 60.5921 246.099 60.5269 245.925 60.3906C245.353 59.9531 244.732 59.6223 244.062 59.3981C243.393 59.174 242.705 59.0621 242 59.0625ZM242 65C241.662 65 241.374 64.8777 241.134 64.6331C240.894 64.3885 240.773 64.0942 240.773 63.75C240.773 63.4058 240.893 63.1117 241.134 62.8675C241.375 62.6233 241.663 62.5008 242 62.5C242.336 62.4992 242.625 62.6217 242.866 62.8675C243.108 63.1133 243.228 63.4075 243.226 63.75C243.225 64.0925 243.105 64.3869 242.866 64.6331C242.628 64.8794 242.339 65.0016 242 65Z" fill="black"/>
<g filter="url(#filter0_d_2_854)">
<rect x="161.997" y="256" width="152" height="29" rx="4" fill="white"/>
<path d="M169.572 267C168.705 267 168 267.641 168 268.429V275.572C168 276.36 168.705 277 169.572 277H177.429C178.295 277 179 276.36 179 275.572V268.429C179 267.641 178.295 267 177.429 267H169.572ZM169.572 275.572V268.429H177.429L177.43 275.572H169.572Z" fill="#D9DADE"/>
<rect x="188.992" y="269" width="18" height="5" rx="2.5" fill="#D9D9D9"/>
<rect x="209.007" y="269" width="98" height="5" rx="2.5" fill="#D9D9D9"/>
</g>
<g filter="url(#filter1_d_2_854)">
<rect x="161.997" y="323" width="152" height="29" rx="4" fill="white"/>
<path d="M169.572 334C168.705 334 168 334.641 168 335.428V342.571C168 343.359 168.705 344 169.572 344H177.429C178.295 344 179 343.359 179 342.571V335.428C179 334.641 178.295 334 177.429 334H169.572ZM169.572 342.571V335.428H177.429L177.43 342.571H169.572Z" fill="#D9DADE"/>
<rect x="188.992" y="336" width="18" height="5" rx="2.5" fill="#D9D9D9"/>
<rect x="209.007" y="336" width="98" height="5" rx="2.5" fill="#D9D9D9"/>
</g>
<g filter="url(#filter2_d_2_854)">
<rect x="75" y="292" width="184" height="25" rx="4" fill="url(#paint0_linear_2_854)" fill-opacity="0.1" shape-rendering="crispEdges"/>
<path d="M90.4548 299H83.5317C83.1238 299.001 82.7327 299.163 82.4443 299.451C82.1559 299.74 81.9937 300.131 81.9932 300.539V307.462C81.9937 307.87 82.1559 308.261 82.4443 308.549C82.7327 308.837 83.1238 309 83.5317 309H90.4548C90.8627 309 91.2537 308.837 91.5421 308.549C91.8306 308.261 91.9928 307.87 91.9932 307.462V300.539C91.9928 300.131 91.8306 299.74 91.5421 299.451C91.2537 299.163 90.8627 299.001 90.4548 299ZM89.5954 302.324L86.3646 306.171C86.3292 306.213 86.2851 306.247 86.2353 306.271C86.1855 306.294 86.1313 306.307 86.0762 306.308H86.0697C86.0158 306.308 85.9625 306.296 85.9132 306.274C85.864 306.253 85.8199 306.22 85.7839 306.18L84.3992 304.642C84.3641 304.605 84.3367 304.561 84.3188 304.513C84.3008 304.465 84.2927 304.414 84.2948 304.362C84.2969 304.311 84.3092 304.261 84.331 304.214C84.3528 304.168 84.3837 304.126 84.4218 304.092C84.4599 304.058 84.5045 304.032 84.5529 304.015C84.6013 303.998 84.6526 303.991 84.7038 303.994C84.7549 303.998 84.8049 304.011 84.8508 304.034C84.8966 304.057 84.9375 304.089 84.9709 304.128L86.0596 305.337L89.0064 301.83C89.0725 301.753 89.1661 301.706 89.2668 301.698C89.3675 301.69 89.4674 301.722 89.5447 301.787C89.6221 301.852 89.6708 301.945 89.6803 302.045C89.6897 302.146 89.6593 302.246 89.5954 302.324Z" fill="#146374"/>
<rect x="100.001" y="301.001" width="18" height="5" rx="2.5" fill="#146374"/>
<rect x="119.996" y="301.001" width="98" height="5" rx="2.5" fill="#146374"/>
</g>
<g clip-path="url(#clip2_2_854)">
<path d="M198 173.849L194.025 169.874L188.063 175.836L182.101 169.874L178.126 173.849L184.088 179.811L178.126 185.773L182.101 189.748L188.063 183.786L194.025 189.748L198 185.773L192.038 179.811L198 173.849Z" fill="#D9D9D9"/>
<path d="M148.315 221.546C155.998 221.546 162.227 215.317 162.227 207.634C162.227 199.951 155.998 193.722 148.315 193.722C140.632 193.722 134.403 199.951 134.403 207.634C134.403 215.317 140.632 221.546 148.315 221.546Z" fill="#D9D9D9"/>
<path d="M146.328 169.874C150.718 169.874 154.277 166.315 154.277 161.924C154.277 157.534 150.718 153.975 146.328 153.975C141.937 153.975 138.378 157.534 138.378 161.924C138.378 166.315 141.937 169.874 146.328 169.874Z" fill="#D9D9D9"/>
<path d="M170.177 181.798C172.372 181.798 174.151 180.019 174.151 177.824C174.151 175.628 172.372 173.849 170.177 173.849C167.981 173.849 166.202 175.628 166.202 177.824C166.202 180.019 167.981 181.798 170.177 181.798Z" fill="#D9D9D9"/>
<path d="M158.252 177.823C160.447 177.823 162.227 176.044 162.227 173.849C162.227 171.653 160.447 169.874 158.252 169.874C156.057 169.874 154.277 171.653 154.277 173.849C154.277 176.044 156.057 177.823 158.252 177.823Z" fill="#D9D9D9"/>
<path d="M130.429 165.899C132.624 165.899 134.404 164.119 134.404 161.924C134.404 159.729 132.624 157.949 130.429 157.949C128.234 157.949 126.454 159.729 126.454 161.924C126.454 164.119 128.234 165.899 130.429 165.899Z" fill="#D9D9D9"/>
<path d="M122.479 177.823C124.674 177.823 126.454 176.044 126.454 173.849C126.454 171.653 124.674 169.874 122.479 169.874C120.284 169.874 118.504 171.653 118.504 173.849C118.504 176.044 120.284 177.823 122.479 177.823Z" fill="#D9D9D9"/>
<path d="M122.479 189.748C124.674 189.748 126.454 187.968 126.454 185.773C126.454 183.578 124.674 181.798 122.479 181.798C120.284 181.798 118.504 183.578 118.504 185.773C118.504 187.968 120.284 189.748 122.479 189.748Z" fill="#D9D9D9"/>
<path d="M130.429 201.672C132.624 201.672 134.404 199.892 134.404 197.697C134.404 195.502 132.624 193.722 130.429 193.722C128.234 193.722 126.454 195.502 126.454 197.697C126.454 199.892 128.234 201.672 130.429 201.672Z" fill="#D9D9D9"/>
</g>
</g>
</g>
<defs>
<filter id="filter0_d_2_854" x="157.997" y="256" width="160" height="37" filterUnits="userSpaceOnUse" color-interpolation-filters="sRGB">
<feFlood flood-opacity="0" result="BackgroundImageFix"/>
<feColorMatrix in="SourceAlpha" type="matrix" values="0 0 0 0 0 0 0 0 0 0 0 0 0 0 0 0 0 0 127 0" result="hardAlpha"/>
<feOffset dy="4"/>
<feGaussianBlur stdDeviation="2"/>
<feComposite in2="hardAlpha" operator="out"/>
<feColorMatrix type="matrix" values="0 0 0 0 0 0 0 0 0 0 0 0 0 0 0 0 0 0 0.25 0"/>
<feBlend mode="normal" in2="BackgroundImageFix" result="effect1_dropShadow_2_854"/>
<feBlend mode="normal" in="SourceGraphic" in2="effect1_dropShadow_2_854" result="shape"/>
</filter>
<filter id="filter1_d_2_854" x="157.997" y="323" width="160" height="37" filterUnits="userSpaceOnUse" color-interpolation-filters="sRGB">
<feFlood flood-opacity="0" result="BackgroundImageFix"/>
<feColorMatrix in="SourceAlpha" type="matrix" values="0 0 0 0 0 0 0 0 0 0 0 0 0 0 0 0 0 0 127 0" result="hardAlpha"/>
<feOffset dy="4"/>
<feGaussianBlur stdDeviation="2"/>
<feComposite in2="hardAlpha" operator="out"/>
<feColorMatrix type="matrix" values="0 0 0 0 0 0 0 0 0 0 0 0 0 0 0 0 0 0 0.25 0"/>
<feBlend mode="normal" in2="BackgroundImageFix" result="effect1_dropShadow_2_854"/>
<feBlend mode="normal" in="SourceGraphic" in2="effect1_dropShadow_2_854" result="shape"/>
</filter>
<filter id="filter2_d_2_854" x="71" y="292" width="192" height="33" filterUnits="userSpaceOnUse" color-interpolation-filters="sRGB">
<feFlood flood-opacity="0" result="BackgroundImageFix"/>
<feColorMatrix in="SourceAlpha" type="matrix" values="0 0 0 0 0 0 0 0 0 0 0 0 0 0 0 0 0 0 127 0" result="hardAlpha"/>
<feOffset dy="4"/>
<feGaussianBlur stdDeviation="2"/>
<feComposite in2="hardAlpha" operator="out"/>
<feColorMatrix type="matrix" values="0 0 0 0 0 0 0 0 0 0 0 0 0 0 0 0 0 0 0.25 0"/>
<feBlend mode="normal" in2="BackgroundImageFix" result="effect1_dropShadow_2_854"/>
<feBlend mode="normal" in="SourceGraphic" in2="effect1_dropShadow_2_854" result="shape"/>
</filter>
<linearGradient id="paint0_linear_2_854" x1="75" y1="304.5" x2="207" y2="304" gradientUnits="userSpaceOnUse">
<stop stop-color="#2BD4CD"/>
<stop offset="1" stop-color="white"/>
</linearGradient>
<clipPath id="clip0_2_854">
<rect width="305" height="372" rx="24" fill="white"/>
</clipPath>
<clipPath id="clip1_2_854">
<rect x="24" y="43" width="262" height="572" rx="28" fill="white"/>
</clipPath>
<clipPath id="clip2_2_854">
<rect width="79.4957" height="79.4957" fill="white" transform="translate(118.504 150)"/>
</clipPath>
</defs>
</svg>
